<svg width="50" height="50" viewBox="0 0 50 50" fill="none" xmlns="http://www.w3.org/2000/svg">
<path d="M49.99 26.9078C49.9303 25.523 48.5754 24.4172 45.9554 23.6203C43.9231 23.0126 41.3429 22.644 38.5535 22.5842V11.9546C38.5435 11.7753 38.4937 11.6059 38.4041 11.4565C38.1251 10.2511 36.7802 9.27477 34.3993 8.5575C32.1578 7.88007 29.2289 7.51147 26.1506 7.51147C23.0823 7.51147 20.1833 7.88007 17.9817 8.5575C16.1785 9.11538 14.0167 10.1514 14.0167 11.9347C14.0167 12.0443 14.0267 12.1538 14.0466 12.2634L14.1562 16.8062C7.68081 15.5708 1.43455 19.8247 0.209205 26.2901C0.069735 27.0273 0 27.7645 0 28.5117C0 35.0867 5.34967 40.4364 11.9247 40.4364C14.6643 40.4364 17.3142 39.4999 19.4361 37.7665C21.2991 38.2048 23.4907 38.4439 25.8119 38.4639C26.32 41.2234 32.2973 42.4886 37.8661 42.4886C40.9344 42.4886 43.8334 42.11 46.0351 41.4226C47.8382 40.8647 50 39.8187 50 38.0355V27.0971C50 27.0373 50 26.9675 49.99 26.9078ZM36.4714 17.4637C36.4714 17.5932 35.9932 18.2806 33.8314 18.9381C31.8091 19.5457 29.0098 19.9044 26.1606 19.9044C23.6999 19.9044 21.2891 19.6454 19.3764 19.1572C19.3465 19.1473 19.3266 19.1473 19.2967 19.1373C18.3503 18.3901 17.3042 17.7924 16.1785 17.374L16.1088 14.5647C16.7962 14.9133 17.5134 15.1923 18.2606 15.3915C20.4224 16.0191 23.2218 16.3579 26.1606 16.3579C29.2289 16.3579 32.1678 15.9893 34.4092 15.3118C35.1564 15.0927 35.8836 14.8038 36.571 14.4451V17.0552C36.4614 17.1947 36.4714 17.3242 36.4714 17.4637ZM18.5794 10.4802C20.5918 9.86254 23.2815 9.51387 26.1506 9.51387C28.9998 9.51387 31.7992 9.86254 33.8215 10.4802C35.9833 11.1377 36.4614 11.8151 36.4614 11.9446C36.4614 12.0841 35.9733 12.7715 33.8115 13.419C31.7892 14.0267 28.9998 14.3754 26.1506 14.3754C23.4011 14.3754 20.791 14.0566 18.8085 13.4788C16.6667 12.8611 16.0689 12.1837 16.0191 11.9646C16.0191 11.9446 16.0092 11.9446 16.0092 11.9446C16.0191 11.7553 16.4774 11.1178 18.5794 10.4802ZM18.6093 35.8637C14.5547 39.5497 8.26858 39.2608 4.58259 35.2062C0.896593 31.1516 1.18549 24.8655 5.24009 21.1795C7.06316 19.5159 9.45407 18.5993 11.9247 18.5993C12.9209 18.5993 13.9072 18.7488 14.8635 19.0377C18.3204 20.1136 20.9205 22.9827 21.6577 26.5192C21.7872 27.1767 21.8569 27.8542 21.8569 28.5216C21.8669 31.321 20.6814 33.9809 18.6093 35.8637ZM21.1397 36.0829C21.9466 35.0967 22.5941 33.9909 23.0524 32.8054C23.8992 32.8751 24.7759 32.9249 25.6924 32.9349V33.1142L25.7521 36.4914C24.208 36.4714 22.6639 36.332 21.1397 36.0829ZM23.7996 27.3361C24.3774 27.376 24.9851 27.3959 25.6027 27.4059L25.6625 30.9325C24.9651 30.9225 24.2777 30.8926 23.6202 30.8428C23.7697 30.0757 23.8494 29.2887 23.8494 28.5117C23.8494 28.1232 23.8294 27.7346 23.7996 27.3361ZM26.2502 25.4234C26.2204 25.4234 26.1805 25.4234 26.1506 25.4234C25.1943 25.4234 24.2678 25.3836 23.411 25.3238C23.0325 23.9889 22.4347 22.7336 21.6278 21.6179C23.1221 21.8072 24.6264 21.9068 26.1407 21.9068C29.219 21.9068 32.1578 21.5382 34.3993 20.8607C35.1464 20.6416 35.8637 20.3527 36.5511 20.004V22.6141C32.2773 22.7336 27.884 23.6302 26.2502 25.4234ZM27.5653 27.0074C27.5653 26.9974 27.5653 26.9875 27.5752 26.9675C27.6649 26.6986 28.3722 26.0411 30.4343 25.4633C32.367 24.9153 34.8874 24.6165 37.5374 24.6165H37.7067C40.5559 24.6165 43.3453 24.9452 45.3776 25.5629C47.4995 26.2005 47.9976 26.858 48.0076 27.0074V27.0174C47.9976 27.1668 47.4995 27.8542 45.2879 28.5117C43.2457 29.1194 40.5559 29.4481 37.7167 29.4481C34.9671 29.4481 32.357 29.1293 30.3746 28.5615C28.2327 27.9438 27.6449 27.2564 27.5852 27.0472C27.5653 27.0074 27.5653 27.0074 27.5653 27.0074ZM45.4573 39.5298C43.4449 40.1574 40.7452 40.5061 37.8761 40.5061C34.997 40.5061 32.3072 40.1674 30.3148 39.5597C28.2128 38.9122 27.7745 38.2447 27.7745 38.0953C27.7745 38.0853 27.7745 38.0853 27.7745 38.0753L27.7246 35.1863C28.5216 35.5748 29.3485 35.8737 30.2052 36.0929C32.2973 36.6408 34.9572 36.9496 37.6868 36.9496C40.7651 36.9496 43.684 36.581 45.9155 35.9036C46.6428 35.6844 47.3401 35.3955 48.0076 35.0568V38.0454H48.0175C48.0175 38.1849 47.5593 38.8723 45.4573 39.5298ZM48.0275 32.1977H48.0175C48.0175 32.2973 47.9578 32.4168 47.9578 32.5264C47.9578 32.6659 47.4895 33.3433 45.3377 34.0008C43.2955 34.6185 40.5758 34.9572 37.6968 34.9572C32.1777 34.9572 28.4618 33.7119 27.6848 32.7456L27.6748 31.9088L27.635 29.6175C28.3323 29.9661 29.0596 30.2451 29.8067 30.4543C31.9685 31.0819 34.7679 31.4206 37.7067 31.4206C40.7352 31.4206 43.6242 31.062 45.8458 30.4045C46.6029 30.1953 47.3301 29.9064 48.0275 29.5477V32.1977V32.1977Z" fill="#626262"/>
<path d="M15.5509 29.9262C15.0926 28.3023 13.6083 27.1866 11.9247 27.1866C10.9484 27.1866 10.1514 26.3996 10.1514 25.4233C10.1614 24.437 10.9484 23.65 11.9247 23.65C12.901 23.65 13.6979 24.447 13.6979 25.4233C13.6979 25.9712 14.1462 26.4195 14.6942 26.4195C15.2421 26.4195 15.6904 25.9712 15.6904 25.4233C15.6904 23.7397 14.5746 22.2553 12.9508 21.7971V21.3488C12.9508 20.8008 12.5025 20.3525 11.9546 20.3525C11.4066 20.3525 10.9583 20.8008 10.9583 21.3488V21.7771C8.95596 22.3151 7.7605 24.3772 8.29845 26.3796C8.73679 28.0234 10.2211 29.169 11.9247 29.169C12.901 29.169 13.6979 29.9561 13.6979 30.9323C13.6979 31.9086 12.9109 32.7056 11.9346 32.7056C10.9583 32.7056 10.1614 31.9186 10.1614 30.9423C10.1614 30.3944 9.71308 29.9461 9.16516 29.9461C8.61724 29.9461 8.16895 30.3944 8.16895 30.9423C8.17891 32.6458 9.31459 34.1302 10.9583 34.5785V35.4452C10.9583 35.9931 11.4066 36.4414 11.9546 36.4414C12.5025 36.4414 12.9508 35.9931 12.9508 35.4452V34.5685C14.9532 34.0007 16.1187 31.9286 15.5509 29.9262Z" fill="#626262"/>
</svg>
