<svg width="50" height="50" viewBox="0 0 50 50" fill="none" xmlns="http://www.w3.org/2000/svg">
<g clip-path="url(#clip0)">
<mask id="path-1-outside-1" maskUnits="userSpaceOnUse" x="39.8333" y="42.3333" width="5" height="5" fill="black">
<rect fill="white" x="39.8333" y="42.3333" width="5" height="5"/>
<path d="M44.1667 44.9999C44.1667 45.9203 43.4204 46.6666 42.5 46.6666C41.5796 46.6666 40.8333 45.9203 40.8333 44.9999C40.8333 44.0795 41.5796 43.3333 42.5 43.3333C43.4204 43.3333 44.1667 44.0795 44.1667 44.9999Z"/>
</mask>
<path d="M44.1667 44.9999C44.1667 45.9203 43.4204 46.6666 42.5 46.6666C41.5796 46.6666 40.8333 45.9203 40.8333 44.9999C40.8333 44.0795 41.5796 43.3333 42.5 43.3333C43.4204 43.3333 44.1667 44.0795 44.1667 44.9999Z" fill="#626262"/>
<path d="M44.1667 44.9999C44.1667 45.9203 43.4204 46.6666 42.5 46.6666C41.5796 46.6666 40.8333 45.9203 40.8333 44.9999C40.8333 44.0795 41.5796 43.3333 42.5 43.3333C43.4204 43.3333 44.1667 44.0795 44.1667 44.9999Z" stroke="#626262" stroke-width="0.8" mask="url(#path-1-outside-1)"/>
<mask id="path-2-outside-2" maskUnits="userSpaceOnUse" x="-1" y="-1.00024" width="52" height="52" fill="black">
<rect fill="white" x="-1" y="-1.00024" width="52" height="52"/>
<path d="M48.6666 26.1664L47.5 25.3916V14.1664C47.4943 9.60874 44.1455 5.74562 39.635 5.09214L41.5833 1.20542C41.7126 0.946628 41.6984 0.639011 41.5454 0.392836C41.3924 0.147067 41.123 -0.00185854 40.8333 -0.000230935H30.8333C30.5436 -0.00185854 30.2743 0.147067 30.1213 0.392836C29.9683 0.639011 29.954 0.946628 30.0834 1.20542L32.0276 5.09214C27.5187 5.74725 24.1724 9.61036 24.1667 14.1664V25.3871L23.0042 26.1623C22.1667 26.7197 21.6642 27.6601 21.6667 28.6664C21.6703 29.1306 21.7826 29.5872 21.995 29.9998H18.3333V15.8331H22.5V14.1664H17.8198L11.3383 8.3331H23.0367L23.8257 8.97804L24.88 7.68816L23.8607 6.85483C23.7122 6.73317 23.5258 6.66644 23.3333 6.66644H9.16016C9.06942 6.66806 8.97949 6.68434 8.89404 6.71486C8.86759 6.72381 8.84399 6.73968 8.81836 6.75148C8.75732 6.77955 8.69995 6.81495 8.64746 6.85646C8.63566 6.86582 8.62101 6.86907 8.60921 6.87965L0.275879 14.3797C0.100098 14.5379 0 14.7634 0 14.9998V30.8331C0.00488281 34.1384 2.17 37.0522 5.33325 38.0104C4.59106 38.6814 4.16707 39.6352 4.16667 40.6358V40.8164C4.16138 42.1657 4.92391 43.4002 6.13241 43.9996L15.8492 48.8572C17.3543 49.6071 19.0125 49.9981 20.6942 49.9998H49.1667C49.6269 49.9998 50 49.6266 50 49.1664V37.4998C50 37.0396 49.6269 36.6664 49.1667 36.6664H47.2034C48.9709 35.2459 49.9996 33.1008 50 30.8331C49.9963 30.5462 49.8433 30.2826 49.5968 30.1365C49.8568 29.6901 49.9959 29.1831 50 28.6664C50.002 27.6625 49.5015 26.7242 48.6666 26.1664V26.1664ZM23.3333 28.6664C23.3325 28.2188 23.5563 27.8009 23.929 27.5531L25.4626 26.5305C25.6954 26.3751 25.835 26.113 25.8333 25.8331V14.1664C25.8382 10.0262 29.1931 6.67132 33.3333 6.66644C33.623 6.66806 33.8924 6.51914 34.0454 6.27337C34.1984 6.02719 34.2126 5.71958 34.0833 5.46079L32.1818 1.66644H39.4849L37.5875 5.46079C37.4585 5.71917 37.4723 6.02597 37.6241 6.27133C37.7763 6.5171 38.0444 6.66644 38.3333 6.66644C42.4736 6.67132 45.8285 10.0262 45.8333 14.1664V25.8331C45.8333 26.1118 45.9725 26.3718 46.204 26.5265L47.7376 27.549C48.2275 27.8753 48.4469 28.4837 48.2772 29.0476C48.1075 29.6116 47.5887 29.9981 46.9999 29.9998H24.6708C23.9343 29.999 23.3366 29.4033 23.3333 28.6664V28.6664ZM1.66667 15.3705L9.16667 8.62078L16.6667 15.3705V29.9998H12.5V24.1664C12.5 23.7062 12.1269 23.3331 11.6667 23.3331H6.66667C6.20646 23.3331 5.83333 23.7062 5.83333 24.1664V29.9998H1.66667V15.3705ZM10.8333 29.9998H7.5V24.9998H10.8333V29.9998ZM16.7826 40.873L11.2374 38.3331H17.1301C16.6732 39.0973 16.5474 40.0144 16.7826 40.873ZM16.5951 47.3647L6.87826 42.5071C6.23617 42.1893 5.83049 41.5334 5.83333 40.8164V40.6358C5.8313 39.9912 6.15845 39.3906 6.70044 39.0423C7.24243 38.694 7.92481 38.6468 8.50993 38.9166L17.9858 43.2566C18.0949 43.3067 18.2133 43.3327 18.3333 43.3331H26.6667C27.1269 43.3331 27.5 42.96 27.5 42.4998C27.5 42.0396 27.1269 41.6664 26.6667 41.6664H20C19.0796 41.6664 18.3333 40.9202 18.3333 39.9998C18.3333 39.0794 19.0796 38.3331 20 38.3331H26.3892C26.5283 38.3331 26.6654 38.2981 26.7875 38.2314L27.0007 38.1158C30.26 36.3214 34.2004 36.2762 37.5 37.995V48.3331H20.6942C19.2712 48.3319 17.8682 48.0003 16.5951 47.3647V47.3647ZM48.3333 38.3331V48.3331H39.1667V38.3331H48.3333ZM42.5 36.6664H38.5392C34.703 34.5453 30.0472 34.5396 26.2056 36.6514L20 36.6664H7.5C4.60164 36.6628 2.14396 34.5347 1.72567 31.6664H48.2743C47.856 34.5347 45.3984 36.6628 42.5 36.6664Z"/>
</mask>
<path d="M48.6666 26.1664L47.5 25.3916V14.1664C47.4943 9.60874 44.1455 5.74562 39.635 5.09214L41.5833 1.20542C41.7126 0.946628 41.6984 0.639011 41.5454 0.392836C41.3924 0.147067 41.123 -0.00185854 40.8333 -0.000230935H30.8333C30.5436 -0.00185854 30.2743 0.147067 30.1213 0.392836C29.9683 0.639011 29.954 0.946628 30.0834 1.20542L32.0276 5.09214C27.5187 5.74725 24.1724 9.61036 24.1667 14.1664V25.3871L23.0042 26.1623C22.1667 26.7197 21.6642 27.6601 21.6667 28.6664C21.6703 29.1306 21.7826 29.5872 21.995 29.9998H18.3333V15.8331H22.5V14.1664H17.8198L11.3383 8.3331H23.0367L23.8257 8.97804L24.88 7.68816L23.8607 6.85483C23.7122 6.73317 23.5258 6.66644 23.3333 6.66644H9.16016C9.06942 6.66806 8.97949 6.68434 8.89404 6.71486C8.86759 6.72381 8.84399 6.73968 8.81836 6.75148C8.75732 6.77955 8.69995 6.81495 8.64746 6.85646C8.63566 6.86582 8.62101 6.86907 8.60921 6.87965L0.275879 14.3797C0.100098 14.5379 0 14.7634 0 14.9998V30.8331C0.00488281 34.1384 2.17 37.0522 5.33325 38.0104C4.59106 38.6814 4.16707 39.6352 4.16667 40.6358V40.8164C4.16138 42.1657 4.92391 43.4002 6.13241 43.9996L15.8492 48.8572C17.3543 49.6071 19.0125 49.9981 20.6942 49.9998H49.1667C49.6269 49.9998 50 49.6266 50 49.1664V37.4998C50 37.0396 49.6269 36.6664 49.1667 36.6664H47.2034C48.9709 35.2459 49.9996 33.1008 50 30.8331C49.9963 30.5462 49.8433 30.2826 49.5968 30.1365C49.8568 29.6901 49.9959 29.1831 50 28.6664C50.002 27.6625 49.5015 26.7242 48.6666 26.1664V26.1664ZM23.3333 28.6664C23.3325 28.2188 23.5563 27.8009 23.929 27.5531L25.4626 26.5305C25.6954 26.3751 25.835 26.113 25.8333 25.8331V14.1664C25.8382 10.0262 29.1931 6.67132 33.3333 6.66644C33.623 6.66806 33.8924 6.51914 34.0454 6.27337C34.1984 6.02719 34.2126 5.71958 34.0833 5.46079L32.1818 1.66644H39.4849L37.5875 5.46079C37.4585 5.71917 37.4723 6.02597 37.6241 6.27133C37.7763 6.5171 38.0444 6.66644 38.3333 6.66644C42.4736 6.67132 45.8285 10.0262 45.8333 14.1664V25.8331C45.8333 26.1118 45.9725 26.3718 46.204 26.5265L47.7376 27.549C48.2275 27.8753 48.4469 28.4837 48.2772 29.0476C48.1075 29.6116 47.5887 29.9981 46.9999 29.9998H24.6708C23.9343 29.999 23.3366 29.4033 23.3333 28.6664V28.6664ZM1.66667 15.3705L9.16667 8.62078L16.6667 15.3705V29.9998H12.5V24.1664C12.5 23.7062 12.1269 23.3331 11.6667 23.3331H6.66667C6.20646 23.3331 5.83333 23.7062 5.83333 24.1664V29.9998H1.66667V15.3705ZM10.8333 29.9998H7.5V24.9998H10.8333V29.9998ZM16.7826 40.873L11.2374 38.3331H17.1301C16.6732 39.0973 16.5474 40.0144 16.7826 40.873ZM16.5951 47.3647L6.87826 42.5071C6.23617 42.1893 5.83049 41.5334 5.83333 40.8164V40.6358C5.8313 39.9912 6.15845 39.3906 6.70044 39.0423C7.24243 38.694 7.92481 38.6468 8.50993 38.9166L17.9858 43.2566C18.0949 43.3067 18.2133 43.3327 18.3333 43.3331H26.6667C27.1269 43.3331 27.5 42.96 27.5 42.4998C27.5 42.0396 27.1269 41.6664 26.6667 41.6664H20C19.0796 41.6664 18.3333 40.9202 18.3333 39.9998C18.3333 39.0794 19.0796 38.3331 20 38.3331H26.3892C26.5283 38.3331 26.6654 38.2981 26.7875 38.2314L27.0007 38.1158C30.26 36.3214 34.2004 36.2762 37.5 37.995V48.3331H20.6942C19.2712 48.3319 17.8682 48.0003 16.5951 47.3647V47.3647ZM48.3333 38.3331V48.3331H39.1667V38.3331H48.3333ZM42.5 36.6664H38.5392C34.703 34.5453 30.0472 34.5396 26.2056 36.6514L20 36.6664H7.5C4.60164 36.6628 2.14396 34.5347 1.72567 31.6664H48.2743C47.856 34.5347 45.3984 36.6628 42.5 36.6664Z" fill="#626262"/>
<path d="M48.6666 26.1664L47.5 25.3916V14.1664C47.4943 9.60874 44.1455 5.74562 39.635 5.09214L41.5833 1.20542C41.7126 0.946628 41.6984 0.639011 41.5454 0.392836C41.3924 0.147067 41.123 -0.00185854 40.8333 -0.000230935H30.8333C30.5436 -0.00185854 30.2743 0.147067 30.1213 0.392836C29.9683 0.639011 29.954 0.946628 30.0834 1.20542L32.0276 5.09214C27.5187 5.74725 24.1724 9.61036 24.1667 14.1664V25.3871L23.0042 26.1623C22.1667 26.7197 21.6642 27.6601 21.6667 28.6664C21.6703 29.1306 21.7826 29.5872 21.995 29.9998H18.3333V15.8331H22.5V14.1664H17.8198L11.3383 8.3331H23.0367L23.8257 8.97804L24.88 7.68816L23.8607 6.85483C23.7122 6.73317 23.5258 6.66644 23.3333 6.66644H9.16016C9.06942 6.66806 8.97949 6.68434 8.89404 6.71486C8.86759 6.72381 8.84399 6.73968 8.81836 6.75148C8.75732 6.77955 8.69995 6.81495 8.64746 6.85646C8.63566 6.86582 8.62101 6.86907 8.60921 6.87965L0.275879 14.3797C0.100098 14.5379 0 14.7634 0 14.9998V30.8331C0.00488281 34.1384 2.17 37.0522 5.33325 38.0104C4.59106 38.6814 4.16707 39.6352 4.16667 40.6358V40.8164C4.16138 42.1657 4.92391 43.4002 6.13241 43.9996L15.8492 48.8572C17.3543 49.6071 19.0125 49.9981 20.6942 49.9998H49.1667C49.6269 49.9998 50 49.6266 50 49.1664V37.4998C50 37.0396 49.6269 36.6664 49.1667 36.6664H47.2034C48.9709 35.2459 49.9996 33.1008 50 30.8331C49.9963 30.5462 49.8433 30.2826 49.5968 30.1365C49.8568 29.6901 49.9959 29.1831 50 28.6664C50.002 27.6625 49.5015 26.7242 48.6666 26.1664V26.1664ZM23.3333 28.6664C23.3325 28.2188 23.5563 27.8009 23.929 27.5531L25.4626 26.5305C25.6954 26.3751 25.835 26.113 25.8333 25.8331V14.1664C25.8382 10.0262 29.1931 6.67132 33.3333 6.66644C33.623 6.66806 33.8924 6.51914 34.0454 6.27337C34.1984 6.02719 34.2126 5.71958 34.0833 5.46079L32.1818 1.66644H39.4849L37.5875 5.46079C37.4585 5.71917 37.4723 6.02597 37.6241 6.27133C37.7763 6.5171 38.0444 6.66644 38.3333 6.66644C42.4736 6.67132 45.8285 10.0262 45.8333 14.1664V25.8331C45.8333 26.1118 45.9725 26.3718 46.204 26.5265L47.7376 27.549C48.2275 27.8753 48.4469 28.4837 48.2772 29.0476C48.1075 29.6116 47.5887 29.9981 46.9999 29.9998H24.6708C23.9343 29.999 23.3366 29.4033 23.3333 28.6664V28.6664ZM1.66667 15.3705L9.16667 8.62078L16.6667 15.3705V29.9998H12.5V24.1664C12.5 23.7062 12.1269 23.3331 11.6667 23.3331H6.66667C6.20646 23.3331 5.83333 23.7062 5.83333 24.1664V29.9998H1.66667V15.3705ZM10.8333 29.9998H7.5V24.9998H10.8333V29.9998ZM16.7826 40.873L11.2374 38.3331H17.1301C16.6732 39.0973 16.5474 40.0144 16.7826 40.873ZM16.5951 47.3647L6.87826 42.5071C6.23617 42.1893 5.83049 41.5334 5.83333 40.8164V40.6358C5.8313 39.9912 6.15845 39.3906 6.70044 39.0423C7.24243 38.694 7.92481 38.6468 8.50993 38.9166L17.9858 43.2566C18.0949 43.3067 18.2133 43.3327 18.3333 43.3331H26.6667C27.1269 43.3331 27.5 42.96 27.5 42.4998C27.5 42.0396 27.1269 41.6664 26.6667 41.6664H20C19.0796 41.6664 18.3333 40.9202 18.3333 39.9998C18.3333 39.0794 19.0796 38.3331 20 38.3331H26.3892C26.5283 38.3331 26.6654 38.2981 26.7875 38.2314L27.0007 38.1158C30.26 36.3214 34.2004 36.2762 37.5 37.995V48.3331H20.6942C19.2712 48.3319 17.8682 48.0003 16.5951 47.3647V47.3647ZM48.3333 38.3331V48.3331H39.1667V38.3331H48.3333ZM42.5 36.6664H38.5392C34.703 34.5453 30.0472 34.5396 26.2056 36.6514L20 36.6664H7.5C4.60164 36.6628 2.14396 34.5347 1.72567 31.6664H48.2743C47.856 34.5347 45.3984 36.6628 42.5 36.6664Z" stroke="#626262" stroke-width="0.8" mask="url(#path-2-outside-2)"/>
<mask id="path-3-outside-3" maskUnits="userSpaceOnUse" x="30.6667" y="10.6667" width="10" height="15" fill="black">
<rect fill="white" x="30.6667" y="10.6667" width="10" height="15"/>
<path d="M37.0833 17.5001H34.5833C33.8928 17.5001 33.3333 16.9406 33.3333 16.2501C33.3333 15.5596 33.8928 15.0001 34.5833 15.0001H39.1667V13.3334H36.6667V11.6667H35V13.3334H34.5833C32.9724 13.3334 31.6667 14.6392 31.6667 16.2501C31.6667 17.861 32.9724 19.1667 34.5833 19.1667H37.0833C37.7738 19.1667 38.3333 19.7262 38.3333 20.4167C38.3333 21.1073 37.7738 21.6667 37.0833 21.6667H32.5V23.3334H35V25.0001H36.6667V23.3334H37.0833C38.6942 23.3334 40 22.0277 40 20.4167C40 18.8058 38.6942 17.5001 37.0833 17.5001Z"/>
</mask>
<path d="M37.0833 17.5001H34.5833C33.8928 17.5001 33.3333 16.9406 33.3333 16.2501C33.3333 15.5596 33.8928 15.0001 34.5833 15.0001H39.1667V13.3334H36.6667V11.6667H35V13.3334H34.5833C32.9724 13.3334 31.6667 14.6392 31.6667 16.2501C31.6667 17.861 32.9724 19.1667 34.5833 19.1667H37.0833C37.7738 19.1667 38.3333 19.7262 38.3333 20.4167C38.3333 21.1073 37.7738 21.6667 37.0833 21.6667H32.5V23.3334H35V25.0001H36.6667V23.3334H37.0833C38.6942 23.3334 40 22.0277 40 20.4167C40 18.8058 38.6942 17.5001 37.0833 17.5001Z" fill="#626262"/>
<path d="M37.0833 17.5001H34.5833C33.8928 17.5001 33.3333 16.9406 33.3333 16.2501C33.3333 15.5596 33.8928 15.0001 34.5833 15.0001H39.1667V13.3334H36.6667V11.6667H35V13.3334H34.5833C32.9724 13.3334 31.6667 14.6392 31.6667 16.2501C31.6667 17.861 32.9724 19.1667 34.5833 19.1667H37.0833C37.7738 19.1667 38.3333 19.7262 38.3333 20.4167C38.3333 21.1073 37.7738 21.6667 37.0833 21.6667H32.5V23.3334H35V25.0001H36.6667V23.3334H37.0833C38.6942 23.3334 40 22.0277 40 20.4167C40 18.8058 38.6942 17.5001 37.0833 17.5001Z" stroke="#626262" stroke-width="0.8" mask="url(#path-3-outside-3)"/>
<mask id="path-4-outside-4" maskUnits="userSpaceOnUse" x="5.66666" y="14.8333" width="7" height="8" fill="black">
<rect fill="white" x="5.66666" y="14.8333" width="7" height="8"/>
<path d="M7.49999 21.6666H10.8333C11.2935 21.6666 11.6667 21.2935 11.6667 20.8333V16.6666C11.6667 16.2064 11.2935 15.8333 10.8333 15.8333H7.49999C7.03978 15.8333 6.66666 16.2064 6.66666 16.6666V20.8333C6.66666 21.2935 7.03978 21.6666 7.49999 21.6666ZM8.33332 17.4999H9.99999V19.9999H8.33332V17.4999Z"/>
</mask>
<path d="M7.49999 21.6666H10.8333C11.2935 21.6666 11.6667 21.2935 11.6667 20.8333V16.6666C11.6667 16.2064 11.2935 15.8333 10.8333 15.8333H7.49999C7.03978 15.8333 6.66666 16.2064 6.66666 16.6666V20.8333C6.66666 21.2935 7.03978 21.6666 7.49999 21.6666ZM8.33332 17.4999H9.99999V19.9999H8.33332V17.4999Z" fill="#626262"/>
<path d="M7.49999 21.6666H10.8333C11.2935 21.6666 11.6667 21.2935 11.6667 20.8333V16.6666C11.6667 16.2064 11.2935 15.8333 10.8333 15.8333H7.49999C7.03978 15.8333 6.66666 16.2064 6.66666 16.6666V20.8333C6.66666 21.2935 7.03978 21.6666 7.49999 21.6666ZM8.33332 17.4999H9.99999V19.9999H8.33332V17.4999Z" stroke="#626262" stroke-width="0.8" mask="url(#path-4-outside-4)"/>
</g>
<defs>
<clipPath id="clip0">
<rect width="50" height="50" fill="white"/>
</clipPath>
</defs>
</svg>
