<svg width="52" height="51" viewBox="0 0 52 51" fill="none" xmlns="http://www.w3.org/2000/svg">
<path d="M8.84496 32.4013V33.806H5.70045C5.44213 33.806 5.19459 33.9087 5.01208 34.0912L0.893934 38.2094L0.787868 38.3154L0.893934 38.4215L2.05854 39.5861L2.16461 39.6922L2.27068 39.5861L6.10356 35.7532H11.3158V38.7477H9.96859V37.2505V37.1005H9.81859H8.17133H8.02133V37.2505V44.26L5.01208 47.2692L5.11353 47.3706L5.01208 47.2692C4.82956 47.4517 4.72682 47.6992 4.72682 47.9575V49.6048C4.72682 50.1425 5.16276 50.5784 5.70045 50.5784H18.8785C19.1368 50.5784 19.3844 50.4757 19.5669 50.2932L22.5761 47.2839H32.0566C33.504 47.2839 34.6774 46.1105 34.6774 44.663V34.7795C34.6774 33.3321 33.504 32.1586 32.0566 32.1586H30.5593V31.485C30.5593 30.4923 29.7547 29.6877 28.762 29.6877H27.2648V22.5211C33.1737 21.9906 37.5738 16.8047 37.1162 10.8724C36.6549 4.89399 31.4344 0.421468 25.456 0.882689C19.4775 1.34391 15.0049 6.56433 15.4661 12.5429C15.8743 17.834 20.0455 22.0473 25.3175 22.5212V29.6878H22.9966C22.7383 29.6878 22.4908 29.7906 22.3083 29.9731L15.734 36.5474V36.4268C15.734 35.8892 15.298 35.4532 14.7604 35.4532H13.2631V34.7796C13.2631 34.2419 12.8272 33.806 12.2895 33.806H10.7922V32.4013C15.331 31.8723 18.6214 27.7963 18.1628 23.2331C17.6997 18.6247 13.5883 15.2643 8.97996 15.7275C4.37159 16.1906 1.01121 20.302 1.47434 24.9103C1.86868 28.8335 4.94068 31.9456 8.84496 32.4013ZM28.612 31.635V38.7476H27.2648V35.6031V35.4531H27.1148H25.4675H25.3175V35.6031V45.3367H22.5761L16.1371 38.8976L23.3998 31.635H28.612ZM3.37956 24.0721C3.37965 20.5161 6.26249 17.6333 9.81859 17.6333C13.3747 17.6333 16.2576 20.5162 16.2576 24.0723C16.2576 27.6284 13.3748 30.5113 9.81875 30.5113C6.26412 30.5074 3.38359 27.6268 3.37956 24.0721ZM17.3812 11.7177C17.3813 6.797 21.3704 2.80798 26.2912 2.80798C31.212 2.80798 35.2011 6.79709 35.2011 11.7179C35.2011 16.6386 31.2121 20.6277 26.2913 20.6278C21.3729 20.622 17.387 16.6363 17.3812 11.7177ZM13.2631 37.4004H13.7867V38.4945L13.2631 39.0181V37.4004ZM9.96859 40.6949H11.5864L9.96859 42.3127V40.6949ZM20.7963 46.3103L18.4754 48.6312H6.67407V48.3606L14.7604 40.2744L20.7963 46.3103ZM32.7302 44.663C32.7302 45.035 32.4286 45.3367 32.0566 45.3367H27.2648V43.9894H32.7302V44.663ZM32.7302 42.0421H27.2648V40.6949H32.7302V42.0421ZM32.7302 38.7476H30.5593V37.4004H32.7302V38.7476ZM32.7302 35.4531H30.5593V34.1059H32.0566C32.4286 34.1059 32.7302 34.4075 32.7302 34.7795V35.4531Z" fill="#626262" stroke="#626262" stroke-width="0.3"/>
<path d="M30.7567 6.08778L30.6506 5.98172L30.5445 6.08778L22.9966 13.6357L20.3905 11.0296L20.2844 10.9235L20.1784 11.0296L19.0137 12.1942L18.9077 12.3002L19.0137 12.4063L22.3083 15.7008L22.3083 15.7008C22.6885 16.0809 23.3048 16.0809 23.685 15.7008L23.685 15.7008L31.9213 7.46452L32.0274 7.35846L31.9213 7.25239L30.7567 6.08778Z" fill="#626262" stroke="#626262" stroke-width="0.3"/>
<path d="M46.0583 34.6295H46.0582H43.7373V33.2247C47.9532 32.7281 51.1446 29.1554 51.15 24.8961V24.896C51.1504 20.2643 47.3961 16.5094 42.7645 16.5089C38.1328 16.5085 34.3779 20.2628 34.3774 24.8945C34.377 29.1563 37.5712 32.7327 41.7901 33.2248V34.6356C40.8676 34.7119 40.1428 35.4846 40.1428 36.4267V37.1004H38.6456C37.1981 37.1004 36.0247 38.2738 36.0247 39.7212V50.4284V50.5784H36.1747H37.8219H37.9719V50.4284V48.9312H43.4373V50.4284V50.5784H43.5873H45.2346H45.3846V50.4284V38.8976V38.7476H45.2346H43.5873H43.4373V38.8976V40.3949H42.0901V36.5767H45.6551L49.488 40.4096L49.5941 40.5157L49.7001 40.4096L50.8647 39.245L50.9708 39.1389L50.8647 39.0329L46.7466 34.9147C46.5641 34.7322 46.3165 34.6296 46.0583 34.6295ZM37.9719 39.7212C37.9719 39.3492 38.2736 39.0476 38.6456 39.0476H40.1428V40.3949H37.9719V39.7212ZM43.4373 46.9839H37.9719V45.6366H43.4373V46.9839ZM43.4373 42.3421V43.6894H37.9719V42.3421H43.4373ZM36.3247 24.8959C36.3247 21.3398 39.2076 18.4569 42.7637 18.4569C46.3199 18.4569 49.2027 21.3398 49.2027 24.8959C49.2027 28.452 46.32 31.3349 42.7639 31.335C39.2093 31.331 36.3288 28.4505 36.3247 24.8959Z" fill="#626262" stroke="#626262" stroke-width="0.3"/>
<path d="M40.2928 25.9902L38.5103 24.2077L38.4043 24.1016L38.2982 24.2077L37.1336 25.3723L37.0275 25.4784L37.1336 25.5844L39.6045 28.0553L39.6045 28.0553C39.9847 28.4354 40.601 28.4354 40.9812 28.0553L40.9812 28.0553L47.1584 21.8781L47.2645 21.772L47.1584 21.666L45.9938 20.5014L45.8878 20.3953L45.7817 20.5014L40.2928 25.9902Z" fill="#626262" stroke="#626262" stroke-width="0.3"/>
<path d="M7.34771 25.1665L5.5652 23.384L5.45914 23.2779L5.35307 23.384L4.18846 24.5486L4.08239 24.6546L4.18846 24.7607L6.65934 27.2316L6.65936 27.2316C7.03956 27.6117 7.65587 27.6117 8.03607 27.2316L8.03609 27.2316L14.2133 21.0544L14.3194 20.9483L14.2133 20.8422L13.0487 19.6776L12.9426 19.5716L12.8366 19.6776L7.34771 25.1665Z" fill="#626262" stroke="#626262" stroke-width="0.3"/>
</svg>
