<svg width="50" height="47" viewBox="0 0 50 47" fill="none" xmlns="http://www.w3.org/2000/svg">
<path d="M39.7181 0H10.282C4.6125 0 0 4.6125 0 10.282C0 15.9516 4.6125 20.5641 10.282 20.5641H17.7687V28.871L17.4031 28.5644C15.5962 27.048 12.7687 27.1713 11.1006 28.8395C9.35254 30.5876 9.46699 33.3658 11.3679 34.9607L17.7686 40.3316V45.5078C17.7686 46.3168 18.4244 46.9727 19.2334 46.9727H36.8115C37.6205 46.9727 38.2764 46.3168 38.2764 45.5078V29.0473C38.2764 26.8348 36.6207 24.96 34.4251 24.6864L26.5576 23.7063V20.5639H39.7181C45.3876 20.5639 50 15.9514 50 10.2818C50 4.61231 45.3876 0 39.7181 0V0ZM20.6982 44.043V41.1133H35.3467V44.043H20.6982ZM34.063 27.5937C34.7948 27.6849 35.3468 28.3098 35.3468 29.0473V38.1836H19.7666L13.251 32.7164C12.6727 32.2312 12.6376 31.4457 13.1722 30.911C13.7726 30.3107 14.8696 30.2629 15.52 30.8086L18.2919 33.1345C19.2427 33.9321 20.6983 33.2555 20.6983 32.0123V13.2812C20.6983 12.4735 21.3555 11.8164 22.1632 11.8164C22.9709 11.8164 23.628 12.4735 23.628 13.2812V25C23.628 25.739 24.1785 26.3622 24.9118 26.4536L34.063 27.5937ZM39.7181 17.6343H26.5576V13.2812C26.5576 10.8581 24.5862 8.88672 22.1631 8.88672C19.7399 8.88672 17.7686 10.8581 17.7686 13.2812V17.6343H10.2819C6.22793 17.6343 2.92969 14.336 2.92969 10.282C2.92969 6.22803 6.22793 2.92969 10.282 2.92969H39.7181C43.7721 2.92969 47.0703 6.22793 47.0703 10.282C47.0703 14.3361 43.7721 17.6343 39.7181 17.6343V17.6343Z" fill="#626262"/>
<path d="M38.6029 6.2885L33.7793 11.112L31.8853 9.21819C31.3134 8.64612 30.3858 8.64612 29.8138 9.21819C29.2417 9.79026 29.2417 10.7177 29.8138 11.2898L32.7434 14.2195C33.3154 14.7915 34.243 14.7916 34.815 14.2195L40.6744 8.36008C41.2465 7.78801 41.2465 6.86057 40.6744 6.2885C40.1024 5.71633 39.1749 5.71633 38.6029 6.2885Z" fill="#626262"/>
</svg>
