<svg width="61" height="61" viewBox="0 0 61 61" fill="none" xmlns="http://www.w3.org/2000/svg">
<path d="M51.6469 49.0749C51.266 48.791 50.8245 48.5992 50.3571 48.5145C49.8896 48.4298 49.4089 48.4546 48.9527 48.5869L41.6835 50.732V41.6837H44.7335C44.9346 41.6844 45.1313 41.6247 45.2981 41.5123C45.4649 41.3999 45.594 41.24 45.6688 41.0533C45.7467 40.8682 45.768 40.6641 45.73 40.4669C45.692 40.2697 45.5964 40.0881 45.4553 39.9452L38.3386 32.8285C38.1467 32.638 37.8872 32.5311 37.6168 32.5311C37.3464 32.5311 37.0869 32.638 36.895 32.8285L29.7783 39.9452C29.6372 40.0881 29.5416 40.2697 29.5036 40.4669C29.4656 40.6641 29.4869 40.8682 29.5648 41.0533C29.6396 41.24 29.7687 41.3999 29.9355 41.5123C30.1023 41.6247 30.299 41.6844 30.5001 41.6837H33.5501V52.867H26.6978L21.2077 49.817H29.4834C30.2916 49.8146 31.066 49.4925 31.6375 48.921C32.2089 48.3496 32.531 47.5752 32.5335 46.767V46.2587C32.5317 45.6007 32.3181 44.9607 31.9245 44.4334C31.5309 43.9061 30.978 43.5195 30.3476 43.3307L24.4001 41.582V36.6003H27.4501C27.6512 36.6011 27.8479 36.5414 28.0147 36.429C28.1815 36.3166 28.3107 36.1567 28.3854 35.97C28.4633 35.7848 28.4846 35.5808 28.4466 35.3835C28.4086 35.1863 28.313 35.0048 28.1719 34.8618L21.0552 27.7451C20.8633 27.5546 20.6038 27.4478 20.3334 27.4478C20.063 27.4478 19.8035 27.5546 19.6116 27.7451L12.4949 34.8618C12.3538 35.0048 12.2582 35.1863 12.2202 35.3835C12.1823 35.5808 12.2035 35.7848 12.2814 35.97C12.3562 36.1567 12.4853 36.3166 12.6521 36.429C12.8189 36.5414 13.0156 36.6011 13.2167 36.6003H16.2667V39.1928L14.5181 38.6743C14.426 38.6452 14.3299 38.6315 14.2334 38.6337H8.13336V36.6003C8.13336 36.3307 8.02625 36.0721 7.83559 35.8814C7.64492 35.6908 7.38633 35.5836 7.11669 35.5836H1.01667C0.747033 35.5836 0.488438 35.6908 0.297776 35.8814C0.107113 36.0721 0 36.3307 0 36.6003V58.9671C0 59.2367 0.107113 59.4953 0.297776 59.686C0.488438 59.8766 0.747033 59.9837 1.01667 59.9837H7.11669C7.38633 59.9837 7.64492 59.8766 7.83559 59.686C8.02625 59.4953 8.13336 59.2367 8.13336 58.9671V57.3302L18.9914 60.9496C19.097 60.9813 19.2065 60.9984 19.3167 61.0004H34.5668C34.6814 61.0008 34.7952 60.9801 34.9023 60.9394L50.8335 55.3172C51.4284 55.1069 51.9435 54.7172 52.3076 54.2019C52.6718 53.6866 52.8672 53.071 52.8669 52.44V51.5149C52.8681 51.0411 52.7584 50.5737 52.5466 50.15C52.3347 49.7263 52.0266 49.3581 51.6469 49.0749ZM6.10002 57.9504H2.03334V37.617H6.10002V57.9504ZM32.9503 39.6503L37.6168 34.9838L42.2833 39.6503H40.6668C40.3972 39.6503 40.1386 39.7574 39.9479 39.9481C39.7573 40.1388 39.6501 40.3974 39.6501 40.667V51.3319L35.5835 52.5214V40.667C35.5835 40.3974 35.4763 40.1388 35.2857 39.9481C35.095 39.7574 34.8364 39.6503 34.5668 39.6503H32.9503ZM15.6669 34.567L20.3334 29.9005L24.9999 34.567H23.3834C23.1138 34.567 22.8552 34.6741 22.6645 34.8647C22.4739 35.0554 22.3667 35.314 22.3667 35.5836V40.9822L18.3001 39.7825V35.5836C18.3001 35.314 18.193 35.0554 18.0023 34.8647C17.8116 34.6741 17.553 34.567 17.2834 34.567H15.6669ZM50.8335 52.44C50.8348 52.6519 50.7698 52.8589 50.6477 53.0321C50.5256 53.2053 50.3524 53.3359 50.1524 53.4059L34.394 58.9671H19.4794L8.13336 55.185V40.667H14.0911L29.7681 45.2827C29.9786 45.3454 30.1634 45.4742 30.2952 45.6499C30.427 45.8256 30.4988 46.039 30.5001 46.2587V46.767C30.5001 47.0367 30.393 47.2952 30.2023 47.4859C30.0117 47.6766 29.7531 47.7837 29.4834 47.7837H17.2834C17.0592 47.7844 16.8414 47.8592 16.6641 47.9964C16.4868 48.1337 16.3599 48.3257 16.303 48.5426C16.2462 48.7596 16.2627 48.9892 16.3499 49.1958C16.4371 49.4023 16.5901 49.5743 16.7852 49.6849L25.9353 54.7682C26.0862 54.8567 26.2584 54.9024 26.4334 54.9004H34.5668C34.6633 54.9026 34.7595 54.8888 34.8515 54.8597L49.5322 50.5389C49.6837 50.4947 49.8434 50.4864 49.9987 50.5146C50.154 50.5428 50.3006 50.6068 50.4268 50.7015C50.5531 50.7962 50.6556 50.919 50.7262 51.0602C50.7968 51.2014 50.8335 51.357 50.8335 51.5149V52.44Z" fill="#FF4C67"/>
<path d="M32.5335 0C29.5173 0 26.5689 0.8944 24.061 2.5701C21.5532 4.2458 19.5985 6.62753 18.4443 9.41411C17.2901 12.2007 16.9881 15.267 17.5765 18.2252C18.1649 21.1834 19.6173 23.9007 21.7501 26.0335C23.8828 28.1662 26.6001 29.6187 29.5584 30.2071C32.5166 30.7955 35.5829 30.4935 38.3694 29.3393C41.156 28.185 43.5378 26.2304 45.2135 23.7225C46.8892 21.2147 47.7836 18.2662 47.7836 15.2501C47.7787 11.207 46.1705 7.33088 43.3116 4.47199C40.4527 1.6131 36.5766 0.00484298 32.5335 0ZM45.6994 14.2334H43.666C43.5462 12.9665 43.2128 11.729 42.6799 10.5734L44.4387 9.54653C45.1442 11.0178 45.5716 12.6068 45.6994 14.2334ZM39.9959 4.35135C41.3403 5.2789 42.5047 6.44331 43.4322 7.78769L41.6632 8.80437C40.922 7.76835 40.0152 6.86153 38.9792 6.12036L39.9959 4.35135ZM33.5502 2.08417C35.1768 2.212 36.7658 2.6394 38.237 3.34485L37.2102 5.10368C36.0546 4.57075 34.8171 4.23732 33.5502 4.11752V2.08417ZM31.5168 2.08417V4.11752C30.2499 4.23732 29.0124 4.57075 27.8568 5.10368L26.83 3.34485C28.3012 2.6394 29.8902 2.212 31.5168 2.08417ZM25.0711 4.35135L26.0878 6.12036C25.0518 6.86153 24.145 7.76835 23.4038 8.80437L21.6348 7.78769C22.5624 6.44331 23.7268 5.2789 25.0711 4.35135ZM20.6283 9.54653L22.3871 10.5734C21.8542 11.729 21.5208 12.9665 21.401 14.2334H19.3676C19.4954 12.6068 19.9229 11.0178 20.6283 9.54653ZM19.3676 16.2667H21.401C21.5208 17.5336 21.8542 18.7711 22.3871 19.9267L20.6283 20.9536C19.9229 19.4823 19.4954 17.8933 19.3676 16.2667ZM25.0711 26.1488C23.7268 25.2212 22.5624 24.0568 21.6348 22.7124L23.4038 21.6957C24.145 22.7318 25.0518 23.6386 26.0878 24.3798L25.0711 26.1488ZM31.5168 28.4159C29.8902 28.2881 28.3012 27.8607 26.83 27.1553L27.8568 25.3964C29.0124 25.9294 30.2499 26.2628 31.5168 26.3826V28.4159ZM23.3835 15.2501C23.3835 13.4403 23.9201 11.6713 24.9255 10.1666C25.931 8.66185 27.36 7.48907 29.0319 6.79653C30.7039 6.10398 32.5437 5.92278 34.3186 6.27584C36.0935 6.62889 37.7239 7.50035 39.0036 8.78C40.2832 10.0597 41.1547 11.69 41.5077 13.465C41.8608 15.2399 41.6796 17.0797 40.987 18.7516C40.2945 20.4236 39.1217 21.8526 37.617 22.858C36.1123 23.8634 34.3432 24.4001 32.5335 24.4001C30.1079 24.3963 27.7828 23.4311 26.0676 21.7159C24.3525 20.0008 23.3872 17.6756 23.3835 15.2501ZM33.5502 28.4159V26.3826C34.8171 26.2628 36.0546 25.9294 37.2102 25.3964L38.237 27.1553C36.7658 27.8607 35.1768 28.2881 33.5502 28.4159ZM39.9959 26.1488L38.9792 24.3798C40.0152 23.6386 40.922 22.7318 41.6632 21.6957L43.4322 22.7124C42.5047 24.0568 41.3403 25.2212 39.9959 26.1488ZM44.4387 20.9536L42.6799 19.9267C43.2128 18.7711 43.5462 17.5336 43.666 16.2667H45.6994C45.5716 17.8933 45.1442 19.4823 44.4387 20.9536Z" fill="#FF4C67"/>
<path d="M31.5167 22.3667H33.5501V20.3333C34.0894 20.3333 34.6065 20.1191 34.9879 19.7378C35.3692 19.3565 35.5834 18.8393 35.5834 18.3V16.2667C35.5834 15.7274 35.3692 15.2102 34.9879 14.8289C34.6065 14.4475 34.0894 14.2333 33.5501 14.2333H31.5167V12.2H35.5834V10.1666H33.5501V8.1333H31.5167V10.1666C30.9775 10.1666 30.4603 10.3809 30.079 10.7622C29.6976 11.1435 29.4834 11.6607 29.4834 12.2V14.2333C29.4834 14.7726 29.6976 15.2898 30.079 15.6711C30.4603 16.0524 30.9775 16.2667 31.5167 16.2667H33.5501V18.3H29.4834V20.3333H31.5167V22.3667Z" fill="#FF4C67"/>
<path d="M60.7023 32.8314L53.5856 25.7147C53.3949 25.5241 53.1364 25.417 52.8668 25.417C52.5972 25.417 52.3387 25.5241 52.148 25.7147L45.0313 32.8314C44.8892 32.9735 44.7924 33.1547 44.7532 33.3519C44.714 33.549 44.7341 33.7534 44.811 33.9392C44.888 34.1249 45.0182 34.2837 45.1854 34.3954C45.3525 34.5071 45.549 34.5668 45.7501 34.5668H48.8001V44.7335C48.8001 45.0031 48.9072 45.2617 49.0979 45.4524C49.2885 45.6431 49.5471 45.7502 49.8168 45.7502H55.9168C56.1864 45.7502 56.445 45.6431 56.6357 45.4524C56.8264 45.2617 56.9335 45.0031 56.9335 44.7335V34.5668H59.9835C60.1845 34.5668 60.381 34.5071 60.5482 34.3954C60.7154 34.2837 60.8456 34.1249 60.9226 33.9392C60.9995 33.7534 61.0196 33.549 60.9804 33.3519C60.9412 33.1547 60.8444 32.9735 60.7023 32.8314ZM55.9168 32.5335C55.6472 32.5335 55.3886 32.6406 55.1979 32.8312C55.0072 33.0219 54.9001 33.2805 54.9001 33.5501V43.7168H50.8334V33.5501C50.8334 33.2805 50.7263 33.0219 50.5357 32.8312C50.345 32.6406 50.0864 32.5335 49.8168 32.5335H48.2043L52.8668 27.871L57.5292 32.5335H55.9168Z" fill="#FF4C67"/>
<path d="M1.0167 26.4335H4.06671V32.5335C4.06671 32.8032 4.17382 33.0618 4.36448 33.2524C4.55515 33.4431 4.81374 33.5502 5.08338 33.5502H11.1834C11.453 33.5502 11.7116 33.4431 11.9023 33.2524C12.093 33.0618 12.2001 32.8032 12.2001 32.5335V26.4335H15.2501C15.4511 26.4335 15.6476 26.3738 15.8148 26.2621C15.9819 26.1504 16.1122 25.9916 16.1892 25.8059C16.2661 25.6201 16.2862 25.4157 16.247 25.2186C16.2078 25.0214 16.111 24.8402 15.9689 24.6981L8.85218 17.5814C8.66152 17.3908 8.40297 17.2837 8.13339 17.2837C7.8638 17.2837 7.60526 17.3908 7.4146 17.5814L0.297912 24.6981C0.155772 24.8402 0.0589782 25.0214 0.0197678 25.2186C-0.0194427 25.4157 0.000690409 25.6201 0.0776219 25.8059C0.154553 25.9916 0.284829 26.1504 0.45198 26.2621C0.61913 26.3738 0.815651 26.4335 1.0167 26.4335ZM8.13339 19.7377L12.7958 24.4002H11.1834C10.9138 24.4002 10.6552 24.5073 10.4645 24.6979C10.2738 24.8886 10.1667 25.1472 10.1667 25.4168V31.5169H6.10005V25.4168C6.10005 25.1472 5.99294 24.8886 5.80227 24.6979C5.61161 24.5073 5.35302 24.4002 5.08338 24.4002H3.47094L8.13339 19.7377Z" fill="#FF4C67"/>
</svg>
