<svg width="50" height="50" viewBox="0 0 50 50" fill="none" xmlns="http://www.w3.org/2000/svg">
<mask id="path-1-outside-1" maskUnits="userSpaceOnUse" x="1.45193" y="26.6143" width="47" height="22" fill="black">
<rect fill="white" x="1.45193" y="26.6143" width="47" height="22"/>
<path d="M42.4902 29.1213L42.2586 29.2463C41.3228 28.1107 39.7017 27.6707 38.4665 28.2967C38.4621 28.2988 38.4577 28.3012 38.4534 28.3034L37.9065 28.5978C37.2543 28.0456 36.4477 27.708 35.5965 27.6311C34.7454 27.5542 33.8913 27.7418 33.1507 28.1682L30.2059 29.7697H26.2873C25.4388 29.7686 24.6014 29.5767 23.8371 29.2083L23.298 28.9475C21.7633 28.2008 20.0519 27.8934 18.3533 28.0593C16.6546 28.2252 15.035 28.8579 13.6738 29.8875C13.661 29.8973 13.6485 29.907 13.6366 29.9181L12.3351 31.0766C11.8433 31.5135 11.2619 31.8376 10.6317 32.0262L9.89257 29.5998C9.85595 29.4797 9.78172 29.3745 9.68081 29.2998C9.57991 29.2251 9.45768 29.1848 9.33212 29.1848H3.03788C2.95495 29.1848 2.87296 29.2024 2.79734 29.2364C2.72172 29.2704 2.65418 29.3202 2.5992 29.3822C2.54422 29.4443 2.50305 29.5174 2.47841 29.5966C2.45376 29.6758 2.44621 29.7593 2.45624 29.8416L4.55429 47.0447C4.57161 47.1868 4.64032 47.3176 4.74748 47.4125C4.85463 47.5074 4.9928 47.5598 5.13593 47.5598H14.5767C14.6683 47.5598 14.7586 47.5383 14.8404 47.4971C14.9221 47.4559 14.9931 47.3961 15.0476 47.3225C15.1021 47.2489 15.1386 47.1636 15.1542 47.0734C15.1697 46.9831 15.1639 46.8905 15.1372 46.8029L13.897 42.7332L17.7597 40.2918C18.2765 40.0058 18.8828 39.9273 19.4555 40.0724C19.4676 40.0754 19.4798 40.0781 19.4921 40.0803L27.3494 41.5271C29.4847 41.9092 31.6863 41.5984 33.6323 40.64C33.6572 40.6278 33.6811 40.6137 33.704 40.598L47.2942 31.2668C47.4173 31.1823 47.5035 31.0539 47.5352 30.9079C47.5668 30.762 47.5416 30.6095 47.4645 30.4815C46.97 29.6579 46.1769 29.0569 45.2503 28.8035C44.3237 28.5501 43.335 28.6639 42.4902 29.1213V29.1213ZM39.0022 29.3389C39.7166 28.9811 40.6159 29.2744 41.1903 29.8225L36.0368 32.6028L35.7341 32.7623C35.5709 32.299 35.3324 31.8657 35.0282 31.48L39.0022 29.3389ZM33.7178 29.1938C33.7224 29.1912 33.7275 29.1887 33.7316 29.1859C34.1932 28.9191 34.7179 28.781 35.251 28.7861C35.7841 28.7911 36.3061 28.939 36.7626 29.2144L34.1424 30.6252C33.6429 30.2606 33.0729 30.0041 32.4687 29.872L33.7178 29.1938ZM5.65429 46.3879L3.6997 30.3566H8.89784L13.7855 46.3879H5.65429ZM33.0746 39.6075C31.3636 40.4404 29.4324 40.7088 27.5591 40.3739L19.7211 38.9306C18.8589 38.7177 17.9481 38.8412 17.1737 39.2758C17.1646 39.2808 17.1556 39.2862 17.1467 39.2919L13.5417 41.5709L10.9733 33.1479C11.7653 32.9093 12.4957 32.5008 13.1137 31.951L14.3968 30.8084C15.5855 29.9147 16.998 29.3664 18.4784 29.224C19.9588 29.0815 21.4498 29.3505 22.7872 30.0013L23.3262 30.262C24.2497 30.7071 25.2614 30.9389 26.2866 30.9403H31.5137C32.2818 30.9414 33.0256 31.21 33.6173 31.6999C34.2089 32.1898 34.6115 32.8704 34.7558 33.6249L30.9673 33.4535C29.59 33.3916 28.2099 33.4554 26.8442 33.644C26.6915 33.6667 26.5539 33.7487 26.4613 33.8723C26.3687 33.9959 26.3287 34.151 26.3499 34.304C26.371 34.4569 26.4517 34.5954 26.5744 34.6891C26.6971 34.7829 26.8518 34.8245 27.005 34.8048C28.2999 34.6258 29.6084 34.5654 30.9142 34.6243L35.3728 34.826C35.3817 34.826 35.3906 34.8266 35.3994 34.8266C35.5548 34.8266 35.7038 34.7648 35.8137 34.6549C35.9236 34.5451 35.9853 34.396 35.9853 34.2406C35.9853 34.1458 35.9813 34.0518 35.9756 33.9584L36.587 33.6361L43.0469 30.1521C43.543 29.8835 44.1139 29.7863 44.671 29.8755C45.2281 29.9648 45.74 30.2356 46.1273 30.6459L33.0746 39.6075Z"/>
</mask>
<path d="M42.4902 29.1213L42.2586 29.2463C41.3228 28.1107 39.7017 27.6707 38.4665 28.2967C38.4621 28.2988 38.4577 28.3012 38.4534 28.3034L37.9065 28.5978C37.2543 28.0456 36.4477 27.708 35.5965 27.6311C34.7454 27.5542 33.8913 27.7418 33.1507 28.1682L30.2059 29.7697H26.2873C25.4388 29.7686 24.6014 29.5767 23.8371 29.2083L23.298 28.9475C21.7633 28.2008 20.0519 27.8934 18.3533 28.0593C16.6546 28.2252 15.035 28.8579 13.6738 29.8875C13.661 29.8973 13.6485 29.907 13.6366 29.9181L12.3351 31.0766C11.8433 31.5135 11.2619 31.8376 10.6317 32.0262L9.89257 29.5998C9.85595 29.4797 9.78172 29.3745 9.68081 29.2998C9.57991 29.2251 9.45768 29.1848 9.33212 29.1848H3.03788C2.95495 29.1848 2.87296 29.2024 2.79734 29.2364C2.72172 29.2704 2.65418 29.3202 2.5992 29.3822C2.54422 29.4443 2.50305 29.5174 2.47841 29.5966C2.45376 29.6758 2.44621 29.7593 2.45624 29.8416L4.55429 47.0447C4.57161 47.1868 4.64032 47.3176 4.74748 47.4125C4.85463 47.5074 4.9928 47.5598 5.13593 47.5598H14.5767C14.6683 47.5598 14.7586 47.5383 14.8404 47.4971C14.9221 47.4559 14.9931 47.3961 15.0476 47.3225C15.1021 47.2489 15.1386 47.1636 15.1542 47.0734C15.1697 46.9831 15.1639 46.8905 15.1372 46.8029L13.897 42.7332L17.7597 40.2918C18.2765 40.0058 18.8828 39.9273 19.4555 40.0724C19.4676 40.0754 19.4798 40.0781 19.4921 40.0803L27.3494 41.5271C29.4847 41.9092 31.6863 41.5984 33.6323 40.64C33.6572 40.6278 33.6811 40.6137 33.704 40.598L47.2942 31.2668C47.4173 31.1823 47.5035 31.0539 47.5352 30.9079C47.5668 30.762 47.5416 30.6095 47.4645 30.4815C46.97 29.6579 46.1769 29.0569 45.2503 28.8035C44.3237 28.5501 43.335 28.6639 42.4902 29.1213V29.1213ZM39.0022 29.3389C39.7166 28.9811 40.6159 29.2744 41.1903 29.8225L36.0368 32.6028L35.7341 32.7623C35.5709 32.299 35.3324 31.8657 35.0282 31.48L39.0022 29.3389ZM33.7178 29.1938C33.7224 29.1912 33.7275 29.1887 33.7316 29.1859C34.1932 28.9191 34.7179 28.781 35.251 28.7861C35.7841 28.7911 36.3061 28.939 36.7626 29.2144L34.1424 30.6252C33.6429 30.2606 33.0729 30.0041 32.4687 29.872L33.7178 29.1938ZM5.65429 46.3879L3.6997 30.3566H8.89784L13.7855 46.3879H5.65429ZM33.0746 39.6075C31.3636 40.4404 29.4324 40.7088 27.5591 40.3739L19.7211 38.9306C18.8589 38.7177 17.9481 38.8412 17.1737 39.2758C17.1646 39.2808 17.1556 39.2862 17.1467 39.2919L13.5417 41.5709L10.9733 33.1479C11.7653 32.9093 12.4957 32.5008 13.1137 31.951L14.3968 30.8084C15.5855 29.9147 16.998 29.3664 18.4784 29.224C19.9588 29.0815 21.4498 29.3505 22.7872 30.0013L23.3262 30.262C24.2497 30.7071 25.2614 30.9389 26.2866 30.9403H31.5137C32.2818 30.9414 33.0256 31.21 33.6173 31.6999C34.2089 32.1898 34.6115 32.8704 34.7558 33.6249L30.9673 33.4535C29.59 33.3916 28.2099 33.4554 26.8442 33.644C26.6915 33.6667 26.5539 33.7487 26.4613 33.8723C26.3687 33.9959 26.3287 34.151 26.3499 34.304C26.371 34.4569 26.4517 34.5954 26.5744 34.6891C26.6971 34.7829 26.8518 34.8245 27.005 34.8048C28.2999 34.6258 29.6084 34.5654 30.9142 34.6243L35.3728 34.826C35.3817 34.826 35.3906 34.8266 35.3994 34.8266C35.5548 34.8266 35.7038 34.7648 35.8137 34.6549C35.9236 34.5451 35.9853 34.396 35.9853 34.2406C35.9853 34.1458 35.9813 34.0518 35.9756 33.9584L36.587 33.6361L43.0469 30.1521C43.543 29.8835 44.1139 29.7863 44.671 29.8755C45.2281 29.9648 45.74 30.2356 46.1273 30.6459L33.0746 39.6075Z" fill="#626262"/>
<path d="M42.4902 29.1213L42.2586 29.2463C41.3228 28.1107 39.7017 27.6707 38.4665 28.2967C38.4621 28.2988 38.4577 28.3012 38.4534 28.3034L37.9065 28.5978C37.2543 28.0456 36.4477 27.708 35.5965 27.6311C34.7454 27.5542 33.8913 27.7418 33.1507 28.1682L30.2059 29.7697H26.2873C25.4388 29.7686 24.6014 29.5767 23.8371 29.2083L23.298 28.9475C21.7633 28.2008 20.0519 27.8934 18.3533 28.0593C16.6546 28.2252 15.035 28.8579 13.6738 29.8875C13.661 29.8973 13.6485 29.907 13.6366 29.9181L12.3351 31.0766C11.8433 31.5135 11.2619 31.8376 10.6317 32.0262L9.89257 29.5998C9.85595 29.4797 9.78172 29.3745 9.68081 29.2998C9.57991 29.2251 9.45768 29.1848 9.33212 29.1848H3.03788C2.95495 29.1848 2.87296 29.2024 2.79734 29.2364C2.72172 29.2704 2.65418 29.3202 2.5992 29.3822C2.54422 29.4443 2.50305 29.5174 2.47841 29.5966C2.45376 29.6758 2.44621 29.7593 2.45624 29.8416L4.55429 47.0447C4.57161 47.1868 4.64032 47.3176 4.74748 47.4125C4.85463 47.5074 4.9928 47.5598 5.13593 47.5598H14.5767C14.6683 47.5598 14.7586 47.5383 14.8404 47.4971C14.9221 47.4559 14.9931 47.3961 15.0476 47.3225C15.1021 47.2489 15.1386 47.1636 15.1542 47.0734C15.1697 46.9831 15.1639 46.8905 15.1372 46.8029L13.897 42.7332L17.7597 40.2918C18.2765 40.0058 18.8828 39.9273 19.4555 40.0724C19.4676 40.0754 19.4798 40.0781 19.4921 40.0803L27.3494 41.5271C29.4847 41.9092 31.6863 41.5984 33.6323 40.64C33.6572 40.6278 33.6811 40.6137 33.704 40.598L47.2942 31.2668C47.4173 31.1823 47.5035 31.0539 47.5352 30.9079C47.5668 30.762 47.5416 30.6095 47.4645 30.4815C46.97 29.6579 46.1769 29.0569 45.2503 28.8035C44.3237 28.5501 43.335 28.6639 42.4902 29.1213V29.1213ZM39.0022 29.3389C39.7166 28.9811 40.6159 29.2744 41.1903 29.8225L36.0368 32.6028L35.7341 32.7623C35.5709 32.299 35.3324 31.8657 35.0282 31.48L39.0022 29.3389ZM33.7178 29.1938C33.7224 29.1912 33.7275 29.1887 33.7316 29.1859C34.1932 28.9191 34.7179 28.781 35.251 28.7861C35.7841 28.7911 36.3061 28.939 36.7626 29.2144L34.1424 30.6252C33.6429 30.2606 33.0729 30.0041 32.4687 29.872L33.7178 29.1938ZM5.65429 46.3879L3.6997 30.3566H8.89784L13.7855 46.3879H5.65429ZM33.0746 39.6075C31.3636 40.4404 29.4324 40.7088 27.5591 40.3739L19.7211 38.9306C18.8589 38.7177 17.9481 38.8412 17.1737 39.2758C17.1646 39.2808 17.1556 39.2862 17.1467 39.2919L13.5417 41.5709L10.9733 33.1479C11.7653 32.9093 12.4957 32.5008 13.1137 31.951L14.3968 30.8084C15.5855 29.9147 16.998 29.3664 18.4784 29.224C19.9588 29.0815 21.4498 29.3505 22.7872 30.0013L23.3262 30.262C24.2497 30.7071 25.2614 30.9389 26.2866 30.9403H31.5137C32.2818 30.9414 33.0256 31.21 33.6173 31.6999C34.2089 32.1898 34.6115 32.8704 34.7558 33.6249L30.9673 33.4535C29.59 33.3916 28.2099 33.4554 26.8442 33.644C26.6915 33.6667 26.5539 33.7487 26.4613 33.8723C26.3687 33.9959 26.3287 34.151 26.3499 34.304C26.371 34.4569 26.4517 34.5954 26.5744 34.6891C26.6971 34.7829 26.8518 34.8245 27.005 34.8048C28.2999 34.6258 29.6084 34.5654 30.9142 34.6243L35.3728 34.826C35.3817 34.826 35.3906 34.8266 35.3994 34.8266C35.5548 34.8266 35.7038 34.7648 35.8137 34.6549C35.9236 34.5451 35.9853 34.396 35.9853 34.2406C35.9853 34.1458 35.9813 34.0518 35.9756 33.9584L36.587 33.6361L43.0469 30.1521C43.543 29.8835 44.1139 29.7863 44.671 29.8755C45.2281 29.9648 45.74 30.2356 46.1273 30.6459L33.0746 39.6075Z" stroke="#626262" stroke-width="1.2" mask="url(#path-1-outside-1)"/>
<mask id="path-2-outside-2" maskUnits="userSpaceOnUse" x="6.517" y="41.1187" width="6" height="6" fill="black">
<rect fill="white" x="6.517" y="41.1187" width="6" height="6"/>
<path d="M7.517 43.9634C7.517 44.3282 7.62519 44.6849 7.82789 44.9882C8.03059 45.2916 8.3187 45.5281 8.65578 45.6677C8.99286 45.8073 9.36377 45.8438 9.72161 45.7727C10.0795 45.7015 10.4082 45.5258 10.6661 45.2678C10.9241 45.0098 11.0998 44.6811 11.171 44.3233C11.2422 43.9654 11.2056 43.5945 11.066 43.2574C10.9264 42.9204 10.69 42.6322 10.3866 42.4295C10.0832 42.2268 9.72658 42.1187 9.36172 42.1187C8.87264 42.1192 8.40374 42.3137 8.05791 42.6596C7.71207 43.0054 7.51754 43.4743 7.517 43.9634V43.9634ZM9.36172 43.2905C9.4948 43.2905 9.62489 43.33 9.73554 43.4039C9.84619 43.4779 9.93243 43.5829 9.98336 43.7059C10.0343 43.8288 10.0476 43.9641 10.0216 44.0946C9.99568 44.2252 9.9316 44.3451 9.8375 44.4392C9.7434 44.5333 9.62351 44.5973 9.49299 44.6233C9.36247 44.6493 9.22718 44.6359 9.10423 44.585C8.98129 44.5341 8.8762 44.4478 8.80227 44.3372C8.72833 44.2265 8.68887 44.0965 8.68887 43.9634C8.68918 43.785 8.76018 43.6141 8.8863 43.488C9.01242 43.3619 9.18339 43.291 9.36172 43.2907V43.2905Z"/>
</mask>
<path d="M7.517 43.9634C7.517 44.3282 7.62519 44.6849 7.82789 44.9882C8.03059 45.2916 8.3187 45.5281 8.65578 45.6677C8.99286 45.8073 9.36377 45.8438 9.72161 45.7727C10.0795 45.7015 10.4082 45.5258 10.6661 45.2678C10.9241 45.0098 11.0998 44.6811 11.171 44.3233C11.2422 43.9654 11.2056 43.5945 11.066 43.2574C10.9264 42.9204 10.69 42.6322 10.3866 42.4295C10.0832 42.2268 9.72658 42.1187 9.36172 42.1187C8.87264 42.1192 8.40374 42.3137 8.05791 42.6596C7.71207 43.0054 7.51754 43.4743 7.517 43.9634V43.9634ZM9.36172 43.2905C9.4948 43.2905 9.62489 43.33 9.73554 43.4039C9.84619 43.4779 9.93243 43.5829 9.98336 43.7059C10.0343 43.8288 10.0476 43.9641 10.0216 44.0946C9.99568 44.2252 9.9316 44.3451 9.8375 44.4392C9.7434 44.5333 9.62351 44.5973 9.49299 44.6233C9.36247 44.6493 9.22718 44.6359 9.10423 44.585C8.98129 44.5341 8.8762 44.4478 8.80227 44.3372C8.72833 44.2265 8.68887 44.0965 8.68887 43.9634C8.68918 43.785 8.76018 43.6141 8.8863 43.488C9.01242 43.3619 9.18339 43.291 9.36172 43.2907V43.2905Z" fill="#626262"/>
<path d="M7.517 43.9634C7.517 44.3282 7.62519 44.6849 7.82789 44.9882C8.03059 45.2916 8.3187 45.5281 8.65578 45.6677C8.99286 45.8073 9.36377 45.8438 9.72161 45.7727C10.0795 45.7015 10.4082 45.5258 10.6661 45.2678C10.9241 45.0098 11.0998 44.6811 11.171 44.3233C11.2422 43.9654 11.2056 43.5945 11.066 43.2574C10.9264 42.9204 10.69 42.6322 10.3866 42.4295C10.0832 42.2268 9.72658 42.1187 9.36172 42.1187C8.87264 42.1192 8.40374 42.3137 8.05791 42.6596C7.71207 43.0054 7.51754 43.4743 7.517 43.9634V43.9634ZM9.36172 43.2905C9.4948 43.2905 9.62489 43.33 9.73554 43.4039C9.84619 43.4779 9.93243 43.5829 9.98336 43.7059C10.0343 43.8288 10.0476 43.9641 10.0216 44.0946C9.99568 44.2252 9.9316 44.3451 9.8375 44.4392C9.7434 44.5333 9.62351 44.5973 9.49299 44.6233C9.36247 44.6493 9.22718 44.6359 9.10423 44.585C8.98129 44.5341 8.8762 44.4478 8.80227 44.3372C8.72833 44.2265 8.68887 44.0965 8.68887 43.9634C8.68918 43.785 8.76018 43.6141 8.8863 43.488C9.01242 43.3619 9.18339 43.291 9.36172 43.2907V43.2905Z" stroke="#626262" stroke-width="1.2" mask="url(#path-2-outside-2)"/>
<mask id="path-3-outside-3" maskUnits="userSpaceOnUse" x="19.5601" y="1.46094" width="11" height="13" fill="black">
<rect fill="white" x="19.5601" y="1.46094" width="11" height="13"/>
<path d="M29.4553 8.81861V6.88775C29.4498 5.71178 28.9787 4.58586 28.1453 3.75627C27.3118 2.92667 26.1836 2.46094 25.0077 2.46094C23.8317 2.46094 22.7036 2.92667 21.8701 3.75627C21.0366 4.58586 20.5656 5.71178 20.5601 6.88775V8.81861C20.5656 9.99458 21.0366 11.1205 21.8701 11.9501C22.7036 12.7797 23.8317 13.2454 25.0077 13.2454C26.1836 13.2454 27.3118 12.7797 28.1453 11.9501C28.9787 11.1205 29.4498 9.99458 29.4553 8.81861ZM21.7319 8.81861V6.88775C21.7367 6.02207 22.0839 5.19346 22.6977 4.583C23.3115 3.97253 24.142 3.62986 25.0077 3.62986C25.8734 3.62986 26.7039 3.97253 27.3177 4.583C27.9315 5.19346 28.2787 6.02207 28.2834 6.88775V8.81861C28.2787 9.68429 27.9315 10.5129 27.3177 11.1234C26.7039 11.7338 25.8734 12.0765 25.0077 12.0765C24.142 12.0765 23.3115 11.7338 22.6977 11.1234C22.0839 10.5129 21.7367 9.68429 21.7319 8.81861V8.81861Z"/>
</mask>
<path d="M29.4553 8.81861V6.88775C29.4498 5.71178 28.9787 4.58586 28.1453 3.75627C27.3118 2.92667 26.1836 2.46094 25.0077 2.46094C23.8317 2.46094 22.7036 2.92667 21.8701 3.75627C21.0366 4.58586 20.5656 5.71178 20.5601 6.88775V8.81861C20.5656 9.99458 21.0366 11.1205 21.8701 11.9501C22.7036 12.7797 23.8317 13.2454 25.0077 13.2454C26.1836 13.2454 27.3118 12.7797 28.1453 11.9501C28.9787 11.1205 29.4498 9.99458 29.4553 8.81861ZM21.7319 8.81861V6.88775C21.7367 6.02207 22.0839 5.19346 22.6977 4.583C23.3115 3.97253 24.142 3.62986 25.0077 3.62986C25.8734 3.62986 26.7039 3.97253 27.3177 4.583C27.9315 5.19346 28.2787 6.02207 28.2834 6.88775V8.81861C28.2787 9.68429 27.9315 10.5129 27.3177 11.1234C26.7039 11.7338 25.8734 12.0765 25.0077 12.0765C24.142 12.0765 23.3115 11.7338 22.6977 11.1234C22.0839 10.5129 21.7367 9.68429 21.7319 8.81861V8.81861Z" fill="#626262"/>
<path d="M29.4553 8.81861V6.88775C29.4498 5.71178 28.9787 4.58586 28.1453 3.75627C27.3118 2.92667 26.1836 2.46094 25.0077 2.46094C23.8317 2.46094 22.7036 2.92667 21.8701 3.75627C21.0366 4.58586 20.5656 5.71178 20.5601 6.88775V8.81861C20.5656 9.99458 21.0366 11.1205 21.8701 11.9501C22.7036 12.7797 23.8317 13.2454 25.0077 13.2454C26.1836 13.2454 27.3118 12.7797 28.1453 11.9501C28.9787 11.1205 29.4498 9.99458 29.4553 8.81861ZM21.7319 8.81861V6.88775C21.7367 6.02207 22.0839 5.19346 22.6977 4.583C23.3115 3.97253 24.142 3.62986 25.0077 3.62986C25.8734 3.62986 26.7039 3.97253 27.3177 4.583C27.9315 5.19346 28.2787 6.02207 28.2834 6.88775V8.81861C28.2787 9.68429 27.9315 10.5129 27.3177 11.1234C26.7039 11.7338 25.8734 12.0765 25.0077 12.0765C24.142 12.0765 23.3115 11.7338 22.6977 11.1234C22.0839 10.5129 21.7367 9.68429 21.7319 8.81861V8.81861Z" stroke="#626262" stroke-width="1.2" mask="url(#path-3-outside-3)"/>
<mask id="path-4-outside-4" maskUnits="userSpaceOnUse" x="5.83594" y="12.543" width="38" height="14" fill="black">
<rect fill="white" x="5.83594" y="12.543" width="38" height="14"/>
<path d="M17.8387 25.3347H32.1768C32.3322 25.3347 32.4812 25.2729 32.5911 25.1631C32.701 25.0532 32.7627 24.9041 32.7627 24.7487V23.4038H42.5781C42.7335 23.4038 42.8826 23.3421 42.9924 23.2322C43.1023 23.1223 43.1641 22.9733 43.1641 22.8179V19.0148C43.1634 17.8988 42.738 16.825 41.9742 16.0114C41.2105 15.1977 40.1656 14.7054 39.052 14.6343C38.7395 14.6113 38.5788 14.8092 38.4485 14.9681C38.1893 15.2848 37.8612 15.5382 37.4892 15.7089C37.1172 15.8796 36.7112 15.9631 36.302 15.9531C35.8929 15.9431 35.4914 15.8399 35.1282 15.6512C34.765 15.4626 34.4496 15.1935 34.2062 14.8645C34.1502 14.7887 34.0769 14.7276 33.9923 14.6863C33.9077 14.6449 33.8144 14.6245 33.7203 14.6269C32.9592 14.644 32.2159 14.8608 31.5649 15.2557C31.1352 14.7559 30.6095 14.3476 30.019 14.0547C29.4286 13.7618 28.7853 13.5904 28.1274 13.5507C27.8247 13.5384 27.6716 13.7222 27.5232 13.9023C27.2191 14.274 26.8341 14.5713 26.3976 14.7717C25.9611 14.972 25.4846 15.0701 25.0044 15.0584C24.5243 15.0466 24.0531 14.9254 23.6269 14.704C23.2007 14.4826 22.8307 14.1668 22.545 13.7807C22.4892 13.7049 22.4158 13.6437 22.3312 13.6023C22.2466 13.561 22.1533 13.5407 22.0592 13.5432C20.7742 13.5729 19.5523 14.1059 18.6563 15.0276C18.5823 15.1032 18.5121 15.1817 18.4437 15.2612C17.8386 14.8929 17.1529 14.6776 16.4459 14.6341C16.1345 14.6111 15.9727 14.809 15.8425 14.9679C15.5833 15.2846 15.2552 15.538 14.8832 15.7087C14.5112 15.8794 14.1052 15.9629 13.696 15.9529C13.2869 15.943 12.8854 15.8397 12.5222 15.651C12.159 15.4624 11.8436 15.1933 11.6002 14.8643C11.5442 14.7886 11.4708 14.7276 11.3862 14.6862C11.3017 14.6449 11.2084 14.6245 11.1144 14.6267C9.96984 14.6558 8.88199 15.1309 8.08275 15.9506C7.2835 16.7704 6.8361 17.8699 6.83594 19.0148V22.8179C6.83594 22.9733 6.89767 23.1223 7.00755 23.2322C7.11744 23.3421 7.26647 23.4038 7.42188 23.4038H17.2527V24.7487C17.2527 24.9041 17.3145 25.0532 17.4244 25.1631C17.5342 25.2729 17.6833 25.3347 17.8387 25.3347V25.3347ZM33.4701 15.8173C33.8314 16.2273 34.2755 16.556 34.7732 16.7816C35.2709 17.0072 35.8109 17.1246 36.3573 17.126C36.9038 17.1275 37.4443 17.0129 37.9432 16.7899C38.4421 16.5669 38.888 16.2406 39.2514 15.8324C40.0133 15.9474 40.7088 16.3317 41.2117 16.9155C41.7146 17.4994 41.9915 18.2442 41.9922 19.0148V22.2319H32.7627V18.4731C32.7633 17.6928 32.5777 16.9236 32.2212 16.2295C32.6041 16.0062 33.0296 15.8658 33.4701 15.8173V15.8173ZM21.8066 14.7328C22.2118 15.2018 22.7129 15.5784 23.2762 15.8369C23.8394 16.0955 24.4516 16.2301 25.0714 16.2315C25.6911 16.233 26.304 16.1013 26.8684 15.8455C27.4329 15.5896 27.9358 15.2154 28.3432 14.7484C29.2429 14.8728 30.0672 15.3184 30.6642 16.0029C31.2611 16.6875 31.5904 17.5648 31.5912 18.4731V24.1628H18.4246V18.4731C18.4304 17.543 18.7784 16.6477 19.4022 15.9578C20.026 15.268 20.8819 14.8319 21.8066 14.7328V14.7328ZM8.00781 22.2319V19.0148C8.01276 18.2253 8.30578 17.4648 8.83181 16.8761C9.35785 16.2874 10.0807 15.9111 10.8646 15.8177C11.2259 16.2276 11.67 16.5561 12.1677 16.7817C12.6653 17.0072 13.2052 17.1245 13.7515 17.1259C14.2979 17.1273 14.8383 17.0127 15.3371 16.7897C15.8359 16.5668 16.2817 16.2405 16.645 15.8324C17.0485 15.8927 17.4366 16.0297 17.7886 16.2359C17.4353 16.9287 17.2517 17.6954 17.2527 18.4731V22.2319H8.00781Z"/>
</mask>
<path d="M17.8387 25.3347H32.1768C32.3322 25.3347 32.4812 25.2729 32.5911 25.1631C32.701 25.0532 32.7627 24.9041 32.7627 24.7487V23.4038H42.5781C42.7335 23.4038 42.8826 23.3421 42.9924 23.2322C43.1023 23.1223 43.1641 22.9733 43.1641 22.8179V19.0148C43.1634 17.8988 42.738 16.825 41.9742 16.0114C41.2105 15.1977 40.1656 14.7054 39.052 14.6343C38.7395 14.6113 38.5788 14.8092 38.4485 14.9681C38.1893 15.2848 37.8612 15.5382 37.4892 15.7089C37.1172 15.8796 36.7112 15.9631 36.302 15.9531C35.8929 15.9431 35.4914 15.8399 35.1282 15.6512C34.765 15.4626 34.4496 15.1935 34.2062 14.8645C34.1502 14.7887 34.0769 14.7276 33.9923 14.6863C33.9077 14.6449 33.8144 14.6245 33.7203 14.6269C32.9592 14.644 32.2159 14.8608 31.5649 15.2557C31.1352 14.7559 30.6095 14.3476 30.019 14.0547C29.4286 13.7618 28.7853 13.5904 28.1274 13.5507C27.8247 13.5384 27.6716 13.7222 27.5232 13.9023C27.2191 14.274 26.8341 14.5713 26.3976 14.7717C25.9611 14.972 25.4846 15.0701 25.0044 15.0584C24.5243 15.0466 24.0531 14.9254 23.6269 14.704C23.2007 14.4826 22.8307 14.1668 22.545 13.7807C22.4892 13.7049 22.4158 13.6437 22.3312 13.6023C22.2466 13.561 22.1533 13.5407 22.0592 13.5432C20.7742 13.5729 19.5523 14.1059 18.6563 15.0276C18.5823 15.1032 18.5121 15.1817 18.4437 15.2612C17.8386 14.8929 17.1529 14.6776 16.4459 14.6341C16.1345 14.6111 15.9727 14.809 15.8425 14.9679C15.5833 15.2846 15.2552 15.538 14.8832 15.7087C14.5112 15.8794 14.1052 15.9629 13.696 15.9529C13.2869 15.943 12.8854 15.8397 12.5222 15.651C12.159 15.4624 11.8436 15.1933 11.6002 14.8643C11.5442 14.7886 11.4708 14.7276 11.3862 14.6862C11.3017 14.6449 11.2084 14.6245 11.1144 14.6267C9.96984 14.6558 8.88199 15.1309 8.08275 15.9506C7.2835 16.7704 6.8361 17.8699 6.83594 19.0148V22.8179C6.83594 22.9733 6.89767 23.1223 7.00755 23.2322C7.11744 23.3421 7.26647 23.4038 7.42188 23.4038H17.2527V24.7487C17.2527 24.9041 17.3145 25.0532 17.4244 25.1631C17.5342 25.2729 17.6833 25.3347 17.8387 25.3347V25.3347ZM33.4701 15.8173C33.8314 16.2273 34.2755 16.556 34.7732 16.7816C35.2709 17.0072 35.8109 17.1246 36.3573 17.126C36.9038 17.1275 37.4443 17.0129 37.9432 16.7899C38.4421 16.5669 38.888 16.2406 39.2514 15.8324C40.0133 15.9474 40.7088 16.3317 41.2117 16.9155C41.7146 17.4994 41.9915 18.2442 41.9922 19.0148V22.2319H32.7627V18.4731C32.7633 17.6928 32.5777 16.9236 32.2212 16.2295C32.6041 16.0062 33.0296 15.8658 33.4701 15.8173V15.8173ZM21.8066 14.7328C22.2118 15.2018 22.7129 15.5784 23.2762 15.8369C23.8394 16.0955 24.4516 16.2301 25.0714 16.2315C25.6911 16.233 26.304 16.1013 26.8684 15.8455C27.4329 15.5896 27.9358 15.2154 28.3432 14.7484C29.2429 14.8728 30.0672 15.3184 30.6642 16.0029C31.2611 16.6875 31.5904 17.5648 31.5912 18.4731V24.1628H18.4246V18.4731C18.4304 17.543 18.7784 16.6477 19.4022 15.9578C20.026 15.268 20.8819 14.8319 21.8066 14.7328V14.7328ZM8.00781 22.2319V19.0148C8.01276 18.2253 8.30578 17.4648 8.83181 16.8761C9.35785 16.2874 10.0807 15.9111 10.8646 15.8177C11.2259 16.2276 11.67 16.5561 12.1677 16.7817C12.6653 17.0072 13.2052 17.1245 13.7515 17.1259C14.2979 17.1273 14.8383 17.0127 15.3371 16.7897C15.8359 16.5668 16.2817 16.2405 16.645 15.8324C17.0485 15.8927 17.4366 16.0297 17.7886 16.2359C17.4353 16.9287 17.2517 17.6954 17.2527 18.4731V22.2319H8.00781Z" fill="#626262"/>
<path d="M17.8387 25.3347H32.1768C32.3322 25.3347 32.4812 25.2729 32.5911 25.1631C32.701 25.0532 32.7627 24.9041 32.7627 24.7487V23.4038H42.5781C42.7335 23.4038 42.8826 23.3421 42.9924 23.2322C43.1023 23.1223 43.1641 22.9733 43.1641 22.8179V19.0148C43.1634 17.8988 42.738 16.825 41.9742 16.0114C41.2105 15.1977 40.1656 14.7054 39.052 14.6343C38.7395 14.6113 38.5788 14.8092 38.4485 14.9681C38.1893 15.2848 37.8612 15.5382 37.4892 15.7089C37.1172 15.8796 36.7112 15.9631 36.302 15.9531C35.8929 15.9431 35.4914 15.8399 35.1282 15.6512C34.765 15.4626 34.4496 15.1935 34.2062 14.8645C34.1502 14.7887 34.0769 14.7276 33.9923 14.6863C33.9077 14.6449 33.8144 14.6245 33.7203 14.6269C32.9592 14.644 32.2159 14.8608 31.5649 15.2557C31.1352 14.7559 30.6095 14.3476 30.019 14.0547C29.4286 13.7618 28.7853 13.5904 28.1274 13.5507C27.8247 13.5384 27.6716 13.7222 27.5232 13.9023C27.2191 14.274 26.8341 14.5713 26.3976 14.7717C25.9611 14.972 25.4846 15.0701 25.0044 15.0584C24.5243 15.0466 24.0531 14.9254 23.6269 14.704C23.2007 14.4826 22.8307 14.1668 22.545 13.7807C22.4892 13.7049 22.4158 13.6437 22.3312 13.6023C22.2466 13.561 22.1533 13.5407 22.0592 13.5432C20.7742 13.5729 19.5523 14.1059 18.6563 15.0276C18.5823 15.1032 18.5121 15.1817 18.4437 15.2612C17.8386 14.8929 17.1529 14.6776 16.4459 14.6341C16.1345 14.6111 15.9727 14.809 15.8425 14.9679C15.5833 15.2846 15.2552 15.538 14.8832 15.7087C14.5112 15.8794 14.1052 15.9629 13.696 15.9529C13.2869 15.943 12.8854 15.8397 12.5222 15.651C12.159 15.4624 11.8436 15.1933 11.6002 14.8643C11.5442 14.7886 11.4708 14.7276 11.3862 14.6862C11.3017 14.6449 11.2084 14.6245 11.1144 14.6267C9.96984 14.6558 8.88199 15.1309 8.08275 15.9506C7.2835 16.7704 6.8361 17.8699 6.83594 19.0148V22.8179C6.83594 22.9733 6.89767 23.1223 7.00755 23.2322C7.11744 23.3421 7.26647 23.4038 7.42188 23.4038H17.2527V24.7487C17.2527 24.9041 17.3145 25.0532 17.4244 25.1631C17.5342 25.2729 17.6833 25.3347 17.8387 25.3347V25.3347ZM33.4701 15.8173C33.8314 16.2273 34.2755 16.556 34.7732 16.7816C35.2709 17.0072 35.8109 17.1246 36.3573 17.126C36.9038 17.1275 37.4443 17.0129 37.9432 16.7899C38.4421 16.5669 38.888 16.2406 39.2514 15.8324C40.0133 15.9474 40.7088 16.3317 41.2117 16.9155C41.7146 17.4994 41.9915 18.2442 41.9922 19.0148V22.2319H32.7627V18.4731C32.7633 17.6928 32.5777 16.9236 32.2212 16.2295C32.6041 16.0062 33.0296 15.8658 33.4701 15.8173V15.8173ZM21.8066 14.7328C22.2118 15.2018 22.7129 15.5784 23.2762 15.8369C23.8394 16.0955 24.4516 16.2301 25.0714 16.2315C25.6911 16.233 26.304 16.1013 26.8684 15.8455C27.4329 15.5896 27.9358 15.2154 28.3432 14.7484C29.2429 14.8728 30.0672 15.3184 30.6642 16.0029C31.2611 16.6875 31.5904 17.5648 31.5912 18.4731V24.1628H18.4246V18.4731C18.4304 17.543 18.7784 16.6477 19.4022 15.9578C20.026 15.268 20.8819 14.8319 21.8066 14.7328V14.7328ZM8.00781 22.2319V19.0148C8.01276 18.2253 8.30578 17.4648 8.83181 16.8761C9.35785 16.2874 10.0807 15.9111 10.8646 15.8177C11.2259 16.2276 11.67 16.5561 12.1677 16.7817C12.6653 17.0072 13.2052 17.1245 13.7515 17.1259C14.2979 17.1273 14.8383 17.0127 15.3371 16.7897C15.8359 16.5668 16.2817 16.2405 16.645 15.8324C17.0485 15.8927 17.4366 16.0297 17.7886 16.2359C17.4353 16.9287 17.2517 17.6954 17.2527 18.4731V22.2319H8.00781Z" stroke="#626262" stroke-width="1.2" mask="url(#path-4-outside-4)"/>
<mask id="path-5-outside-5" maskUnits="userSpaceOnUse" x="31.3369" y="3.9082" width="10" height="12" fill="black">
<rect fill="white" x="31.3369" y="3.9082" width="10" height="12"/>
<path d="M40.2689 10.5644V8.87422C40.2689 7.82237 39.8511 6.81359 39.1073 6.06982C38.3636 5.32605 37.3548 4.9082 36.3029 4.9082C35.2511 4.9082 34.2423 5.32605 33.4985 6.06982C32.7548 6.81359 32.3369 7.82237 32.3369 8.87422V10.5644C32.3369 11.6162 32.7548 12.625 33.4985 13.3688C34.2423 14.1125 35.2511 14.5304 36.3029 14.5304C37.3548 14.5304 38.3636 14.1125 39.1073 13.3688C39.8511 12.625 40.2689 11.6162 40.2689 10.5644V10.5644ZM33.5088 10.5644V8.87422C33.5088 8.13317 33.8032 7.42247 34.3272 6.89846C34.8512 6.37446 35.5619 6.08008 36.3029 6.08008C37.044 6.08008 37.7547 6.37446 38.2787 6.89846C38.8027 7.42247 39.0971 8.13317 39.0971 8.87422V10.5644C39.0971 11.3054 38.8027 12.0161 38.2787 12.5401C37.7547 13.0641 37.044 13.3585 36.3029 13.3585C35.5619 13.3585 34.8512 13.0641 34.3272 12.5401C33.8032 12.0161 33.5088 11.3054 33.5088 10.5644V10.5644Z"/>
</mask>
<path d="M40.2689 10.5644V8.87422C40.2689 7.82237 39.8511 6.81359 39.1073 6.06982C38.3636 5.32605 37.3548 4.9082 36.3029 4.9082C35.2511 4.9082 34.2423 5.32605 33.4985 6.06982C32.7548 6.81359 32.3369 7.82237 32.3369 8.87422V10.5644C32.3369 11.6162 32.7548 12.625 33.4985 13.3688C34.2423 14.1125 35.2511 14.5304 36.3029 14.5304C37.3548 14.5304 38.3636 14.1125 39.1073 13.3688C39.8511 12.625 40.2689 11.6162 40.2689 10.5644V10.5644ZM33.5088 10.5644V8.87422C33.5088 8.13317 33.8032 7.42247 34.3272 6.89846C34.8512 6.37446 35.5619 6.08008 36.3029 6.08008C37.044 6.08008 37.7547 6.37446 38.2787 6.89846C38.8027 7.42247 39.0971 8.13317 39.0971 8.87422V10.5644C39.0971 11.3054 38.8027 12.0161 38.2787 12.5401C37.7547 13.0641 37.044 13.3585 36.3029 13.3585C35.5619 13.3585 34.8512 13.0641 34.3272 12.5401C33.8032 12.0161 33.5088 11.3054 33.5088 10.5644V10.5644Z" fill="#626262"/>
<path d="M40.2689 10.5644V8.87422C40.2689 7.82237 39.8511 6.81359 39.1073 6.06982C38.3636 5.32605 37.3548 4.9082 36.3029 4.9082C35.2511 4.9082 34.2423 5.32605 33.4985 6.06982C32.7548 6.81359 32.3369 7.82237 32.3369 8.87422V10.5644C32.3369 11.6162 32.7548 12.625 33.4985 13.3688C34.2423 14.1125 35.2511 14.5304 36.3029 14.5304C37.3548 14.5304 38.3636 14.1125 39.1073 13.3688C39.8511 12.625 40.2689 11.6162 40.2689 10.5644V10.5644ZM33.5088 10.5644V8.87422C33.5088 8.13317 33.8032 7.42247 34.3272 6.89846C34.8512 6.37446 35.5619 6.08008 36.3029 6.08008C37.044 6.08008 37.7547 6.37446 38.2787 6.89846C38.8027 7.42247 39.0971 8.13317 39.0971 8.87422V10.5644C39.0971 11.3054 38.8027 12.0161 38.2787 12.5401C37.7547 13.0641 37.044 13.3585 36.3029 13.3585C35.5619 13.3585 34.8512 13.0641 34.3272 12.5401C33.8032 12.0161 33.5088 11.3054 33.5088 10.5644V10.5644Z" stroke="#626262" stroke-width="1.2" mask="url(#path-5-outside-5)"/>
<mask id="path-6-outside-6" maskUnits="userSpaceOnUse" x="8.73105" y="3.9082" width="10" height="12" fill="black">
<rect fill="white" x="8.73105" y="3.9082" width="10" height="12"/>
<path d="M17.6631 10.5644V8.87422C17.6631 8.35339 17.5605 7.83767 17.3612 7.35649C17.1619 6.87531 16.8697 6.4381 16.5015 6.06982C16.1332 5.70154 15.696 5.40941 15.2148 5.2101C14.7336 5.01079 14.2179 4.9082 13.6971 4.9082C13.1762 4.9082 12.6605 5.01079 12.1793 5.2101C11.6982 5.40941 11.2609 5.70154 10.8927 6.06982C10.5244 6.4381 10.2323 6.87531 10.0329 7.35649C9.83363 7.83767 9.73105 8.35339 9.73105 8.87422V10.5644C9.73105 11.0852 9.83363 11.6009 10.0329 12.0821C10.2323 12.5633 10.5244 13.0005 10.8927 13.3688C11.2609 13.737 11.6982 14.0292 12.1793 14.2285C12.6605 14.4278 13.1762 14.5304 13.6971 14.5304C14.2179 14.5304 14.7336 14.4278 15.2148 14.2285C15.696 14.0292 16.1332 13.737 16.5015 13.3688C16.8697 13.0005 17.1619 12.5633 17.3612 12.0821C17.5605 11.6009 17.6631 11.0852 17.6631 10.5644V10.5644ZM10.9029 10.5644V8.87422C10.9029 8.13317 11.1973 7.42247 11.7213 6.89846C12.2453 6.37446 12.956 6.08008 13.6971 6.08008C14.4381 6.08008 15.1488 6.37446 15.6728 6.89846C16.1968 7.42247 16.4912 8.13317 16.4912 8.87422V10.5644C16.4912 10.9313 16.4189 11.2946 16.2785 11.6336C16.1381 11.9726 15.9323 12.2807 15.6728 12.5401C15.4134 12.7996 15.1053 13.0054 14.7663 13.1458C14.4273 13.2862 14.064 13.3585 13.6971 13.3585C13.3301 13.3585 12.9668 13.2862 12.6278 13.1458C12.2888 13.0054 11.9808 12.7996 11.7213 12.5401C11.4618 12.2807 11.256 11.9726 11.1156 11.6336C10.9752 11.2946 10.9029 10.9313 10.9029 10.5644V10.5644Z"/>
</mask>
<path d="M17.6631 10.5644V8.87422C17.6631 8.35339 17.5605 7.83767 17.3612 7.35649C17.1619 6.87531 16.8697 6.4381 16.5015 6.06982C16.1332 5.70154 15.696 5.40941 15.2148 5.2101C14.7336 5.01079 14.2179 4.9082 13.6971 4.9082C13.1762 4.9082 12.6605 5.01079 12.1793 5.2101C11.6982 5.40941 11.2609 5.70154 10.8927 6.06982C10.5244 6.4381 10.2323 6.87531 10.0329 7.35649C9.83363 7.83767 9.73105 8.35339 9.73105 8.87422V10.5644C9.73105 11.0852 9.83363 11.6009 10.0329 12.0821C10.2323 12.5633 10.5244 13.0005 10.8927 13.3688C11.2609 13.737 11.6982 14.0292 12.1793 14.2285C12.6605 14.4278 13.1762 14.5304 13.6971 14.5304C14.2179 14.5304 14.7336 14.4278 15.2148 14.2285C15.696 14.0292 16.1332 13.737 16.5015 13.3688C16.8697 13.0005 17.1619 12.5633 17.3612 12.0821C17.5605 11.6009 17.6631 11.0852 17.6631 10.5644V10.5644ZM10.9029 10.5644V8.87422C10.9029 8.13317 11.1973 7.42247 11.7213 6.89846C12.2453 6.37446 12.956 6.08008 13.6971 6.08008C14.4381 6.08008 15.1488 6.37446 15.6728 6.89846C16.1968 7.42247 16.4912 8.13317 16.4912 8.87422V10.5644C16.4912 10.9313 16.4189 11.2946 16.2785 11.6336C16.1381 11.9726 15.9323 12.2807 15.6728 12.5401C15.4134 12.7996 15.1053 13.0054 14.7663 13.1458C14.4273 13.2862 14.064 13.3585 13.6971 13.3585C13.3301 13.3585 12.9668 13.2862 12.6278 13.1458C12.2888 13.0054 11.9808 12.7996 11.7213 12.5401C11.4618 12.2807 11.256 11.9726 11.1156 11.6336C10.9752 11.2946 10.9029 10.9313 10.9029 10.5644V10.5644Z" fill="#626262"/>
<path d="M17.6631 10.5644V8.87422C17.6631 8.35339 17.5605 7.83767 17.3612 7.35649C17.1619 6.87531 16.8697 6.4381 16.5015 6.06982C16.1332 5.70154 15.696 5.40941 15.2148 5.2101C14.7336 5.01079 14.2179 4.9082 13.6971 4.9082C13.1762 4.9082 12.6605 5.01079 12.1793 5.2101C11.6982 5.40941 11.2609 5.70154 10.8927 6.06982C10.5244 6.4381 10.2323 6.87531 10.0329 7.35649C9.83363 7.83767 9.73105 8.35339 9.73105 8.87422V10.5644C9.73105 11.0852 9.83363 11.6009 10.0329 12.0821C10.2323 12.5633 10.5244 13.0005 10.8927 13.3688C11.2609 13.737 11.6982 14.0292 12.1793 14.2285C12.6605 14.4278 13.1762 14.5304 13.6971 14.5304C14.2179 14.5304 14.7336 14.4278 15.2148 14.2285C15.696 14.0292 16.1332 13.737 16.5015 13.3688C16.8697 13.0005 17.1619 12.5633 17.3612 12.0821C17.5605 11.6009 17.6631 11.0852 17.6631 10.5644V10.5644ZM10.9029 10.5644V8.87422C10.9029 8.13317 11.1973 7.42247 11.7213 6.89846C12.2453 6.37446 12.956 6.08008 13.6971 6.08008C14.4381 6.08008 15.1488 6.37446 15.6728 6.89846C16.1968 7.42247 16.4912 8.13317 16.4912 8.87422V10.5644C16.4912 10.9313 16.4189 11.2946 16.2785 11.6336C16.1381 11.9726 15.9323 12.2807 15.6728 12.5401C15.4134 12.7996 15.1053 13.0054 14.7663 13.1458C14.4273 13.2862 14.064 13.3585 13.6971 13.3585C13.3301 13.3585 12.9668 13.2862 12.6278 13.1458C12.2888 13.0054 11.9808 12.7996 11.7213 12.5401C11.4618 12.2807 11.256 11.9726 11.1156 11.6336C10.9752 11.2946 10.9029 10.9313 10.9029 10.5644V10.5644Z" stroke="#626262" stroke-width="1.2" mask="url(#path-6-outside-6)"/>
</svg>
