<svg width="35" height="35" viewBox="0 0 35 35" fill="none" xmlns="http://www.w3.org/2000/svg">
<path d="M10 13.125H25V11.875H10V13.125Z" fill="#FF4C67"/>
<path d="M17.5 0C7.83508 0 0 7.83508 0 17.5C0 27.1649 7.83508 35 17.5 35C27.1649 35 35 27.1649 35 17.5C34.989 7.83966 27.1603 0.0109863 17.5 0ZM26.25 13.75C26.25 14.0952 25.9702 14.375 25.625 14.375H24.9405L23.75 26.3126C23.7177 26.633 23.4473 26.8765 23.125 26.875H11.875C11.5527 26.8765 11.2823 26.633 11.25 26.3126L10.0626 14.375H9.375C9.02985 14.375 8.75 14.0952 8.75 13.75V11.25C8.75 10.9048 9.02985 10.625 9.375 10.625H15.7401C15.6659 10.4248 15.6271 10.2133 15.625 10C15.625 8.96454 16.4645 8.125 17.5 8.125C18.5355 8.125 19.375 8.96454 19.375 10C19.3729 10.2133 19.3341 10.4248 19.2599 10.625H25.625C25.9702 10.625 26.25 10.9048 26.25 11.25V13.75Z" fill="#FF4C67"/>
<path d="M12.4403 25.625H22.5624L23.6873 14.375H11.3154L12.4403 25.625ZM20.0029 17.4225C20.0258 17.197 20.1689 17.0013 20.3773 16.9113C20.5854 16.8216 20.8262 16.8518 21.006 16.9901C21.1857 17.1283 21.2764 17.3532 21.2428 17.5775L20.6178 22.5775C20.579 22.8894 20.3141 23.1241 19.9998 23.125C19.9736 23.125 19.9476 23.1232 19.9217 23.1201C19.5793 23.0771 19.3364 22.7649 19.3791 22.4225L20.0029 17.4225ZM16.8748 17.5C16.8748 17.1548 17.1547 16.875 17.4998 16.875C17.845 16.875 18.1248 17.1548 18.1248 17.5V22.5C18.1248 22.8452 17.845 23.125 17.4998 23.125C17.1547 23.125 16.8748 22.8452 16.8748 22.5V17.5ZM14.2973 16.8799C14.6397 16.8372 14.9519 17.0801 14.9949 17.4225L15.6199 22.4225C15.6627 22.7649 15.4197 23.0771 15.0773 23.1201C15.0517 23.1232 15.0258 23.1247 14.9998 23.125C14.6849 23.1247 14.4194 22.89 14.3803 22.5775L13.7553 17.5775C13.7126 17.2354 13.9552 16.9232 14.2973 16.8799Z" fill="#FF4C67"/>
<path d="M18.125 10C18.125 10.3452 17.8452 10.625 17.5 10.625C17.1548 10.625 16.875 10.3452 16.875 10C16.875 9.65485 17.1548 9.375 17.5 9.375C17.8452 9.375 18.125 9.65485 18.125 10Z" fill="#FF4C67"/>
</svg>
