<svg width="35" height="35" viewBox="0 0 35 35" fill="none" xmlns="http://www.w3.org/2000/svg">
<path d="M21.1115 13.8887L19.7861 12.563L11.8311 20.5174L13.1564 21.8437L14.4821 23.1691L22.4371 15.2141L21.1115 13.8887Z" fill="#21D243"/>
<path d="M17.5 0C7.83508 0 0 7.83508 0 17.5C0 27.1649 7.83508 35 17.5 35C27.1649 35 35 27.1649 35 17.5C34.989 7.83966 27.1603 0.0109863 17.5 0ZM25 25.625H10C9.83307 25.6241 9.67377 25.5566 9.55688 25.4376C9.50806 25.3864 9.46838 25.3271 9.43939 25.2625C9.43176 25.2475 9.42566 25.2332 9.41925 25.2176C9.3927 25.1511 9.37775 25.0809 9.375 25.0095V25C9.375 24.9918 9.37927 24.9857 9.37927 24.9774C9.37927 24.9417 9.38202 24.906 9.38812 24.8706L10.3351 20.3882C10.3421 20.3638 10.3506 20.3397 10.3607 20.3162C10.3668 20.2988 10.372 20.282 10.3793 20.2643C10.4086 20.1974 10.4492 20.1361 10.4993 20.083L10.5051 20.0757L19.3439 11.2369L20.2274 10.3531C21.4493 9.14185 23.4207 9.14612 24.6371 10.3629C25.8539 11.5793 25.8582 13.5507 24.6469 14.7726L23.7631 15.6561L15.0443 24.375H25C25.3452 24.375 25.625 24.6548 25.625 25C25.625 25.3452 25.3452 25.625 25 25.625Z" fill="#21D243"/>
<path d="M23.7628 13.8891C24.4952 13.1566 24.4952 11.9692 23.7628 11.2371C23.0203 10.5297 21.8533 10.5297 21.1108 11.2371L20.6689 11.6796L23.3203 14.331L23.7628 13.8891Z" fill="#21D243"/>
<path d="M11.3195 21.7749L10.8096 24.1901L13.2247 23.6801L12.2723 22.7274L11.3195 21.7749Z" fill="#21D243"/>
</svg>
