<svg width="61" height="61" viewBox="0 0 61 61" fill="none" xmlns="http://www.w3.org/2000/svg">
<path d="M60.3862 21.9844C39.0237 13.8463 40.466 14.2969 39.5869 14.2969C37.7297 14.2969 36.2188 15.8078 36.2188 17.665V33.3594H34.2596L32.5075 2.69615C32.4209 1.18426 31.1671 0 29.6528 0H24.6755C23.1612 0 21.9073 1.18426 21.8207 2.69627L20.0685 33.3594H18.0565L16.3044 2.69615C16.2178 1.18426 14.9639 0 13.4497 0H8.47221C6.95793 0 5.7041 1.18426 5.61748 2.69627L3.8654 33.3594H2.85938C1.28279 33.3594 0 34.642 0 36.2188V60.0469C0 60.5732 0.426762 61 0.953125 61H60.0469C60.5732 61 61 60.5732 61 60.0469C61 58.9687 61 23.6516 61 22.8751C61 22.4797 60.7558 22.1252 60.3862 21.9844ZM39.5869 16.2031C39.9768 16.2031 38.5127 15.6914 59.0938 23.5319V25.7344H38.125V17.665C38.125 16.8589 38.7808 16.2031 39.5869 16.2031ZM59.0938 29.5469H38.125V27.6406H59.0938V29.5469ZM23.4484 7.625H30.8797L31.043 10.4844H23.285L23.4484 7.625ZM24.6753 1.90625H29.6527C30.1574 1.90625 30.5754 2.30108 30.6041 2.80505L30.7707 5.71875H23.5573L23.7238 2.80505C23.7526 2.30108 24.1707 1.90625 24.6753 1.90625ZM23.1761 12.3906H31.1519L32.3503 33.3594H21.9779L23.1761 12.3906ZM7.2453 7.625H14.6766L14.8399 10.4844H7.08196L7.2453 7.625ZM8.47221 1.90625H13.4495C13.9542 1.90625 14.3723 2.30108 14.401 2.80505L14.5676 5.71875H7.35431L7.52075 2.80505C7.54946 2.30108 7.96753 1.90625 8.47221 1.90625ZM6.97294 12.3906H14.9488L16.1471 33.3594H5.77475L6.97294 12.3906ZM1.90625 36.2188C1.90625 35.6932 2.33385 35.2656 2.85938 35.2656H36.2188V59.0938H20.0156V56.2344H22.875C28.6561 56.2344 33.3594 51.5311 33.3594 45.75V42.8906C33.3594 42.3643 32.9326 41.9375 32.4062 41.9375H28.5938C24.3696 41.9375 20.7214 44.4487 19.0625 48.0566C17.4036 44.4487 13.7554 41.9375 9.53125 41.9375H5.71875C5.19239 41.9375 4.76562 42.3643 4.76562 42.8906V45.75C4.76562 51.5311 9.46894 56.2344 15.25 56.2344H18.1094V59.0938H1.90625V36.2188ZM27.4048 47.9817C27.0581 47.5855 26.4558 47.5456 26.06 47.8922L20.0156 53.1808V52.4219C20.0156 47.6919 23.8637 43.8438 28.5938 43.8438H31.4531V45.75C31.4531 50.48 27.605 54.3281 22.875 54.3281H21.5991L27.3151 49.3267C27.7113 48.98 27.7514 48.3779 27.4048 47.9817ZM18.1094 53.1808L12.0651 47.892C11.6691 47.5453 11.0667 47.5855 10.7203 47.9816C10.3737 48.3778 10.4138 48.9799 10.81 49.3266L16.5259 54.3281H15.25C10.52 54.3281 6.67188 50.48 6.67188 45.75V43.8438H9.53125C14.2613 43.8438 18.1094 47.6919 18.1094 52.4219V53.1808ZM44.7969 59.0938V49.5625C44.7969 49.037 45.2245 48.6094 45.75 48.6094H51.4688C51.9943 48.6094 52.4219 49.037 52.4219 49.5625V59.0938H44.7969ZM54.3281 59.0938V49.5625C54.3281 47.9859 53.0453 46.7031 51.4688 46.7031H45.75C44.1734 46.7031 42.8906 47.9859 42.8906 49.5625V59.0938H38.125C38.125 57.9032 38.125 32.6767 38.125 31.4531H59.0938V59.0938H54.3281Z" fill="#21D243"/>
<path d="M43.8438 41.9375H41.9375C41.4111 41.9375 40.9844 42.3643 40.9844 42.8906C40.9844 43.417 41.4111 43.8438 41.9375 43.8438H43.8438C44.3701 43.8438 44.7969 43.417 44.7969 42.8906C44.7969 42.3643 44.3701 41.9375 43.8438 41.9375Z" fill="#21D243"/>
<path d="M49.5625 41.9375H47.6562C47.1299 41.9375 46.7031 42.3643 46.7031 42.8906C46.7031 43.417 47.1299 43.8438 47.6562 43.8438H49.5625C50.0889 43.8438 50.5156 43.417 50.5156 42.8906C50.5156 42.3643 50.0889 41.9375 49.5625 41.9375Z" fill="#21D243"/>
<path d="M55.2812 41.9375H53.375C52.8486 41.9375 52.4219 42.3643 52.4219 42.8906C52.4219 43.417 52.8486 43.8438 53.375 43.8438H55.2812C55.8076 43.8438 56.2344 43.417 56.2344 42.8906C56.2344 42.3643 55.8076 41.9375 55.2812 41.9375Z" fill="#21D243"/>
<path d="M43.8438 38.125H41.9375C41.4111 38.125 40.9844 38.5518 40.9844 39.0781C40.9844 39.6045 41.4111 40.0312 41.9375 40.0312H43.8438C44.3701 40.0312 44.7969 39.6045 44.7969 39.0781C44.7969 38.5518 44.3701 38.125 43.8438 38.125Z" fill="#21D243"/>
<path d="M49.5625 38.125H47.6562C47.1299 38.125 46.7031 38.5518 46.7031 39.0781C46.7031 39.6045 47.1299 40.0312 47.6562 40.0312H49.5625C50.0889 40.0312 50.5156 39.6045 50.5156 39.0781C50.5156 38.5518 50.0889 38.125 49.5625 38.125Z" fill="#21D243"/>
<path d="M55.2812 38.125H53.375C52.8486 38.125 52.4219 38.5518 52.4219 39.0781C52.4219 39.6045 52.8486 40.0312 53.375 40.0312H55.2812C55.8076 40.0312 56.2344 39.6045 56.2344 39.0781C56.2344 38.5518 55.8076 38.125 55.2812 38.125Z" fill="#21D243"/>
<path d="M43.8438 34.3125H41.9375C41.4111 34.3125 40.9844 34.7393 40.9844 35.2656C40.9844 35.792 41.4111 36.2188 41.9375 36.2188H43.8438C44.3701 36.2188 44.7969 35.792 44.7969 35.2656C44.7969 34.7393 44.3701 34.3125 43.8438 34.3125Z" fill="#21D243"/>
<path d="M49.5625 34.3125H47.6562C47.1299 34.3125 46.7031 34.7393 46.7031 35.2656C46.7031 35.792 47.1299 36.2188 47.6562 36.2188H49.5625C50.0889 36.2188 50.5156 35.792 50.5156 35.2656C50.5156 34.7393 50.0889 34.3125 49.5625 34.3125Z" fill="#21D243"/>
<path d="M55.2812 34.3125H53.375C52.8486 34.3125 52.4219 34.7393 52.4219 35.2656C52.4219 35.792 52.8486 36.2188 53.375 36.2188H55.2812C55.8076 36.2188 56.2344 35.792 56.2344 35.2656C56.2344 34.7393 55.8076 34.3125 55.2812 34.3125Z" fill="#21D243"/>
</svg>
