<svg width="50" height="47" viewBox="0 0 50 47" fill="none" xmlns="http://www.w3.org/2000/svg">
<path d="M49.7139 44.4268L43.4429 38.1558C42.7067 37.4192 41.7969 36.9583 40.844 36.7733V24.1242C41.0488 24.1413 41.2529 24.1497 41.4566 24.1497C43.3926 24.1497 45.261 23.3898 46.6664 21.9845C48.4688 20.1821 49.2092 17.619 48.6473 15.1276C48.5646 14.7598 48.2773 14.473 47.9096 14.3898C45.4186 13.8283 42.8551 14.5687 41.053 16.3712C40.9813 16.4425 40.9123 16.5157 40.844 16.5894V11.4784C42.3436 10.3314 43.224 8.56705 43.224 6.65665C43.224 4.56086 42.1643 2.63977 40.3893 1.51825C40.0704 1.31683 39.6645 1.31683 39.3456 1.51825C37.5706 2.63977 36.5109 4.56086 36.5109 6.65665C36.5109 8.56705 37.3913 10.3314 38.8909 11.4784V12.7602C37.2849 11.1698 35.0106 10.5179 32.7999 11.0165C32.4322 11.0996 32.145 11.3869 32.0622 11.7542C31.5613 13.9759 32.2216 16.2617 33.8288 17.8692C35.0823 19.1227 36.7485 19.8002 38.4751 19.8002C38.6135 19.8002 38.752 19.7945 38.8909 19.7861V23.7084C38.7638 23.5615 38.6315 23.4181 38.4926 23.2792C36.5528 21.3398 33.8024 20.5319 31.1199 21.1083C30.9029 19.5934 29.5975 18.4254 28.0243 18.4254H21.7487L18.8248 14.4066C18.4113 13.8378 17.8963 13.3618 17.3161 12.9921C19.0201 12.2803 20.221 10.5969 20.221 8.63801V6.30341H21.7266C22.266 6.30341 22.7032 5.86625 22.7032 5.32685C22.7032 4.78745 22.266 4.35028 21.7266 4.35028H20.4895V2.78588C20.4895 1.2497 19.2398 0 17.7036 0H13.0867C11.5505 0 10.3008 1.2497 10.3008 2.78588V4.35028H9.06373C8.52433 4.35028 8.08716 4.78745 8.08716 5.32685C8.08716 5.86625 8.52433 6.30341 9.06373 6.30341H10.788V8.63801C10.788 10.1585 11.512 11.5128 12.6328 12.376C10.3848 13.0928 8.75168 15.2004 8.75168 17.683V28.3161C8.75168 30.6015 10.0002 32.5997 11.8504 33.6674V39.9414H3.07617C1.38016 39.9414 0 41.3216 0 43.0176C0 44.7136 1.38016 46.0938 3.07617 46.0938H4.3335C4.8729 46.0938 5.31006 45.6566 5.31006 45.1172C5.31006 44.5778 4.8729 44.1407 4.3335 44.1407H3.07617C2.45705 44.1407 1.95313 43.6367 1.95313 43.0176C1.95313 42.3985 2.45705 41.8946 3.07617 41.8946H12.8269C13.3663 41.8946 13.8035 41.4574 13.8035 40.918V34.3876C14.1682 34.4551 14.5435 34.4921 14.9277 34.4921H16.8621V40.8085C16.8621 42.6461 15.3671 44.1407 13.53 44.1407H12.146C11.6066 44.1407 11.1694 44.5778 11.1694 45.1172C11.1694 45.6566 11.6066 46.0938 12.146 46.0938H13.53C16.4444 46.0938 18.8152 43.7229 18.8152 40.8085V34.4921H22.3869V43.0176C22.3869 44.7136 23.7671 46.0938 25.4631 46.0938C27.1595 46.0938 28.5393 44.7136 28.5393 43.0176V32.4219C28.5393 29.5075 26.1688 27.1366 23.2544 27.1366H18.5501V24.635C18.6455 24.6655 18.7458 24.6819 18.8484 24.6819H28.0243C28.8216 24.6819 29.5498 24.3817 30.1029 23.8888C30.1621 25.9094 30.9826 27.8469 32.4536 29.3183C33.9817 30.8464 36.0131 31.6723 38.1176 31.6723C38.3747 31.6723 38.6326 31.6593 38.8909 31.6345V36.7768C37.9433 36.9637 37.0396 37.423 36.3072 38.1558L30.0652 44.3978C29.6837 44.7789 29.6837 45.3972 30.0652 45.7787C30.4463 46.1602 31.065 46.1602 31.4461 45.7787L37.6881 39.5371C38.8939 38.3309 40.8558 38.3309 42.062 39.5371L48.333 45.8077C48.5237 45.9984 48.7736 46.0938 49.0235 46.0938C49.2733 46.0938 49.5232 45.9984 49.7139 45.8077C50.0954 45.4262 50.0954 44.8078 49.7139 44.4268V44.4268ZM38.8752 17.8295C37.5218 17.9443 36.1874 17.4652 35.2101 16.4883C34.2331 15.511 33.7532 14.177 33.8688 12.8231C35.2223 12.7079 36.5567 13.1874 37.534 14.1644C38.5109 15.1417 38.9904 16.4761 38.8752 17.8295ZM42.434 17.7521C43.6077 16.5787 45.2198 16.0168 46.8472 16.1904C47.0204 17.8169 46.4588 19.4298 45.2854 20.6032C44.1117 21.777 42.4996 22.3385 40.8722 22.1649C40.8547 21.9994 40.8467 21.8342 40.844 21.6694V21.4794C40.8711 20.0924 41.4257 18.7603 42.434 17.7521V17.7521ZM39.8674 3.55835C40.7559 4.33541 41.2709 5.45388 41.2709 6.65703C41.2709 7.85981 40.7559 8.97828 39.8674 9.75533C38.979 8.97828 38.464 7.86019 38.464 6.65703C38.464 5.45388 38.979 4.33541 39.8674 3.55835ZM18.2678 8.63801C18.2678 10.1616 17.0281 11.4014 15.5045 11.4014C13.9805 11.4014 12.7411 10.1616 12.7411 8.63801V6.30341H18.2678V8.63801ZM12.254 2.78588C12.254 2.32659 12.6274 1.95313 13.0867 1.95313H17.7036C18.1629 1.95313 18.5364 2.32659 18.5364 2.78588V4.35028H12.254V2.78588ZM23.2544 29.0898C25.0916 29.0898 26.5862 30.5847 26.5862 32.4219V43.0176C26.5862 43.6367 26.0826 44.1407 25.4631 44.1407C24.844 44.1407 24.3401 43.6367 24.3401 43.0176V33.5156C24.3401 32.9766 23.9029 32.539 23.3635 32.539H14.9273C12.8635 32.539 11.1416 31.0501 10.7769 29.0898H23.2544ZM28.0243 22.7287H19.2864L17.3893 20.5959C17.0307 20.1927 16.4135 20.1569 16.0103 20.5151C15.6075 20.8737 15.5712 21.4909 15.9298 21.8941L16.597 22.6437V27.1366H10.7048V17.683C10.7048 15.6891 12.3272 14.0667 14.3211 14.0667C15.4739 14.0667 16.5672 14.6233 17.2455 15.5556L20.4621 19.9764C20.6459 20.2294 20.9393 20.3785 21.2517 20.3785H28.0243C28.6724 20.3785 29.1996 20.9057 29.1996 21.5538C29.1996 22.2016 28.672 22.7287 28.0243 22.7287V22.7287ZM38.8497 29.6753C37.0034 29.8954 35.1666 29.2691 33.8349 27.9373C32.5032 26.6056 31.876 24.7685 32.0965 22.9222C33.9424 22.7009 35.78 23.3288 37.1117 24.6605C38.2565 25.8053 38.8787 27.3239 38.8909 28.9006V29.0386C38.8878 29.2504 38.8748 29.4628 38.8497 29.6753Z" fill="#626262"/>
</svg>
