<svg width="50" height="50" viewBox="0 0 50 50" fill="none" xmlns="http://www.w3.org/2000/svg">
<g clip-path="url(#clip0)">
<mask id="path-1-outside-1" maskUnits="userSpaceOnUse" x="42.3334" y="9" width="8" height="8" fill="black">
<rect fill="white" x="42.3334" y="9" width="8" height="8"/>
<path d="M46.6667 10C44.8283 10 43.3334 11.495 43.3334 13.3333C43.3334 15.1716 44.8284 16.6666 46.6667 16.6666C48.505 16.6666 50 15.1717 50 13.3333C50 11.495 48.505 10 46.6667 10ZM46.6667 15C45.7476 15 45 14.2525 45 13.3333C45 12.4142 45.7475 11.6666 46.6667 11.6666C47.5859 11.6666 48.3334 12.4141 48.3334 13.3333C48.3333 14.2525 47.5858 15 46.6667 15Z"/>
</mask>
<path d="M46.6667 10C44.8283 10 43.3334 11.495 43.3334 13.3333C43.3334 15.1716 44.8284 16.6666 46.6667 16.6666C48.505 16.6666 50 15.1717 50 13.3333C50 11.495 48.505 10 46.6667 10ZM46.6667 15C45.7476 15 45 14.2525 45 13.3333C45 12.4142 45.7475 11.6666 46.6667 11.6666C47.5859 11.6666 48.3334 12.4141 48.3334 13.3333C48.3333 14.2525 47.5858 15 46.6667 15Z" fill="#626262"/>
<path d="M46.6667 10C44.8283 10 43.3334 11.495 43.3334 13.3333C43.3334 15.1716 44.8284 16.6666 46.6667 16.6666C48.505 16.6666 50 15.1717 50 13.3333C50 11.495 48.505 10 46.6667 10ZM46.6667 15C45.7476 15 45 14.2525 45 13.3333C45 12.4142 45.7475 11.6666 46.6667 11.6666C47.5859 11.6666 48.3334 12.4141 48.3334 13.3333C48.3333 14.2525 47.5858 15 46.6667 15Z" stroke="#626262" stroke-width="0.4" mask="url(#path-1-outside-1)"/>
<mask id="path-2-outside-2" maskUnits="userSpaceOnUse" x="-1" y="36.5" width="8" height="8" fill="black">
<rect fill="white" x="-1" y="36.5" width="8" height="8"/>
<path d="M3.3333 37.5C1.49502 37.5 0 38.995 0 40.8333C0 42.6716 1.49502 44.1666 3.3333 44.1666C5.17168 44.1666 6.6666 42.6716 6.6666 40.8333C6.6666 38.995 5.17168 37.5 3.3333 37.5ZM3.3333 42.5C2.41416 42.5 1.6666 41.7525 1.6666 40.8333C1.6666 39.9141 2.41406 39.1666 3.3333 39.1666C4.25244 39.1666 5 39.9141 5 40.8333C5 41.7525 4.25254 42.5 3.3333 42.5Z"/>
</mask>
<path d="M3.3333 37.5C1.49502 37.5 0 38.995 0 40.8333C0 42.6716 1.49502 44.1666 3.3333 44.1666C5.17168 44.1666 6.6666 42.6716 6.6666 40.8333C6.6666 38.995 5.17168 37.5 3.3333 37.5ZM3.3333 42.5C2.41416 42.5 1.6666 41.7525 1.6666 40.8333C1.6666 39.9141 2.41406 39.1666 3.3333 39.1666C4.25244 39.1666 5 39.9141 5 40.8333C5 41.7525 4.25254 42.5 3.3333 42.5Z" fill="#626262"/>
<path d="M3.3333 37.5C1.49502 37.5 0 38.995 0 40.8333C0 42.6716 1.49502 44.1666 3.3333 44.1666C5.17168 44.1666 6.6666 42.6716 6.6666 40.8333C6.6666 38.995 5.17168 37.5 3.3333 37.5ZM3.3333 42.5C2.41416 42.5 1.6666 41.7525 1.6666 40.8333C1.6666 39.9141 2.41406 39.1666 3.3333 39.1666C4.25244 39.1666 5 39.9141 5 40.8333C5 41.7525 4.25254 42.5 3.3333 42.5Z" stroke="#626262" stroke-width="0.4" mask="url(#path-2-outside-2)"/>
<mask id="path-3-outside-3" maskUnits="userSpaceOnUse" x="35.6663" y="6.49927" width="11" height="7" fill="black">
<rect fill="white" x="35.6663" y="6.49927" width="11" height="7"/>
<path d="M45.0509 11.0534L37.8617 7.5826C37.4467 7.38172 36.9492 7.55672 36.7492 7.97098C36.5492 8.38514 36.7233 8.88348 37.1376 9.08348L44.3267 12.5543C44.4434 12.6109 44.5668 12.6376 44.6884 12.6376C44.9983 12.6376 45.2959 12.4642 45.4391 12.1659C45.6391 11.7517 45.465 11.2534 45.0509 11.0534Z"/>
</mask>
<path d="M45.0509 11.0534L37.8617 7.5826C37.4467 7.38172 36.9492 7.55672 36.7492 7.97098C36.5492 8.38514 36.7233 8.88348 37.1376 9.08348L44.3267 12.5543C44.4434 12.6109 44.5668 12.6376 44.6884 12.6376C44.9983 12.6376 45.2959 12.4642 45.4391 12.1659C45.6391 11.7517 45.465 11.2534 45.0509 11.0534Z" fill="#626262"/>
<path d="M45.0509 11.0534L37.8617 7.5826C37.4467 7.38172 36.9492 7.55672 36.7492 7.97098C36.5492 8.38514 36.7233 8.88348 37.1376 9.08348L44.3267 12.5543C44.4434 12.6109 44.5668 12.6376 44.6884 12.6376C44.9983 12.6376 45.2959 12.4642 45.4391 12.1659C45.6391 11.7517 45.465 11.2534 45.0509 11.0534Z" stroke="#626262" stroke-width="0.4" mask="url(#path-3-outside-3)"/>
<mask id="path-4-outside-4" maskUnits="userSpaceOnUse" x="33.1667" y="42.3335" width="8" height="8" fill="black">
<rect fill="white" x="33.1667" y="42.3335" width="8" height="8"/>
<path d="M37.5 43.3335C35.6616 43.3335 34.1667 44.8285 34.1667 46.6668C34.1667 48.5051 35.6616 50.0002 37.5 50.0002C39.3384 50.0002 40.8333 48.5052 40.8333 46.6669C40.8333 44.8286 39.3384 43.3335 37.5 43.3335ZM37.5 48.3335C36.5808 48.3335 35.8333 47.586 35.8333 46.6668C35.8333 45.7476 36.5808 45.0002 37.5 45.0002C38.4191 45.0002 39.1667 45.7477 39.1667 46.6669C39.1667 47.5861 38.4191 48.3335 37.5 48.3335Z"/>
</mask>
<path d="M37.5 43.3335C35.6616 43.3335 34.1667 44.8285 34.1667 46.6668C34.1667 48.5051 35.6616 50.0002 37.5 50.0002C39.3384 50.0002 40.8333 48.5052 40.8333 46.6669C40.8333 44.8286 39.3384 43.3335 37.5 43.3335ZM37.5 48.3335C36.5808 48.3335 35.8333 47.586 35.8333 46.6668C35.8333 45.7476 36.5808 45.0002 37.5 45.0002C38.4191 45.0002 39.1667 45.7477 39.1667 46.6669C39.1667 47.5861 38.4191 48.3335 37.5 48.3335Z" fill="#626262"/>
<path d="M37.5 43.3335C35.6616 43.3335 34.1667 44.8285 34.1667 46.6668C34.1667 48.5051 35.6616 50.0002 37.5 50.0002C39.3384 50.0002 40.8333 48.5052 40.8333 46.6669C40.8333 44.8286 39.3384 43.3335 37.5 43.3335ZM37.5 48.3335C36.5808 48.3335 35.8333 47.586 35.8333 46.6668C35.8333 45.7476 36.5808 45.0002 37.5 45.0002C38.4191 45.0002 39.1667 45.7477 39.1667 46.6669C39.1667 47.5861 38.4191 48.3335 37.5 48.3335Z" stroke="#626262" stroke-width="0.4" mask="url(#path-4-outside-4)"/>
<mask id="path-5-outside-5" maskUnits="userSpaceOnUse" x="26.4996" y="39.8325" width="11" height="7" fill="black">
<rect fill="white" x="26.4996" y="39.8325" width="11" height="7"/>
<path d="M35.8842 44.3868L28.695 40.916C28.28 40.7151 27.7825 40.8893 27.5825 41.3044C27.3825 41.7185 27.5566 42.2169 27.9709 42.4169L35.1601 45.8877C35.2768 45.9443 35.4001 45.971 35.5217 45.971C35.8316 45.971 36.1292 45.7976 36.2726 45.4993C36.4725 45.085 36.2983 44.5868 35.8842 44.3868Z"/>
</mask>
<path d="M35.8842 44.3868L28.695 40.916C28.28 40.7151 27.7825 40.8893 27.5825 41.3044C27.3825 41.7185 27.5566 42.2169 27.9709 42.4169L35.1601 45.8877C35.2768 45.9443 35.4001 45.971 35.5217 45.971C35.8316 45.971 36.1292 45.7976 36.2726 45.4993C36.4725 45.085 36.2983 44.5868 35.8842 44.3868Z" fill="#626262"/>
<path d="M35.8842 44.3868L28.695 40.916C28.28 40.7151 27.7825 40.8893 27.5825 41.3044C27.3825 41.7185 27.5566 42.2169 27.9709 42.4169L35.1601 45.8877C35.2768 45.9443 35.4001 45.971 35.5217 45.971C35.8316 45.971 36.1292 45.7976 36.2726 45.4993C36.4725 45.085 36.2983 44.5868 35.8842 44.3868Z" stroke="#626262" stroke-width="0.4" mask="url(#path-5-outside-5)"/>
<mask id="path-6-outside-6" maskUnits="userSpaceOnUse" x="20.6667" y="21.5" width="8" height="8" fill="black">
<rect fill="white" x="20.6667" y="21.5" width="8" height="8"/>
<path d="M25 22.5C23.1616 22.5 21.6667 23.995 21.6667 25.8333C21.6667 27.6717 23.1617 29.1666 25 29.1666C26.8384 29.1666 28.3333 27.6716 28.3333 25.8333C28.3333 23.995 26.8384 22.5 25 22.5ZM25 27.5C24.0808 27.5 23.3333 26.7525 23.3333 25.8333C23.3333 24.9142 24.0807 24.1666 25 24.1666C25.9191 24.1666 26.6667 24.9141 26.6667 25.8333C26.6667 26.7525 25.9191 27.5 25 27.5Z"/>
</mask>
<path d="M25 22.5C23.1616 22.5 21.6667 23.995 21.6667 25.8333C21.6667 27.6717 23.1617 29.1666 25 29.1666C26.8384 29.1666 28.3333 27.6716 28.3333 25.8333C28.3333 23.995 26.8384 22.5 25 22.5ZM25 27.5C24.0808 27.5 23.3333 26.7525 23.3333 25.8333C23.3333 24.9142 24.0807 24.1666 25 24.1666C25.9191 24.1666 26.6667 24.9141 26.6667 25.8333C26.6667 26.7525 25.9191 27.5 25 27.5Z" fill="#626262"/>
<path d="M25 22.5C23.1616 22.5 21.6667 23.995 21.6667 25.8333C21.6667 27.6717 23.1617 29.1666 25 29.1666C26.8384 29.1666 28.3333 27.6716 28.3333 25.8333C28.3333 23.995 26.8384 22.5 25 22.5ZM25 27.5C24.0808 27.5 23.3333 26.7525 23.3333 25.8333C23.3333 24.9142 24.0807 24.1666 25 24.1666C25.9191 24.1666 26.6667 24.9141 26.6667 25.8333C26.6667 26.7525 25.9191 27.5 25 27.5Z" stroke="#626262" stroke-width="0.4" mask="url(#path-6-outside-6)"/>
<mask id="path-7-outside-7" maskUnits="userSpaceOnUse" x="15.6664" y="18.167" width="9" height="8" fill="black">
<rect fill="white" x="15.6664" y="18.167" width="9" height="8"/>
<path d="M23.535 23.6465L18.0125 19.3423C17.6491 19.0615 17.1259 19.124 16.8425 19.4873C16.56 19.8507 16.6241 20.374 16.9875 20.6574L22.51 24.9615C22.6625 25.0799 22.8425 25.1374 23.0217 25.1374C23.27 25.1374 23.515 25.0275 23.68 24.8166C23.9625 24.4531 23.8983 23.9298 23.535 23.6465Z"/>
</mask>
<path d="M23.535 23.6465L18.0125 19.3423C17.6491 19.0615 17.1259 19.124 16.8425 19.4873C16.56 19.8507 16.6241 20.374 16.9875 20.6574L22.51 24.9615C22.6625 25.0799 22.8425 25.1374 23.0217 25.1374C23.27 25.1374 23.515 25.0275 23.68 24.8166C23.9625 24.4531 23.8983 23.9298 23.535 23.6465Z" fill="#626262"/>
<path d="M23.535 23.6465L18.0125 19.3423C17.6491 19.0615 17.1259 19.124 16.8425 19.4873C16.56 19.8507 16.6241 20.374 16.9875 20.6574L22.51 24.9615C22.6625 25.0799 22.8425 25.1374 23.0217 25.1374C23.27 25.1374 23.515 25.0275 23.68 24.8166C23.9625 24.4531 23.8983 23.9298 23.535 23.6465Z" stroke="#626262" stroke-width="0.4" mask="url(#path-7-outside-7)"/>
<mask id="path-8-outside-8" maskUnits="userSpaceOnUse" x="29.8333" y="20.6667" width="20" height="20" fill="black">
<rect fill="white" x="29.8333" y="20.6667" width="20" height="20"/>
<path d="M40 21.6667C34.9458 21.6667 30.8333 25.7792 30.8333 30.8334C30.8333 35.8876 34.9458 40.0001 40 40.0001C45.0542 40.0001 49.1667 35.8876 49.1667 30.8334C49.1667 25.7792 45.0542 21.6667 40 21.6667ZM40 38.3333C35.8641 38.3333 32.5 34.9692 32.5 30.8333C32.5 26.6975 35.8641 23.3333 40 23.3333C44.1358 23.3333 47.5 26.6975 47.5 30.8333C47.5 34.9692 44.1358 38.3333 40 38.3333Z"/>
</mask>
<path d="M40 21.6667C34.9458 21.6667 30.8333 25.7792 30.8333 30.8334C30.8333 35.8876 34.9458 40.0001 40 40.0001C45.0542 40.0001 49.1667 35.8876 49.1667 30.8334C49.1667 25.7792 45.0542 21.6667 40 21.6667ZM40 38.3333C35.8641 38.3333 32.5 34.9692 32.5 30.8333C32.5 26.6975 35.8641 23.3333 40 23.3333C44.1358 23.3333 47.5 26.6975 47.5 30.8333C47.5 34.9692 44.1358 38.3333 40 38.3333Z" fill="#626262"/>
<path d="M40 21.6667C34.9458 21.6667 30.8333 25.7792 30.8333 30.8334C30.8333 35.8876 34.9458 40.0001 40 40.0001C45.0542 40.0001 49.1667 35.8876 49.1667 30.8334C49.1667 25.7792 45.0542 21.6667 40 21.6667ZM40 38.3333C35.8641 38.3333 32.5 34.9692 32.5 30.8333C32.5 26.6975 35.8641 23.3333 40 23.3333C44.1358 23.3333 47.5 26.6975 47.5 30.8333C47.5 34.9692 44.1358 38.3333 40 38.3333Z" stroke="#626262" stroke-width="0.4" mask="url(#path-8-outside-8)"/>
<mask id="path-9-outside-9" maskUnits="userSpaceOnUse" x="35.6667" y="24" width="8" height="8" fill="black">
<rect fill="white" x="35.6667" y="24" width="8" height="8"/>
<path d="M40 25C38.1616 25 36.6667 26.495 36.6667 28.3333C36.6667 30.1717 38.1617 31.6666 40 31.6666C41.8384 31.6666 43.3333 30.1716 43.3333 28.3333C43.3333 26.495 41.8384 25 40 25ZM40 30C39.0808 30 38.3333 29.2525 38.3333 28.3333C38.3333 27.4142 39.0807 26.6666 40 26.6666C40.9191 26.6666 41.6667 27.4141 41.6667 28.3333C41.6667 29.2525 40.9191 30 40 30Z"/>
</mask>
<path d="M40 25C38.1616 25 36.6667 26.495 36.6667 28.3333C36.6667 30.1717 38.1617 31.6666 40 31.6666C41.8384 31.6666 43.3333 30.1716 43.3333 28.3333C43.3333 26.495 41.8384 25 40 25ZM40 30C39.0808 30 38.3333 29.2525 38.3333 28.3333C38.3333 27.4142 39.0807 26.6666 40 26.6666C40.9191 26.6666 41.6667 27.4141 41.6667 28.3333C41.6667 29.2525 40.9191 30 40 30Z" fill="#626262"/>
<path d="M40 25C38.1616 25 36.6667 26.495 36.6667 28.3333C36.6667 30.1717 38.1617 31.6666 40 31.6666C41.8384 31.6666 43.3333 30.1716 43.3333 28.3333C43.3333 26.495 41.8384 25 40 25ZM40 30C39.0808 30 38.3333 29.2525 38.3333 28.3333C38.3333 27.4142 39.0807 26.6666 40 26.6666C40.9191 26.6666 41.6667 27.4141 41.6667 28.3333C41.6667 29.2525 40.9191 30 40 30Z" stroke="#626262" stroke-width="0.4" mask="url(#path-9-outside-9)"/>
<mask id="path-10-outside-10" maskUnits="userSpaceOnUse" x="34" y="32.3333" width="12" height="8" fill="black">
<rect fill="white" x="34" y="32.3333" width="12" height="8"/>
<path d="M42.4174 33.3333H37.5825C36.1584 33.3333 35 34.4608 35 35.8458V38.0424C35 38.3399 35.1583 38.6149 35.4158 38.7641C36.8125 39.5724 38.3974 40 40 40C41.6025 40 43.1875 39.5724 44.5841 38.7641C44.8417 38.6158 45 38.3399 45 38.0433V35.8466C45 34.4608 43.8417 33.3333 42.4174 33.3333ZM43.3333 37.5458C41.2591 38.5791 38.7408 38.5791 36.6666 37.5458V35.8466C36.6666 35.3799 37.0774 34.9999 37.5824 34.9999H42.4174C42.9223 34.9999 43.3332 35.3799 43.3332 35.8466V37.5458H43.3333Z"/>
</mask>
<path d="M42.4174 33.3333H37.5825C36.1584 33.3333 35 34.4608 35 35.8458V38.0424C35 38.3399 35.1583 38.6149 35.4158 38.7641C36.8125 39.5724 38.3974 40 40 40C41.6025 40 43.1875 39.5724 44.5841 38.7641C44.8417 38.6158 45 38.3399 45 38.0433V35.8466C45 34.4608 43.8417 33.3333 42.4174 33.3333ZM43.3333 37.5458C41.2591 38.5791 38.7408 38.5791 36.6666 37.5458V35.8466C36.6666 35.3799 37.0774 34.9999 37.5824 34.9999H42.4174C42.9223 34.9999 43.3332 35.3799 43.3332 35.8466V37.5458H43.3333Z" fill="#626262"/>
<path d="M42.4174 33.3333H37.5825C36.1584 33.3333 35 34.4608 35 35.8458V38.0424C35 38.3399 35.1583 38.6149 35.4158 38.7641C36.8125 39.5724 38.3974 40 40 40C41.6025 40 43.1875 39.5724 44.5841 38.7641C44.8417 38.6158 45 38.3399 45 38.0433V35.8466C45 34.4608 43.8417 33.3333 42.4174 33.3333ZM43.3333 37.5458C41.2591 38.5791 38.7408 38.5791 36.6666 37.5458V35.8466C36.6666 35.3799 37.0774 34.9999 37.5824 34.9999H42.4174C42.9223 34.9999 43.3332 35.3799 43.3332 35.8466V37.5458H43.3333Z" stroke="#626262" stroke-width="0.4" mask="url(#path-10-outside-10)"/>
<mask id="path-11-outside-11" maskUnits="userSpaceOnUse" x="9.83331" y="30.6665" width="20" height="20" fill="black">
<rect fill="white" x="9.83331" y="30.6665" width="20" height="20"/>
<path d="M20 31.6665C14.9458 31.6665 10.8333 35.779 10.8333 40.8332C10.8333 45.8874 14.9458 49.9998 20 49.9998C25.0542 49.9998 29.1667 45.8873 29.1667 40.8331C29.1667 35.7789 25.0542 31.6665 20 31.6665ZM20 48.3331C15.8642 48.3331 12.5 44.9689 12.5 40.8331C12.5 36.6973 15.8642 33.3331 20 33.3331C24.1358 33.3331 27.5 36.6973 27.5 40.8331C27.5 44.9689 24.1358 48.3331 20 48.3331Z"/>
</mask>
<path d="M20 31.6665C14.9458 31.6665 10.8333 35.779 10.8333 40.8332C10.8333 45.8874 14.9458 49.9998 20 49.9998C25.0542 49.9998 29.1667 45.8873 29.1667 40.8331C29.1667 35.7789 25.0542 31.6665 20 31.6665ZM20 48.3331C15.8642 48.3331 12.5 44.9689 12.5 40.8331C12.5 36.6973 15.8642 33.3331 20 33.3331C24.1358 33.3331 27.5 36.6973 27.5 40.8331C27.5 44.9689 24.1358 48.3331 20 48.3331Z" fill="#626262"/>
<path d="M20 31.6665C14.9458 31.6665 10.8333 35.779 10.8333 40.8332C10.8333 45.8874 14.9458 49.9998 20 49.9998C25.0542 49.9998 29.1667 45.8873 29.1667 40.8331C29.1667 35.7789 25.0542 31.6665 20 31.6665ZM20 48.3331C15.8642 48.3331 12.5 44.9689 12.5 40.8331C12.5 36.6973 15.8642 33.3331 20 33.3331C24.1358 33.3331 27.5 36.6973 27.5 40.8331C27.5 44.9689 24.1358 48.3331 20 48.3331Z" stroke="#626262" stroke-width="0.4" mask="url(#path-11-outside-11)"/>
<mask id="path-12-outside-12" maskUnits="userSpaceOnUse" x="15.6667" y="34" width="8" height="8" fill="black">
<rect fill="white" x="15.6667" y="34" width="8" height="8"/>
<path d="M20 35C18.1616 35 16.6667 36.495 16.6667 38.3333C16.6667 40.1717 18.1617 41.6666 20 41.6666C21.8383 41.6666 23.3333 40.1716 23.3333 38.3333C23.3333 36.495 21.8384 35 20 35ZM20 40C19.0809 40 18.3333 39.2525 18.3333 38.3333C18.3333 37.4142 19.0808 36.6666 20 36.6666C20.9192 36.6666 21.6667 37.4141 21.6667 38.3333C21.6667 39.2525 20.9192 40 20 40Z"/>
</mask>
<path d="M20 35C18.1616 35 16.6667 36.495 16.6667 38.3333C16.6667 40.1717 18.1617 41.6666 20 41.6666C21.8383 41.6666 23.3333 40.1716 23.3333 38.3333C23.3333 36.495 21.8384 35 20 35ZM20 40C19.0809 40 18.3333 39.2525 18.3333 38.3333C18.3333 37.4142 19.0808 36.6666 20 36.6666C20.9192 36.6666 21.6667 37.4141 21.6667 38.3333C21.6667 39.2525 20.9192 40 20 40Z" fill="#626262"/>
<path d="M20 35C18.1616 35 16.6667 36.495 16.6667 38.3333C16.6667 40.1717 18.1617 41.6666 20 41.6666C21.8383 41.6666 23.3333 40.1716 23.3333 38.3333C23.3333 36.495 21.8384 35 20 35ZM20 40C19.0809 40 18.3333 39.2525 18.3333 38.3333C18.3333 37.4142 19.0808 36.6666 20 36.6666C20.9192 36.6666 21.6667 37.4141 21.6667 38.3333C21.6667 39.2525 20.9192 40 20 40Z" stroke="#626262" stroke-width="0.4" mask="url(#path-12-outside-12)"/>
<mask id="path-13-outside-13" maskUnits="userSpaceOnUse" x="14" y="42.3335" width="12" height="8" fill="black">
<rect fill="white" x="14" y="42.3335" width="12" height="8"/>
<path d="M22.4175 43.3335H17.5825C16.1584 43.3335 15 44.461 15 45.846V48.0427C15 48.3401 15.1583 48.6151 15.4158 48.7644C16.8125 49.5727 18.3975 50.0002 20 50.0002C21.6025 50.0002 23.1875 49.5727 24.5842 48.7644C24.8417 48.616 25 48.3402 25 48.0436V45.8469C25 44.461 23.8417 43.3335 22.4175 43.3335ZM23.3333 47.546C21.2591 48.5793 18.7408 48.5793 16.6666 47.546V45.8469C16.6666 45.3802 17.0774 45.0002 17.5824 45.0002H22.4174C22.9224 45.0002 23.3332 45.3802 23.3332 45.8469V47.546H23.3333Z"/>
</mask>
<path d="M22.4175 43.3335H17.5825C16.1584 43.3335 15 44.461 15 45.846V48.0427C15 48.3401 15.1583 48.6151 15.4158 48.7644C16.8125 49.5727 18.3975 50.0002 20 50.0002C21.6025 50.0002 23.1875 49.5727 24.5842 48.7644C24.8417 48.616 25 48.3402 25 48.0436V45.8469C25 44.461 23.8417 43.3335 22.4175 43.3335ZM23.3333 47.546C21.2591 48.5793 18.7408 48.5793 16.6666 47.546V45.8469C16.6666 45.3802 17.0774 45.0002 17.5824 45.0002H22.4174C22.9224 45.0002 23.3332 45.3802 23.3332 45.8469V47.546H23.3333Z" fill="#626262"/>
<path d="M22.4175 43.3335H17.5825C16.1584 43.3335 15 44.461 15 45.846V48.0427C15 48.3401 15.1583 48.6151 15.4158 48.7644C16.8125 49.5727 18.3975 50.0002 20 50.0002C21.6025 50.0002 23.1875 49.5727 24.5842 48.7644C24.8417 48.616 25 48.3402 25 48.0436V45.8469C25 44.461 23.8417 43.3335 22.4175 43.3335ZM23.3333 47.546C21.2591 48.5793 18.7408 48.5793 16.6666 47.546V45.8469C16.6666 45.3802 17.0774 45.0002 17.5824 45.0002H22.4174C22.9224 45.0002 23.3332 45.3802 23.3332 45.8469V47.546H23.3333Z" stroke="#626262" stroke-width="0.4" mask="url(#path-13-outside-13)"/>
<mask id="path-14-outside-14" maskUnits="userSpaceOnUse" x="-1" y="9.83325" width="20" height="20" fill="black">
<rect fill="white" x="-1" y="9.83325" width="20" height="20"/>
<path d="M9.1667 10.8333C4.1125 10.8333 0 14.9457 0 19.9999C0 25.0541 4.1125 29.1666 9.1667 29.1666C14.2209 29.1666 18.3334 25.0541 18.3334 19.9999C18.3333 14.9457 14.2208 10.8333 9.1667 10.8333ZM9.1667 27.4999C5.03086 27.4999 1.6667 24.1358 1.6667 19.9999C1.6667 15.8641 5.03086 12.5 9.1667 12.5C13.3025 12.5 16.6667 15.8641 16.6667 19.9999C16.6667 24.1358 13.3025 27.4999 9.1667 27.4999Z"/>
</mask>
<path d="M9.1667 10.8333C4.1125 10.8333 0 14.9457 0 19.9999C0 25.0541 4.1125 29.1666 9.1667 29.1666C14.2209 29.1666 18.3334 25.0541 18.3334 19.9999C18.3333 14.9457 14.2208 10.8333 9.1667 10.8333ZM9.1667 27.4999C5.03086 27.4999 1.6667 24.1358 1.6667 19.9999C1.6667 15.8641 5.03086 12.5 9.1667 12.5C13.3025 12.5 16.6667 15.8641 16.6667 19.9999C16.6667 24.1358 13.3025 27.4999 9.1667 27.4999Z" fill="#626262"/>
<path d="M9.1667 10.8333C4.1125 10.8333 0 14.9457 0 19.9999C0 25.0541 4.1125 29.1666 9.1667 29.1666C14.2209 29.1666 18.3334 25.0541 18.3334 19.9999C18.3333 14.9457 14.2208 10.8333 9.1667 10.8333ZM9.1667 27.4999C5.03086 27.4999 1.6667 24.1358 1.6667 19.9999C1.6667 15.8641 5.03086 12.5 9.1667 12.5C13.3025 12.5 16.6667 15.8641 16.6667 19.9999C16.6667 24.1358 13.3025 27.4999 9.1667 27.4999Z" stroke="#626262" stroke-width="0.4" mask="url(#path-14-outside-14)"/>
<mask id="path-15-outside-15" maskUnits="userSpaceOnUse" x="4.8334" y="13.1667" width="8" height="8" fill="black">
<rect fill="white" x="4.8334" y="13.1667" width="8" height="8"/>
<path d="M9.16671 14.1667C7.32833 14.1667 5.8334 15.6618 5.8334 17.5C5.8334 19.3383 7.32843 20.8333 9.16671 20.8333C11.0051 20.8333 12.5 19.3383 12.5 17.5C12.5 15.6618 11.005 14.1667 9.16671 14.1667ZM9.16671 19.1667C8.24757 19.1667 7.50001 18.4193 7.50001 17.5C7.50001 16.5808 8.24747 15.8333 9.16671 15.8333C10.0859 15.8333 10.8334 16.5808 10.8334 17.5C10.8334 18.4193 10.0859 19.1667 9.16671 19.1667Z"/>
</mask>
<path d="M9.16671 14.1667C7.32833 14.1667 5.8334 15.6618 5.8334 17.5C5.8334 19.3383 7.32843 20.8333 9.16671 20.8333C11.0051 20.8333 12.5 19.3383 12.5 17.5C12.5 15.6618 11.005 14.1667 9.16671 14.1667ZM9.16671 19.1667C8.24757 19.1667 7.50001 18.4193 7.50001 17.5C7.50001 16.5808 8.24747 15.8333 9.16671 15.8333C10.0859 15.8333 10.8334 16.5808 10.8334 17.5C10.8334 18.4193 10.0859 19.1667 9.16671 19.1667Z" fill="#626262"/>
<path d="M9.16671 14.1667C7.32833 14.1667 5.8334 15.6618 5.8334 17.5C5.8334 19.3383 7.32843 20.8333 9.16671 20.8333C11.0051 20.8333 12.5 19.3383 12.5 17.5C12.5 15.6618 11.005 14.1667 9.16671 14.1667ZM9.16671 19.1667C8.24757 19.1667 7.50001 18.4193 7.50001 17.5C7.50001 16.5808 8.24747 15.8333 9.16671 15.8333C10.0859 15.8333 10.8334 16.5808 10.8334 17.5C10.8334 18.4193 10.0859 19.1667 9.16671 19.1667Z" stroke="#626262" stroke-width="0.4" mask="url(#path-15-outside-15)"/>
<mask id="path-16-outside-16" maskUnits="userSpaceOnUse" x="3.16672" y="21.5" width="12" height="8" fill="black">
<rect fill="white" x="3.16672" y="21.5" width="12" height="8"/>
<path d="M11.5842 22.5H6.74924C5.32512 22.5 4.16672 23.6275 4.16672 25.0125V27.2092C4.16672 27.5066 4.32502 27.7816 4.58254 27.9309C5.97922 28.7392 7.56418 29.1667 9.16672 29.1667C10.7693 29.1667 12.3542 28.7392 13.7509 27.9309C14.0084 27.7825 14.1667 27.5066 14.1667 27.2101V25.0134C14.1667 23.6275 13.0083 22.5 11.5842 22.5ZM12.5 26.7125C10.4259 27.7458 7.90754 27.7458 5.83332 26.7125V25.0134C5.83332 24.5467 6.24416 24.1667 6.74914 24.1667H11.5841C12.0891 24.1667 12.4999 24.5467 12.4999 25.0134V26.7125H12.5Z"/>
</mask>
<path d="M11.5842 22.5H6.74924C5.32512 22.5 4.16672 23.6275 4.16672 25.0125V27.2092C4.16672 27.5066 4.32502 27.7816 4.58254 27.9309C5.97922 28.7392 7.56418 29.1667 9.16672 29.1667C10.7693 29.1667 12.3542 28.7392 13.7509 27.9309C14.0084 27.7825 14.1667 27.5066 14.1667 27.2101V25.0134C14.1667 23.6275 13.0083 22.5 11.5842 22.5ZM12.5 26.7125C10.4259 27.7458 7.90754 27.7458 5.83332 26.7125V25.0134C5.83332 24.5467 6.24416 24.1667 6.74914 24.1667H11.5841C12.0891 24.1667 12.4999 24.5467 12.4999 25.0134V26.7125H12.5Z" fill="#626262"/>
<path d="M11.5842 22.5H6.74924C5.32512 22.5 4.16672 23.6275 4.16672 25.0125V27.2092C4.16672 27.5066 4.32502 27.7816 4.58254 27.9309C5.97922 28.7392 7.56418 29.1667 9.16672 29.1667C10.7693 29.1667 12.3542 28.7392 13.7509 27.9309C14.0084 27.7825 14.1667 27.5066 14.1667 27.2101V25.0134C14.1667 23.6275 13.0083 22.5 11.5842 22.5ZM12.5 26.7125C10.4259 27.7458 7.90754 27.7458 5.83332 26.7125V25.0134C5.83332 24.5467 6.24416 24.1667 6.74914 24.1667H11.5841C12.0891 24.1667 12.4999 24.5467 12.4999 25.0134V26.7125H12.5Z" stroke="#626262" stroke-width="0.4" mask="url(#path-16-outside-16)"/>
<mask id="path-17-outside-17" maskUnits="userSpaceOnUse" x="19" y="-1" width="20" height="20" fill="black">
<rect fill="white" x="19" y="-1" width="20" height="20"/>
<path d="M29.1667 0C24.1125 0 20 4.1125 20 9.1667C20 14.2209 24.1125 18.3334 29.1667 18.3334C34.2209 18.3334 38.3334 14.2209 38.3334 9.1667C38.3333 4.1125 34.2208 0 29.1667 0ZM29.1667 16.6667C25.0309 16.6667 21.6667 13.3025 21.6667 9.1667C21.6667 5.03086 25.0309 1.6667 29.1667 1.6667C33.3025 1.6667 36.6667 5.03086 36.6667 9.1667C36.6667 13.3025 33.3025 16.6667 29.1667 16.6667Z"/>
</mask>
<path d="M29.1667 0C24.1125 0 20 4.1125 20 9.1667C20 14.2209 24.1125 18.3334 29.1667 18.3334C34.2209 18.3334 38.3334 14.2209 38.3334 9.1667C38.3333 4.1125 34.2208 0 29.1667 0ZM29.1667 16.6667C25.0309 16.6667 21.6667 13.3025 21.6667 9.1667C21.6667 5.03086 25.0309 1.6667 29.1667 1.6667C33.3025 1.6667 36.6667 5.03086 36.6667 9.1667C36.6667 13.3025 33.3025 16.6667 29.1667 16.6667Z" fill="#626262"/>
<path d="M29.1667 0C24.1125 0 20 4.1125 20 9.1667C20 14.2209 24.1125 18.3334 29.1667 18.3334C34.2209 18.3334 38.3334 14.2209 38.3334 9.1667C38.3333 4.1125 34.2208 0 29.1667 0ZM29.1667 16.6667C25.0309 16.6667 21.6667 13.3025 21.6667 9.1667C21.6667 5.03086 25.0309 1.6667 29.1667 1.6667C33.3025 1.6667 36.6667 5.03086 36.6667 9.1667C36.6667 13.3025 33.3025 16.6667 29.1667 16.6667Z" stroke="#626262" stroke-width="0.4" mask="url(#path-17-outside-17)"/>
<mask id="path-18-outside-18" maskUnits="userSpaceOnUse" x="24.8334" y="2.3335" width="8" height="8" fill="black">
<rect fill="white" x="24.8334" y="2.3335" width="8" height="8"/>
<path d="M29.1667 3.3335C27.3283 3.3335 25.8334 4.82852 25.8334 6.6668C25.8334 8.50508 27.3284 10.0001 29.1667 10.0001C31.005 10.0001 32.5 8.50518 32.5 6.66689C32.5 4.82861 31.005 3.3335 29.1667 3.3335ZM29.1667 8.3335C28.2476 8.3335 27.5 7.58604 27.5 6.6668C27.5 5.74766 28.2475 5.0001 29.1667 5.0001C30.0859 5.0001 30.8334 5.74756 30.8334 6.6668C30.8333 7.58604 30.0858 8.3335 29.1667 8.3335Z"/>
</mask>
<path d="M29.1667 3.3335C27.3283 3.3335 25.8334 4.82852 25.8334 6.6668C25.8334 8.50508 27.3284 10.0001 29.1667 10.0001C31.005 10.0001 32.5 8.50518 32.5 6.66689C32.5 4.82861 31.005 3.3335 29.1667 3.3335ZM29.1667 8.3335C28.2476 8.3335 27.5 7.58604 27.5 6.6668C27.5 5.74766 28.2475 5.0001 29.1667 5.0001C30.0859 5.0001 30.8334 5.74756 30.8334 6.6668C30.8333 7.58604 30.0858 8.3335 29.1667 8.3335Z" fill="#626262"/>
<path d="M29.1667 3.3335C27.3283 3.3335 25.8334 4.82852 25.8334 6.6668C25.8334 8.50508 27.3284 10.0001 29.1667 10.0001C31.005 10.0001 32.5 8.50518 32.5 6.66689C32.5 4.82861 31.005 3.3335 29.1667 3.3335ZM29.1667 8.3335C28.2476 8.3335 27.5 7.58604 27.5 6.6668C27.5 5.74766 28.2475 5.0001 29.1667 5.0001C30.0859 5.0001 30.8334 5.74756 30.8334 6.6668C30.8333 7.58604 30.0858 8.3335 29.1667 8.3335Z" stroke="#626262" stroke-width="0.4" mask="url(#path-18-outside-18)"/>
<mask id="path-19-outside-19" maskUnits="userSpaceOnUse" x="23.1667" y="10.667" width="12" height="8" fill="black">
<rect fill="white" x="23.1667" y="10.667" width="12" height="8"/>
<path d="M31.5842 11.667H26.7492C25.3251 11.667 24.1667 12.7945 24.1667 14.1795V16.3762C24.1667 16.6736 24.325 16.9486 24.5825 17.0978C25.9792 17.9061 27.5642 18.3337 29.1667 18.3337C30.7692 18.3337 32.3542 17.9061 33.7509 17.0978C34.0084 16.9495 34.1667 16.6736 34.1667 16.377V14.1804C34.1667 12.7944 33.0083 11.667 31.5842 11.667ZM32.5 15.8795C30.4259 16.9128 27.9075 16.9128 25.8333 15.8795V14.1804C25.8333 13.7137 26.2442 13.3337 26.7491 13.3337H31.5841C32.0891 13.3337 32.4999 13.7137 32.4999 14.1804V15.8795H32.5Z"/>
</mask>
<path d="M31.5842 11.667H26.7492C25.3251 11.667 24.1667 12.7945 24.1667 14.1795V16.3762C24.1667 16.6736 24.325 16.9486 24.5825 17.0978C25.9792 17.9061 27.5642 18.3337 29.1667 18.3337C30.7692 18.3337 32.3542 17.9061 33.7509 17.0978C34.0084 16.9495 34.1667 16.6736 34.1667 16.377V14.1804C34.1667 12.7944 33.0083 11.667 31.5842 11.667ZM32.5 15.8795C30.4259 16.9128 27.9075 16.9128 25.8333 15.8795V14.1804C25.8333 13.7137 26.2442 13.3337 26.7491 13.3337H31.5841C32.0891 13.3337 32.4999 13.7137 32.4999 14.1804V15.8795H32.5Z" fill="#626262"/>
<path d="M31.5842 11.667H26.7492C25.3251 11.667 24.1667 12.7945 24.1667 14.1795V16.3762C24.1667 16.6736 24.325 16.9486 24.5825 17.0978C25.9792 17.9061 27.5642 18.3337 29.1667 18.3337C30.7692 18.3337 32.3542 17.9061 33.7509 17.0978C34.0084 16.9495 34.1667 16.6736 34.1667 16.377V14.1804C34.1667 12.7944 33.0083 11.667 31.5842 11.667ZM32.5 15.8795C30.4259 16.9128 27.9075 16.9128 25.8333 15.8795V14.1804C25.8333 13.7137 26.2442 13.3337 26.7491 13.3337H31.5841C32.0891 13.3337 32.4999 13.7137 32.4999 14.1804V15.8795H32.5Z" stroke="#626262" stroke-width="0.4" mask="url(#path-19-outside-19)"/>
<mask id="path-20-outside-20" maskUnits="userSpaceOnUse" x="13.2257" y="7.33325" width="9" height="8" fill="black">
<rect fill="white" x="13.2257" y="7.33325" width="9" height="8"/>
<path d="M21.4675 8.62403C21.1684 8.27569 20.6425 8.234 20.2925 8.53321L14.5175 13.4749C14.1675 13.774 14.1267 14.2999 14.4258 14.6499C14.5908 14.8424 14.8241 14.9416 15.0591 14.9416C15.2508 14.9416 15.4433 14.8758 15.6008 14.7407L21.3758 9.79904C21.7259 9.49992 21.7667 8.97404 21.4675 8.62403Z"/>
</mask>
<path d="M21.4675 8.62403C21.1684 8.27569 20.6425 8.234 20.2925 8.53321L14.5175 13.4749C14.1675 13.774 14.1267 14.2999 14.4258 14.6499C14.5908 14.8424 14.8241 14.9416 15.0591 14.9416C15.2508 14.9416 15.4433 14.8758 15.6008 14.7407L21.3758 9.79904C21.7259 9.49992 21.7667 8.97404 21.4675 8.62403Z" fill="#626262"/>
<path d="M21.4675 8.62403C21.1684 8.27569 20.6425 8.234 20.2925 8.53321L14.5175 13.4749C14.1675 13.774 14.1267 14.2999 14.4258 14.6499C14.5908 14.8424 14.8241 14.9416 15.0591 14.9416C15.2508 14.9416 15.4433 14.8758 15.6008 14.7407L21.3758 9.79904C21.7259 9.49992 21.7667 8.97404 21.4675 8.62403Z" stroke="#626262" stroke-width="0.4" mask="url(#path-20-outside-20)"/>
<mask id="path-21-outside-21" maskUnits="userSpaceOnUse" x="32.3333" y="14.0007" width="8" height="10" fill="black">
<rect fill="white" x="32.3333" y="14.0007" width="8" height="10"/>
<path d="M39.8333 22.0006L34.8333 15.3339C34.5575 14.9648 34.035 14.8922 33.6666 15.1672C33.2983 15.4431 33.2242 15.9656 33.4999 16.333L38.4999 22.9997C38.6641 23.2181 38.9141 23.333 39.1674 23.333C39.3408 23.333 39.5166 23.2788 39.6666 23.1663C40.035 22.8906 40.1092 22.3681 39.8333 22.0006Z"/>
</mask>
<path d="M39.8333 22.0006L34.8333 15.3339C34.5575 14.9648 34.035 14.8922 33.6666 15.1672C33.2983 15.4431 33.2242 15.9656 33.4999 16.333L38.4999 22.9997C38.6641 23.2181 38.9141 23.333 39.1674 23.333C39.3408 23.333 39.5166 23.2788 39.6666 23.1663C40.035 22.8906 40.1092 22.3681 39.8333 22.0006Z" fill="#626262"/>
<path d="M39.8333 22.0006L34.8333 15.3339C34.5575 14.9648 34.035 14.8922 33.6666 15.1672C33.2983 15.4431 33.2242 15.9656 33.4999 16.333L38.4999 22.9997C38.6641 23.2181 38.9141 23.333 39.1674 23.333C39.3408 23.333 39.5166 23.2788 39.6666 23.1663C40.035 22.8906 40.1092 22.3681 39.8333 22.0006Z" stroke="#626262" stroke-width="0.4" mask="url(#path-21-outside-21)"/>
<mask id="path-22-outside-22" maskUnits="userSpaceOnUse" x="25.8392" y="32.2559" width="8" height="7" fill="black">
<rect fill="white" x="25.8392" y="32.2559" width="8" height="7"/>
<path d="M32.9942 33.5892C32.7183 33.2208 32.1958 33.1467 31.8275 33.4225L27.1725 36.9133C26.8041 37.1892 26.73 37.7116 27.0058 38.0791C27.17 38.2975 27.42 38.4124 27.6733 38.4124C27.8474 38.4124 28.0224 38.3574 28.1725 38.2457L32.8275 34.7549C33.1958 34.4792 33.2701 33.9566 32.9942 33.5892Z"/>
</mask>
<path d="M32.9942 33.5892C32.7183 33.2208 32.1958 33.1467 31.8275 33.4225L27.1725 36.9133C26.8041 37.1892 26.73 37.7116 27.0058 38.0791C27.17 38.2975 27.42 38.4124 27.6733 38.4124C27.8474 38.4124 28.0224 38.3574 28.1725 38.2457L32.8275 34.7549C33.1958 34.4792 33.2701 33.9566 32.9942 33.5892Z" fill="#626262"/>
<path d="M32.9942 33.5892C32.7183 33.2208 32.1958 33.1467 31.8275 33.4225L27.1725 36.9133C26.8041 37.1892 26.73 37.7116 27.0058 38.0791C27.17 38.2975 27.42 38.4124 27.6733 38.4124C27.8474 38.4124 28.0224 38.3574 28.1725 38.2457L32.8275 34.7549C33.1958 34.4792 33.2701 33.9566 32.9942 33.5892Z" stroke="#626262" stroke-width="0.4" mask="url(#path-22-outside-22)"/>
<mask id="path-23-outside-23" maskUnits="userSpaceOnUse" x="4" y="39" width="9" height="3" fill="black">
<rect fill="white" x="4" y="39" width="9" height="3"/>
<path d="M11.6667 40H5.8333C5.37334 40 5 40.3725 5 40.8333C5 41.2941 5.37334 41.6666 5.8333 41.6666H11.6666C12.1266 41.6666 12.4999 41.2941 12.4999 40.8333C12.4999 40.3725 12.1267 40 11.6667 40Z"/>
</mask>
<path d="M11.6667 40H5.8333C5.37334 40 5 40.3725 5 40.8333C5 41.2941 5.37334 41.6666 5.8333 41.6666H11.6666C12.1266 41.6666 12.4999 41.2941 12.4999 40.8333C12.4999 40.3725 12.1267 40 11.6667 40Z" fill="#626262"/>
<path d="M11.6667 40H5.8333C5.37334 40 5 40.3725 5 40.8333C5 41.2941 5.37334 41.6666 5.8333 41.6666H11.6666C12.1266 41.6666 12.4999 41.2941 12.4999 40.8333C12.4999 40.3725 12.1267 40 11.6667 40Z" stroke="#626262" stroke-width="0.4" mask="url(#path-23-outside-23)"/>
<mask id="path-24-outside-24" maskUnits="userSpaceOnUse" x="4.83331" y="-1" width="8" height="8" fill="black">
<rect fill="white" x="4.83331" y="-1" width="8" height="8"/>
<path d="M9.16671 0C7.32833 0 5.83331 1.49502 5.83331 3.3333C5.83331 5.17168 7.32833 6.6666 9.16661 6.6666C11.005 6.6666 12.4999 5.17158 12.4999 3.3333C12.5 1.49502 11.005 0 9.16671 0ZM9.16671 5C8.24757 5 7.50001 4.25254 7.50001 3.3333C7.50001 2.41416 8.24747 1.6666 9.16671 1.6666C10.0859 1.6666 10.8334 2.41406 10.8334 3.3333C10.8333 4.25254 10.0859 5 9.16671 5Z"/>
</mask>
<path d="M9.16671 0C7.32833 0 5.83331 1.49502 5.83331 3.3333C5.83331 5.17168 7.32833 6.6666 9.16661 6.6666C11.005 6.6666 12.4999 5.17158 12.4999 3.3333C12.5 1.49502 11.005 0 9.16671 0ZM9.16671 5C8.24757 5 7.50001 4.25254 7.50001 3.3333C7.50001 2.41416 8.24747 1.6666 9.16671 1.6666C10.0859 1.6666 10.8334 2.41406 10.8334 3.3333C10.8333 4.25254 10.0859 5 9.16671 5Z" fill="#626262"/>
<path d="M9.16671 0C7.32833 0 5.83331 1.49502 5.83331 3.3333C5.83331 5.17168 7.32833 6.6666 9.16661 6.6666C11.005 6.6666 12.4999 5.17158 12.4999 3.3333C12.5 1.49502 11.005 0 9.16671 0ZM9.16671 5C8.24757 5 7.50001 4.25254 7.50001 3.3333C7.50001 2.41416 8.24747 1.6666 9.16671 1.6666C10.0859 1.6666 10.8334 2.41406 10.8334 3.3333C10.8333 4.25254 10.0859 5 9.16671 5Z" stroke="#626262" stroke-width="0.4" mask="url(#path-24-outside-24)"/>
<mask id="path-25-outside-25" maskUnits="userSpaceOnUse" x="7.3334" y="3.99976" width="3" height="9" fill="black">
<rect fill="white" x="7.3334" y="3.99976" width="3" height="9"/>
<path d="M9.16671 4.99976C8.70674 4.99976 8.3334 5.37222 8.3334 5.83306V11.6664C8.3334 12.1272 8.70674 12.4997 9.16671 12.4997C9.62667 12.4997 10 12.1272 10 11.6664V5.83306C10 5.37222 9.62667 4.99976 9.16671 4.99976Z"/>
</mask>
<path d="M9.16671 4.99976C8.70674 4.99976 8.3334 5.37222 8.3334 5.83306V11.6664C8.3334 12.1272 8.70674 12.4997 9.16671 12.4997C9.62667 12.4997 10 12.1272 10 11.6664V5.83306C10 5.37222 9.62667 4.99976 9.16671 4.99976Z" fill="#626262"/>
<path d="M9.16671 4.99976C8.70674 4.99976 8.3334 5.37222 8.3334 5.83306V11.6664C8.3334 12.1272 8.70674 12.4997 9.16671 12.4997C9.62667 12.4997 10 12.1272 10 11.6664V5.83306C10 5.37222 9.62667 4.99976 9.16671 4.99976Z" stroke="#626262" stroke-width="0.4" mask="url(#path-25-outside-25)"/>
</g>
<defs>
<clipPath id="clip0">
<rect width="50" height="50" fill="white"/>
</clipPath>
</defs>
</svg>
