<svg width="50" height="50" viewBox="0 0 50 50" fill="none" xmlns="http://www.w3.org/2000/svg">
<g clip-path="url(#clip0)">
<path d="M34.375 20.8333H15.625C15.05 20.8333 14.5833 20.3667 14.5833 19.7917V1.04167C14.5833 0.466667 15.05 0 15.625 0H34.375C34.95 0 35.4167 0.466667 35.4167 1.04167V19.7917C35.4167 20.3667 34.95 20.8333 34.375 20.8333ZM16.6667 18.75H33.3333V2.08333H16.6667V18.75Z" fill="#626262"/>
<path d="M28.125 8.33333H21.875C21.3 8.33333 20.8333 7.86667 20.8333 7.29167V1.04167C20.8333 0.466667 21.3 0 21.875 0H28.125C28.7 0 29.1667 0.466667 29.1667 1.04167V7.29167C29.1667 7.86667 28.7 8.33333 28.125 8.33333ZM22.9167 6.25H27.0833V2.08333H22.9167V6.25Z" fill="#626262"/>
<path d="M25 39.5833H5.20832C4.63332 39.5833 4.16666 39.1167 4.16666 38.5417V19.7917C4.16666 19.2167 4.63332 18.75 5.20832 18.75H25C25.575 18.75 26.0417 19.2167 26.0417 19.7917V38.5417C26.0417 39.1167 25.575 39.5833 25 39.5833ZM6.24999 37.5H23.9583V20.8333H6.24999V37.5Z" fill="#626262"/>
<path d="M17.7083 27.0833H11.4584C10.8834 27.0833 10.4167 26.6167 10.4167 26.0417V19.7917C10.4167 19.2167 10.8834 18.75 11.4584 18.75H17.7083C18.2833 18.75 18.75 19.2167 18.75 19.7917V26.0417C18.75 26.6167 18.2833 27.0833 17.7083 27.0833ZM12.5 25H16.6667V20.8333H12.5V25Z" fill="#626262"/>
<path d="M44.7917 39.5833H25C24.425 39.5833 23.9583 39.1167 23.9583 38.5417V19.7917C23.9583 19.2167 24.425 18.75 25 18.75H44.7917C45.3667 18.75 45.8333 19.2167 45.8333 19.7917V38.5417C45.8333 39.1167 45.3667 39.5833 44.7917 39.5833ZM26.0417 37.5H43.75V20.8333H26.0417V37.5Z" fill="#626262"/>
<path d="M38.5417 27.0833H32.2917C31.7167 27.0833 31.25 26.6167 31.25 26.0417V19.7917C31.25 19.2167 31.7167 18.75 32.2917 18.75H38.5417C39.1167 18.75 39.5833 19.2167 39.5833 19.7917V26.0417C39.5833 26.6167 39.1167 27.0833 38.5417 27.0833ZM33.3333 25H37.5V20.8333H33.3333V25Z" fill="#626262"/>
<path d="M48.9583 50H40.625C40.05 50 39.5833 49.5333 39.5833 48.9583V45.8333H31.25V48.9583C31.25 49.5333 30.7833 50 30.2083 50H19.7917C19.2167 50 18.75 49.5333 18.75 48.9583V45.8333H10.4167V48.9583C10.4167 49.5333 9.95 50 9.375 50H1.04167C0.466667 50 0 49.5333 0 48.9583V38.5417C0 37.9667 0.466667 37.5 1.04167 37.5H48.9583C49.5333 37.5 50 37.9667 50 38.5417V48.9583C50 49.5333 49.5333 50 48.9583 50ZM41.6667 47.9167H47.9167V39.5833H2.08333V47.9167H8.33333V44.7917C8.33333 44.2167 8.8 43.75 9.375 43.75H19.7917C20.3667 43.75 20.8333 44.2167 20.8333 44.7917V47.9167H29.1667V44.7917C29.1667 44.2167 29.6333 43.75 30.2083 43.75H40.625C41.2 43.75 41.6667 44.2167 41.6667 44.7917V47.9167Z" fill="#626262"/>
</g>
<defs>
<clipPath id="clip0">
<rect width="50" height="50" fill="white"/>
</clipPath>
</defs>
</svg>
