<svg width="52" height="52" viewBox="0 0 52 52" fill="none" xmlns="http://www.w3.org/2000/svg">
<mask id="path-1-outside-1" maskUnits="userSpaceOnUse" x="3.2258" y="3.22559" width="24" height="24" fill="black">
<rect fill="white" x="3.2258" y="3.22559" width="24" height="24"/>
<path d="M15.5161 4.22559C9.29032 4.22559 4.2258 9.2901 4.2258 15.5159C4.2258 21.7417 9.29032 26.8062 15.5161 26.8062C21.7419 26.8062 26.8064 21.7417 26.8064 15.5159C26.8064 9.2901 21.7419 4.22559 15.5161 4.22559ZM15.5161 25.1933C10.1798 25.1933 5.8387 20.8522 5.8387 15.5159C5.8387 10.1796 10.1798 5.83849 15.5161 5.83849C20.8524 5.83849 25.1935 10.1796 25.1935 15.5159C25.1935 20.8522 20.8524 25.1933 15.5161 25.1933Z"/>
</mask>
<path d="M15.5161 4.22559C9.29032 4.22559 4.2258 9.2901 4.2258 15.5159C4.2258 21.7417 9.29032 26.8062 15.5161 26.8062C21.7419 26.8062 26.8064 21.7417 26.8064 15.5159C26.8064 9.2901 21.7419 4.22559 15.5161 4.22559ZM15.5161 25.1933C10.1798 25.1933 5.8387 20.8522 5.8387 15.5159C5.8387 10.1796 10.1798 5.83849 15.5161 5.83849C20.8524 5.83849 25.1935 10.1796 25.1935 15.5159C25.1935 20.8522 20.8524 25.1933 15.5161 25.1933Z" fill="#626262"/>
<path d="M15.5161 4.22559C9.29032 4.22559 4.2258 9.2901 4.2258 15.5159C4.2258 21.7417 9.29032 26.8062 15.5161 26.8062C21.7419 26.8062 26.8064 21.7417 26.8064 15.5159C26.8064 9.2901 21.7419 4.22559 15.5161 4.22559ZM15.5161 25.1933C10.1798 25.1933 5.8387 20.8522 5.8387 15.5159C5.8387 10.1796 10.1798 5.83849 15.5161 5.83849C20.8524 5.83849 25.1935 10.1796 25.1935 15.5159C25.1935 20.8522 20.8524 25.1933 15.5161 25.1933Z" stroke="#626262" stroke-width="0.4" mask="url(#path-1-outside-1)"/>
<mask id="path-2-outside-2" maskUnits="userSpaceOnUse" x="12.0968" y="41.9355" width="7" height="7" fill="black">
<rect fill="white" x="12.0968" y="41.9355" width="7" height="7"/>
<path d="M15.5161 42.9355C14.1823 42.9355 13.0968 44.021 13.0968 45.3549C13.0968 46.6888 14.1823 47.7743 15.5161 47.7743C16.85 47.7743 17.9355 46.6888 17.9355 45.3549C17.9355 44.021 16.85 42.9355 15.5161 42.9355ZM15.5161 46.1614C15.071 46.1614 14.7097 45.8001 14.7097 45.3549C14.7097 44.9097 15.071 44.5485 15.5161 44.5485C15.9613 44.5485 16.3226 44.9097 16.3226 45.3549C16.3226 45.8001 15.9613 46.1614 15.5161 46.1614Z"/>
</mask>
<path d="M15.5161 42.9355C14.1823 42.9355 13.0968 44.021 13.0968 45.3549C13.0968 46.6888 14.1823 47.7743 15.5161 47.7743C16.85 47.7743 17.9355 46.6888 17.9355 45.3549C17.9355 44.021 16.85 42.9355 15.5161 42.9355ZM15.5161 46.1614C15.071 46.1614 14.7097 45.8001 14.7097 45.3549C14.7097 44.9097 15.071 44.5485 15.5161 44.5485C15.9613 44.5485 16.3226 44.9097 16.3226 45.3549C16.3226 45.8001 15.9613 46.1614 15.5161 46.1614Z" fill="#626262"/>
<path d="M15.5161 42.9355C14.1823 42.9355 13.0968 44.021 13.0968 45.3549C13.0968 46.6888 14.1823 47.7743 15.5161 47.7743C16.85 47.7743 17.9355 46.6888 17.9355 45.3549C17.9355 44.021 16.85 42.9355 15.5161 42.9355ZM15.5161 46.1614C15.071 46.1614 14.7097 45.8001 14.7097 45.3549C14.7097 44.9097 15.071 44.5485 15.5161 44.5485C15.9613 44.5485 16.3226 44.9097 16.3226 45.3549C16.3226 45.8001 15.9613 46.1614 15.5161 46.1614Z" stroke="#626262" stroke-width="0.4" mask="url(#path-2-outside-2)"/>
<mask id="path-3-outside-3" maskUnits="userSpaceOnUse" x="12.0968" y="12.0967" width="7" height="7" fill="black">
<rect fill="white" x="12.0968" y="12.0967" width="7" height="7"/>
<path d="M15.5161 13.0967C14.1823 13.0967 13.0968 14.1822 13.0968 15.516C13.0968 16.8499 14.1823 17.9354 15.5161 17.9354C16.85 17.9354 17.9355 16.8499 17.9355 15.516C17.9355 14.1822 16.85 13.0967 15.5161 13.0967ZM15.5161 16.3225C15.071 16.3225 14.7097 15.9604 14.7097 15.516C14.7097 15.0717 15.071 14.7096 15.5161 14.7096C15.9613 14.7096 16.3226 15.0717 16.3226 15.516C16.3226 15.9604 15.9613 16.3225 15.5161 16.3225Z"/>
</mask>
<path d="M15.5161 13.0967C14.1823 13.0967 13.0968 14.1822 13.0968 15.516C13.0968 16.8499 14.1823 17.9354 15.5161 17.9354C16.85 17.9354 17.9355 16.8499 17.9355 15.516C17.9355 14.1822 16.85 13.0967 15.5161 13.0967ZM15.5161 16.3225C15.071 16.3225 14.7097 15.9604 14.7097 15.516C14.7097 15.0717 15.071 14.7096 15.5161 14.7096C15.9613 14.7096 16.3226 15.0717 16.3226 15.516C16.3226 15.9604 15.9613 16.3225 15.5161 16.3225Z" fill="#626262"/>
<path d="M15.5161 13.0967C14.1823 13.0967 13.0968 14.1822 13.0968 15.516C13.0968 16.8499 14.1823 17.9354 15.5161 17.9354C16.85 17.9354 17.9355 16.8499 17.9355 15.516C17.9355 14.1822 16.85 13.0967 15.5161 13.0967ZM15.5161 16.3225C15.071 16.3225 14.7097 15.9604 14.7097 15.516C14.7097 15.0717 15.071 14.7096 15.5161 14.7096C15.9613 14.7096 16.3226 15.0717 16.3226 15.516C16.3226 15.9604 15.9613 16.3225 15.5161 16.3225Z" stroke="#626262" stroke-width="0.4" mask="url(#path-3-outside-3)"/>
<mask id="path-4-outside-4" maskUnits="userSpaceOnUse" x="5.64517" y="12.0967" width="7" height="7" fill="black">
<rect fill="white" x="5.64517" y="12.0967" width="7" height="7"/>
<path d="M9.06453 13.0967C7.73066 13.0967 6.64517 14.1822 6.64517 15.516C6.64517 16.8499 7.73066 17.9354 9.06453 17.9354C10.3984 17.9354 11.4839 16.8499 11.4839 15.516C11.4839 14.1822 10.3984 13.0967 9.06453 13.0967ZM9.06453 16.3225C8.61937 16.3225 8.25808 15.9604 8.25808 15.516C8.25808 15.0717 8.61937 14.7096 9.06453 14.7096C9.50969 14.7096 9.87098 15.0717 9.87098 15.516C9.87098 15.9604 9.50969 16.3225 9.06453 16.3225Z"/>
</mask>
<path d="M9.06453 13.0967C7.73066 13.0967 6.64517 14.1822 6.64517 15.516C6.64517 16.8499 7.73066 17.9354 9.06453 17.9354C10.3984 17.9354 11.4839 16.8499 11.4839 15.516C11.4839 14.1822 10.3984 13.0967 9.06453 13.0967ZM9.06453 16.3225C8.61937 16.3225 8.25808 15.9604 8.25808 15.516C8.25808 15.0717 8.61937 14.7096 9.06453 14.7096C9.50969 14.7096 9.87098 15.0717 9.87098 15.516C9.87098 15.9604 9.50969 16.3225 9.06453 16.3225Z" fill="#626262"/>
<path d="M9.06453 13.0967C7.73066 13.0967 6.64517 14.1822 6.64517 15.516C6.64517 16.8499 7.73066 17.9354 9.06453 17.9354C10.3984 17.9354 11.4839 16.8499 11.4839 15.516C11.4839 14.1822 10.3984 13.0967 9.06453 13.0967ZM9.06453 16.3225C8.61937 16.3225 8.25808 15.9604 8.25808 15.516C8.25808 15.0717 8.61937 14.7096 9.06453 14.7096C9.50969 14.7096 9.87098 15.0717 9.87098 15.516C9.87098 15.9604 9.50969 16.3225 9.06453 16.3225Z" stroke="#626262" stroke-width="0.4" mask="url(#path-4-outside-4)"/>
<mask id="path-5-outside-5" maskUnits="userSpaceOnUse" x="18.5484" y="12.0967" width="7" height="7" fill="black">
<rect fill="white" x="18.5484" y="12.0967" width="7" height="7"/>
<path d="M19.5484 15.516C19.5484 16.8499 20.6339 17.9354 21.9678 17.9354C23.3016 17.9354 24.3871 16.8499 24.3871 15.516C24.3871 14.1822 23.3016 13.0967 21.9678 13.0967C20.6339 13.0967 19.5484 14.1822 19.5484 15.516ZM22.7742 15.516C22.7742 15.9604 22.4129 16.3225 21.9678 16.3225C21.5226 16.3225 21.1613 15.9604 21.1613 15.516C21.1613 15.0717 21.5226 14.7096 21.9678 14.7096C22.4129 14.7096 22.7742 15.0717 22.7742 15.516Z"/>
</mask>
<path d="M19.5484 15.516C19.5484 16.8499 20.6339 17.9354 21.9678 17.9354C23.3016 17.9354 24.3871 16.8499 24.3871 15.516C24.3871 14.1822 23.3016 13.0967 21.9678 13.0967C20.6339 13.0967 19.5484 14.1822 19.5484 15.516ZM22.7742 15.516C22.7742 15.9604 22.4129 16.3225 21.9678 16.3225C21.5226 16.3225 21.1613 15.9604 21.1613 15.516C21.1613 15.0717 21.5226 14.7096 21.9678 14.7096C22.4129 14.7096 22.7742 15.0717 22.7742 15.516Z" fill="#626262"/>
<path d="M19.5484 15.516C19.5484 16.8499 20.6339 17.9354 21.9678 17.9354C23.3016 17.9354 24.3871 16.8499 24.3871 15.516C24.3871 14.1822 23.3016 13.0967 21.9678 13.0967C20.6339 13.0967 19.5484 14.1822 19.5484 15.516ZM22.7742 15.516C22.7742 15.9604 22.4129 16.3225 21.9678 16.3225C21.5226 16.3225 21.1613 15.9604 21.1613 15.516C21.1613 15.0717 21.5226 14.7096 21.9678 14.7096C22.4129 14.7096 22.7742 15.0717 22.7742 15.516Z" stroke="#626262" stroke-width="0.4" mask="url(#path-5-outside-5)"/>
<mask id="path-6-outside-6" maskUnits="userSpaceOnUse" x="37.0968" y="38.7095" width="11" height="3" fill="black">
<rect fill="white" x="37.0968" y="38.7095" width="11" height="3"/>
<path d="M38.0968 39.7095H47.7742V41.3224H38.0968V39.7095Z"/>
</mask>
<path d="M38.0968 39.7095H47.7742V41.3224H38.0968V39.7095Z" fill="#626262"/>
<path d="M38.0968 39.7095H47.7742V41.3224H38.0968V39.7095Z" stroke="#626262" stroke-width="0.4" mask="url(#path-6-outside-6)"/>
<mask id="path-7-outside-7" maskUnits="userSpaceOnUse" x="37.0968" y="41.9355" width="8" height="3" fill="black">
<rect fill="white" x="37.0968" y="41.9355" width="8" height="3"/>
<path d="M38.0968 42.9355H44.5484V44.5485H38.0968V42.9355Z"/>
</mask>
<path d="M38.0968 42.9355H44.5484V44.5485H38.0968V42.9355Z" fill="#626262"/>
<path d="M38.0968 42.9355H44.5484V44.5485H38.0968V42.9355Z" stroke="#626262" stroke-width="0.4" mask="url(#path-7-outside-7)"/>
<mask id="path-8-outside-8" maskUnits="userSpaceOnUse" x="45.1613" y="41.9355" width="3" height="3" fill="black">
<rect fill="white" x="45.1613" y="41.9355" width="3" height="3"/>
<path d="M46.1613 42.9355H47.7742V44.5485H46.1613V42.9355Z"/>
</mask>
<path d="M46.1613 42.9355H47.7742V44.5485H46.1613V42.9355Z" fill="#626262"/>
<path d="M46.1613 42.9355H47.7742V44.5485H46.1613V42.9355Z" stroke="#626262" stroke-width="0.4" mask="url(#path-8-outside-8)"/>
<mask id="path-9-outside-9" maskUnits="userSpaceOnUse" x="37.0968" y="45.1611" width="11" height="3" fill="black">
<rect fill="white" x="37.0968" y="45.1611" width="11" height="3"/>
<path d="M38.0968 46.1611H47.7742V47.774H38.0968V46.1611Z"/>
</mask>
<path d="M38.0968 46.1611H47.7742V47.774H38.0968V46.1611Z" fill="#626262"/>
<path d="M38.0968 46.1611H47.7742V47.774H38.0968V46.1611Z" stroke="#626262" stroke-width="0.4" mask="url(#path-9-outside-9)"/>
<mask id="path-10-outside-10" maskUnits="userSpaceOnUse" x="37.0968" y="20.9678" width="11" height="3" fill="black">
<rect fill="white" x="37.0968" y="20.9678" width="11" height="3"/>
<path d="M38.0968 21.9678H47.7742V23.5807H38.0968V21.9678Z"/>
</mask>
<path d="M38.0968 21.9678H47.7742V23.5807H38.0968V21.9678Z" fill="#626262"/>
<path d="M38.0968 21.9678H47.7742V23.5807H38.0968V21.9678Z" stroke="#626262" stroke-width="0.4" mask="url(#path-10-outside-10)"/>
<mask id="path-11-outside-11" maskUnits="userSpaceOnUse" x="37.0968" y="24.1934" width="11" height="3" fill="black">
<rect fill="white" x="37.0968" y="24.1934" width="11" height="3"/>
<path d="M38.0968 25.1934H47.7742V26.8063H38.0968V25.1934Z"/>
</mask>
<path d="M38.0968 25.1934H47.7742V26.8063H38.0968V25.1934Z" fill="#626262"/>
<path d="M38.0968 25.1934H47.7742V26.8063H38.0968V25.1934Z" stroke="#626262" stroke-width="0.4" mask="url(#path-11-outside-11)"/>
<mask id="path-12-outside-12" maskUnits="userSpaceOnUse" x="45.1613" y="27.4194" width="3" height="3" fill="black">
<rect fill="white" x="45.1613" y="27.4194" width="3" height="3"/>
<path d="M46.1613 28.4194H47.7742V30.0323H46.1613V28.4194Z"/>
</mask>
<path d="M46.1613 28.4194H47.7742V30.0323H46.1613V28.4194Z" fill="#626262"/>
<path d="M46.1613 28.4194H47.7742V30.0323H46.1613V28.4194Z" stroke="#626262" stroke-width="0.4" mask="url(#path-12-outside-12)"/>
<mask id="path-13-outside-13" maskUnits="userSpaceOnUse" x="37.0968" y="27.4194" width="8" height="3" fill="black">
<rect fill="white" x="37.0968" y="27.4194" width="8" height="3"/>
<path d="M38.0968 28.4194H44.5484V30.0323H38.0968V28.4194Z"/>
</mask>
<path d="M38.0968 28.4194H44.5484V30.0323H38.0968V28.4194Z" fill="#626262"/>
<path d="M38.0968 28.4194H44.5484V30.0323H38.0968V28.4194Z" stroke="#626262" stroke-width="0.4" mask="url(#path-13-outside-13)"/>
<mask id="path-14-outside-14" maskUnits="userSpaceOnUse" x="0" y="0" width="52" height="52" fill="black">
<rect fill="white" width="52" height="52"/>
<path d="M37.2903 15.5161H48.5806C49.9145 15.5161 51 14.4306 51 13.0968V3.41935C51 2.08548 49.9145 1 48.5806 1H37.2903C35.9565 1 34.871 2.08548 34.871 3.41935V7.45161H31.3113L28.8903 9.87258C26.6839 4.66371 21.5194 1 15.5161 1C7.5121 1 1 7.5121 1 15.5161C1 22.0556 5.34919 27.5952 11.3056 29.4048L11.5798 29.8645C12.0323 30.625 12.2766 31.4919 12.2903 32.3742L9.98145 43.9202C9.90806 44.2855 9.87097 44.6573 9.87097 45.0274V45.3548C9.87097 48.4669 12.404 51 15.5161 51C18.6282 51 21.1613 48.4669 21.1613 45.3548V45.0274C21.1613 44.6573 21.1242 44.2855 21.0516 43.9202L18.7427 32.375C18.7565 31.4919 19.0008 30.6258 19.4532 29.8661L19.7274 29.4056C20.1411 29.2798 20.5452 29.1323 20.9427 28.971L31.2113 44.5484H34.871V48.5806C34.871 49.9145 35.9565 51 37.2903 51H48.5806C49.9145 51 51 49.9145 51 48.5806V38.9032C51 37.5694 49.9145 36.4839 48.5806 36.4839H37.2903C35.9565 36.4839 34.871 37.5694 34.871 38.9032V42.9355H32.079L22.421 28.2815C24.4339 27.1887 26.1556 25.629 27.4532 23.7548L30.5048 26.8065H34.871V30.8387C34.871 32.1726 35.9565 33.2581 37.2903 33.2581H48.5806C49.9145 33.2581 51 32.1726 51 30.8387V21.1613C51 19.8274 49.9145 18.7419 48.5806 18.7419H37.2903C35.9565 18.7419 34.871 19.8274 34.871 21.1613V25.1935H31.1726L28.3202 22.3411C29.4105 20.3048 30.0323 17.9823 30.0323 15.5161C30.0323 14.1468 29.829 12.8266 29.4726 11.5702L31.979 9.06452H34.871V13.0968C34.871 14.4306 35.9565 15.5161 37.2903 15.5161V15.5161ZM36.4839 38.9032C36.4839 38.4581 36.8452 38.0968 37.2903 38.0968H48.5806C49.0258 38.0968 49.3871 38.4581 49.3871 38.9032V48.5806C49.3871 49.0258 49.0258 49.3871 48.5806 49.3871H37.2903C36.8452 49.3871 36.4839 49.0258 36.4839 48.5806V38.9032ZM36.4839 21.1613C36.4839 20.7169 36.8452 20.3548 37.2903 20.3548H48.5806C49.0258 20.3548 49.3871 20.7169 49.3871 21.1613V30.8387C49.3871 31.2839 49.0258 31.6452 48.5806 31.6452H37.2903C36.8452 31.6452 36.4839 31.2839 36.4839 30.8387V21.1613ZM19.4702 44.2355C19.5226 44.4968 19.5484 44.7629 19.5484 45.0274V45.3548C19.5484 47.5782 17.7395 49.3871 15.5161 49.3871C13.2927 49.3871 11.4839 47.5782 11.4839 45.3548V45.0274C11.4839 44.7629 11.5097 44.4968 11.5621 44.2371L13.7581 33.2581H17.2895L19.4702 44.2355ZM17.1831 31.6452H13.8484C13.7734 31.0298 13.6169 30.4274 13.3758 29.8565C14.0766 29.9605 14.7871 30.0323 15.5161 30.0323C16.2452 30.0323 16.9556 29.9605 17.6556 29.8565C17.4145 30.4274 17.2589 31.0298 17.1831 31.6452V31.6452ZM15.5161 28.4194C8.40161 28.4194 2.6129 22.6306 2.6129 15.5161C2.6129 8.40161 8.40161 2.6129 15.5161 2.6129C22.6306 2.6129 28.4194 8.40161 28.4194 15.5161C28.4194 22.6306 22.6306 28.4194 15.5161 28.4194ZM36.4839 3.41935C36.4839 2.975 36.8452 2.6129 37.2903 2.6129H48.5806C49.0258 2.6129 49.3871 2.975 49.3871 3.41935V13.0968C49.3871 13.5411 49.0258 13.9032 48.5806 13.9032H37.2903C36.8452 13.9032 36.4839 13.5411 36.4839 13.0968V3.41935Z"/>
</mask>
<path d="M37.2903 15.5161H48.5806C49.9145 15.5161 51 14.4306 51 13.0968V3.41935C51 2.08548 49.9145 1 48.5806 1H37.2903C35.9565 1 34.871 2.08548 34.871 3.41935V7.45161H31.3113L28.8903 9.87258C26.6839 4.66371 21.5194 1 15.5161 1C7.5121 1 1 7.5121 1 15.5161C1 22.0556 5.34919 27.5952 11.3056 29.4048L11.5798 29.8645C12.0323 30.625 12.2766 31.4919 12.2903 32.3742L9.98145 43.9202C9.90806 44.2855 9.87097 44.6573 9.87097 45.0274V45.3548C9.87097 48.4669 12.404 51 15.5161 51C18.6282 51 21.1613 48.4669 21.1613 45.3548V45.0274C21.1613 44.6573 21.1242 44.2855 21.0516 43.9202L18.7427 32.375C18.7565 31.4919 19.0008 30.6258 19.4532 29.8661L19.7274 29.4056C20.1411 29.2798 20.5452 29.1323 20.9427 28.971L31.2113 44.5484H34.871V48.5806C34.871 49.9145 35.9565 51 37.2903 51H48.5806C49.9145 51 51 49.9145 51 48.5806V38.9032C51 37.5694 49.9145 36.4839 48.5806 36.4839H37.2903C35.9565 36.4839 34.871 37.5694 34.871 38.9032V42.9355H32.079L22.421 28.2815C24.4339 27.1887 26.1556 25.629 27.4532 23.7548L30.5048 26.8065H34.871V30.8387C34.871 32.1726 35.9565 33.2581 37.2903 33.2581H48.5806C49.9145 33.2581 51 32.1726 51 30.8387V21.1613C51 19.8274 49.9145 18.7419 48.5806 18.7419H37.2903C35.9565 18.7419 34.871 19.8274 34.871 21.1613V25.1935H31.1726L28.3202 22.3411C29.4105 20.3048 30.0323 17.9823 30.0323 15.5161C30.0323 14.1468 29.829 12.8266 29.4726 11.5702L31.979 9.06452H34.871V13.0968C34.871 14.4306 35.9565 15.5161 37.2903 15.5161V15.5161ZM36.4839 38.9032C36.4839 38.4581 36.8452 38.0968 37.2903 38.0968H48.5806C49.0258 38.0968 49.3871 38.4581 49.3871 38.9032V48.5806C49.3871 49.0258 49.0258 49.3871 48.5806 49.3871H37.2903C36.8452 49.3871 36.4839 49.0258 36.4839 48.5806V38.9032ZM36.4839 21.1613C36.4839 20.7169 36.8452 20.3548 37.2903 20.3548H48.5806C49.0258 20.3548 49.3871 20.7169 49.3871 21.1613V30.8387C49.3871 31.2839 49.0258 31.6452 48.5806 31.6452H37.2903C36.8452 31.6452 36.4839 31.2839 36.4839 30.8387V21.1613ZM19.4702 44.2355C19.5226 44.4968 19.5484 44.7629 19.5484 45.0274V45.3548C19.5484 47.5782 17.7395 49.3871 15.5161 49.3871C13.2927 49.3871 11.4839 47.5782 11.4839 45.3548V45.0274C11.4839 44.7629 11.5097 44.4968 11.5621 44.2371L13.7581 33.2581H17.2895L19.4702 44.2355ZM17.1831 31.6452H13.8484C13.7734 31.0298 13.6169 30.4274 13.3758 29.8565C14.0766 29.9605 14.7871 30.0323 15.5161 30.0323C16.2452 30.0323 16.9556 29.9605 17.6556 29.8565C17.4145 30.4274 17.2589 31.0298 17.1831 31.6452V31.6452ZM15.5161 28.4194C8.40161 28.4194 2.6129 22.6306 2.6129 15.5161C2.6129 8.40161 8.40161 2.6129 15.5161 2.6129C22.6306 2.6129 28.4194 8.40161 28.4194 15.5161C28.4194 22.6306 22.6306 28.4194 15.5161 28.4194ZM36.4839 3.41935C36.4839 2.975 36.8452 2.6129 37.2903 2.6129H48.5806C49.0258 2.6129 49.3871 2.975 49.3871 3.41935V13.0968C49.3871 13.5411 49.0258 13.9032 48.5806 13.9032H37.2903C36.8452 13.9032 36.4839 13.5411 36.4839 13.0968V3.41935Z" fill="#626262"/>
<path d="M37.2903 15.5161H48.5806C49.9145 15.5161 51 14.4306 51 13.0968V3.41935C51 2.08548 49.9145 1 48.5806 1H37.2903C35.9565 1 34.871 2.08548 34.871 3.41935V7.45161H31.3113L28.8903 9.87258C26.6839 4.66371 21.5194 1 15.5161 1C7.5121 1 1 7.5121 1 15.5161C1 22.0556 5.34919 27.5952 11.3056 29.4048L11.5798 29.8645C12.0323 30.625 12.2766 31.4919 12.2903 32.3742L9.98145 43.9202C9.90806 44.2855 9.87097 44.6573 9.87097 45.0274V45.3548C9.87097 48.4669 12.404 51 15.5161 51C18.6282 51 21.1613 48.4669 21.1613 45.3548V45.0274C21.1613 44.6573 21.1242 44.2855 21.0516 43.9202L18.7427 32.375C18.7565 31.4919 19.0008 30.6258 19.4532 29.8661L19.7274 29.4056C20.1411 29.2798 20.5452 29.1323 20.9427 28.971L31.2113 44.5484H34.871V48.5806C34.871 49.9145 35.9565 51 37.2903 51H48.5806C49.9145 51 51 49.9145 51 48.5806V38.9032C51 37.5694 49.9145 36.4839 48.5806 36.4839H37.2903C35.9565 36.4839 34.871 37.5694 34.871 38.9032V42.9355H32.079L22.421 28.2815C24.4339 27.1887 26.1556 25.629 27.4532 23.7548L30.5048 26.8065H34.871V30.8387C34.871 32.1726 35.9565 33.2581 37.2903 33.2581H48.5806C49.9145 33.2581 51 32.1726 51 30.8387V21.1613C51 19.8274 49.9145 18.7419 48.5806 18.7419H37.2903C35.9565 18.7419 34.871 19.8274 34.871 21.1613V25.1935H31.1726L28.3202 22.3411C29.4105 20.3048 30.0323 17.9823 30.0323 15.5161C30.0323 14.1468 29.829 12.8266 29.4726 11.5702L31.979 9.06452H34.871V13.0968C34.871 14.4306 35.9565 15.5161 37.2903 15.5161V15.5161ZM36.4839 38.9032C36.4839 38.4581 36.8452 38.0968 37.2903 38.0968H48.5806C49.0258 38.0968 49.3871 38.4581 49.3871 38.9032V48.5806C49.3871 49.0258 49.0258 49.3871 48.5806 49.3871H37.2903C36.8452 49.3871 36.4839 49.0258 36.4839 48.5806V38.9032ZM36.4839 21.1613C36.4839 20.7169 36.8452 20.3548 37.2903 20.3548H48.5806C49.0258 20.3548 49.3871 20.7169 49.3871 21.1613V30.8387C49.3871 31.2839 49.0258 31.6452 48.5806 31.6452H37.2903C36.8452 31.6452 36.4839 31.2839 36.4839 30.8387V21.1613ZM19.4702 44.2355C19.5226 44.4968 19.5484 44.7629 19.5484 45.0274V45.3548C19.5484 47.5782 17.7395 49.3871 15.5161 49.3871C13.2927 49.3871 11.4839 47.5782 11.4839 45.3548V45.0274C11.4839 44.7629 11.5097 44.4968 11.5621 44.2371L13.7581 33.2581H17.2895L19.4702 44.2355ZM17.1831 31.6452H13.8484C13.7734 31.0298 13.6169 30.4274 13.3758 29.8565C14.0766 29.9605 14.7871 30.0323 15.5161 30.0323C16.2452 30.0323 16.9556 29.9605 17.6556 29.8565C17.4145 30.4274 17.2589 31.0298 17.1831 31.6452V31.6452ZM15.5161 28.4194C8.40161 28.4194 2.6129 22.6306 2.6129 15.5161C2.6129 8.40161 8.40161 2.6129 15.5161 2.6129C22.6306 2.6129 28.4194 8.40161 28.4194 15.5161C28.4194 22.6306 22.6306 28.4194 15.5161 28.4194ZM36.4839 3.41935C36.4839 2.975 36.8452 2.6129 37.2903 2.6129H48.5806C49.0258 2.6129 49.3871 2.975 49.3871 3.41935V13.0968C49.3871 13.5411 49.0258 13.9032 48.5806 13.9032H37.2903C36.8452 13.9032 36.4839 13.5411 36.4839 13.0968V3.41935Z" stroke="#626262" stroke-width="0.4" mask="url(#path-14-outside-14)"/>
<mask id="path-15-outside-15" maskUnits="userSpaceOnUse" x="37.0968" y="3.22559" width="11" height="3" fill="black">
<rect fill="white" x="37.0968" y="3.22559" width="11" height="3"/>
<path d="M38.0968 4.22559H47.7742V5.83849H38.0968V4.22559Z"/>
</mask>
<path d="M38.0968 4.22559H47.7742V5.83849H38.0968V4.22559Z" fill="#626262"/>
<path d="M38.0968 4.22559H47.7742V5.83849H38.0968V4.22559Z" stroke="#626262" stroke-width="0.4" mask="url(#path-15-outside-15)"/>
<mask id="path-16-outside-16" maskUnits="userSpaceOnUse" x="37.0968" y="6.45166" width="3" height="3" fill="black">
<rect fill="white" x="37.0968" y="6.45166" width="3" height="3"/>
<path d="M38.0968 7.45166H39.7097V9.06456H38.0968V7.45166Z"/>
</mask>
<path d="M38.0968 7.45166H39.7097V9.06456H38.0968V7.45166Z" fill="#626262"/>
<path d="M38.0968 7.45166H39.7097V9.06456H38.0968V7.45166Z" stroke="#626262" stroke-width="0.4" mask="url(#path-16-outside-16)"/>
<mask id="path-17-outside-17" maskUnits="userSpaceOnUse" x="40.3226" y="6.45166" width="8" height="3" fill="black">
<rect fill="white" x="40.3226" y="6.45166" width="8" height="3"/>
<path d="M41.3226 7.45166H47.7742V9.06456H41.3226V7.45166Z"/>
</mask>
<path d="M41.3226 7.45166H47.7742V9.06456H41.3226V7.45166Z" fill="#626262"/>
<path d="M41.3226 7.45166H47.7742V9.06456H41.3226V7.45166Z" stroke="#626262" stroke-width="0.4" mask="url(#path-17-outside-17)"/>
<mask id="path-18-outside-18" maskUnits="userSpaceOnUse" x="37.0968" y="9.67725" width="11" height="3" fill="black">
<rect fill="white" x="37.0968" y="9.67725" width="11" height="3"/>
<path d="M38.0968 10.6772H47.7742V12.2901H38.0968V10.6772Z"/>
</mask>
<path d="M38.0968 10.6772H47.7742V12.2901H38.0968V10.6772Z" fill="#626262"/>
<path d="M38.0968 10.6772H47.7742V12.2901H38.0968V10.6772Z" stroke="#626262" stroke-width="0.4" mask="url(#path-18-outside-18)"/>
</svg>
