<svg width="50" height="50" viewBox="0 0 50 50" fill="none" xmlns="http://www.w3.org/2000/svg">
<path d="M38.0219 30.2079C38.0219 29.6326 37.5551 29.1657 36.9798 29.1657H32.7699C34.1035 27.6749 34.897 25.6287 34.897 22.9813V18.75H28.6469C28.6469 18.1747 28.1801 17.7078 27.6048 17.7078H25.5219V16.6656C26.0957 16.6656 26.5611 16.1987 26.5611 15.625C26.5611 15.0498 26.0957 14.5844 25.5219 14.5829V13.5407H35.9376C36.5129 13.5407 36.9798 13.0753 36.9798 12.5015V10.7986C38.1944 9.26968 39.0625 5.48245 39.0625 3.81926C39.0625 1.70899 37.6649 0 35.9376 0C34.2118 0 32.8126 1.70899 32.8126 3.81926C32.8126 5.48245 33.6823 9.26968 34.897 10.7986V11.4578H24.4782C23.9029 11.4578 23.436 11.9247 23.436 12.5C23.436 12.5106 23.4375 12.5198 23.4375 12.5304V14.5828C23.4375 14.5828 23.4375 14.5828 23.436 14.5828C22.8607 14.5828 22.3953 15.0497 22.3953 15.6249C22.3953 16.2002 22.8607 16.6655 23.436 16.6655C23.4375 16.6655 23.4375 16.6655 23.4375 16.6655V17.7077H21.3547C20.7795 17.7079 20.3125 18.1748 20.3125 18.75H14.0625V22.9813C14.0625 25.6287 14.8559 27.6749 16.1896 29.1657H11.9797C11.4044 29.1657 10.9375 29.6326 10.9375 30.2079C10.9375 30.7832 11.4045 31.2501 11.9798 31.2501V47.9156C11.4045 47.9156 10.9376 48.3825 10.9376 48.9578C10.9376 49.5331 11.4045 50 11.9798 50H36.9798C37.5551 50 38.0219 49.5331 38.0219 48.9578C38.0219 48.3825 37.5551 47.9156 36.9798 47.9156V31.2501C37.555 31.2501 38.0219 30.7832 38.0219 30.2079ZM35.9376 2.08292C36.2062 2.08292 36.4275 2.30568 36.5358 2.43693C36.8181 2.78332 36.9798 3.28684 36.9798 3.81936C36.9798 4.41907 36.7951 5.69622 36.3908 7.08168C36.2352 7.61264 36.0811 8.04604 35.9376 8.3939C35.7957 8.04604 35.6416 7.61264 35.486 7.08168C35.0816 5.69613 34.897 4.41897 34.897 3.81936C34.897 2.84123 35.457 2.08292 35.9376 2.08292ZM16.147 22.9813V20.8328H32.8126V22.9813C32.8126 25.3723 32.0466 27.2049 30.536 28.4257C30.1912 28.7049 29.8097 28.9506 29.3946 29.1657H19.5664C19.1498 28.9506 18.7684 28.705 18.4235 28.4257C16.9129 27.2049 16.147 25.3723 16.147 22.9813ZM34.897 47.9156H14.0626V41.6656H34.897V47.9156V47.9156ZM34.897 39.5828H14.0626V31.2501H34.897V39.5828V39.5828Z" fill="#626262"/>
<path d="M24.4797 43.75C23.9044 43.75 23.4375 44.2154 23.4375 44.7906C23.4375 45.3658 23.9044 45.8328 24.4797 45.8328C25.055 45.8328 25.5219 45.3659 25.5219 44.7906C25.5219 44.2153 25.0549 43.75 24.4797 43.75Z" fill="#626262"/>
<path d="M24.4781 32.291C21.0281 32.291 18.2297 33.6902 18.2297 35.416C18.2297 37.1418 21.0282 38.5409 24.4781 38.5409C27.9297 38.5409 30.7266 37.1418 30.7266 35.416C30.7266 33.6902 27.9296 32.291 24.4781 32.291ZM27.5376 35.9502C26.6862 36.2782 25.5997 36.4583 24.4782 36.4583C23.3567 36.4583 22.2703 36.2782 21.4189 35.9502C20.9229 35.7595 20.6147 35.558 20.4438 35.4161C20.6146 35.2741 20.9229 35.0742 21.4189 34.882C22.2703 34.5555 23.3567 34.3754 24.4782 34.3754C25.5998 34.3754 26.6862 34.5555 27.5376 34.882C28.0351 35.0743 28.3433 35.2742 28.5126 35.4161C28.3433 35.558 28.035 35.7595 27.5376 35.9502Z" fill="#626262"/>
</svg>
