<svg width="52" height="52" viewBox="0 0 52 52" fill="none" xmlns="http://www.w3.org/2000/svg">
<mask id="path-1-outside-1" maskUnits="userSpaceOnUse" x="0" y="0" width="52" height="52" fill="black">
<rect fill="white" width="52" height="52"/>
<path d="M50.264 45.8511H47.839V16.7307C47.839 16.6133 47.8109 16.4975 47.7571 16.3931C47.7032 16.2887 47.6252 16.1987 47.5294 16.1306L26.4265 1.13595C26.3018 1.04751 26.1528 1 26 1C25.8472 1 25.6982 1.04751 25.5735 1.13595L4.47055 16.1306C4.37483 16.1987 4.29679 16.2887 4.24294 16.3931C4.18909 16.4975 4.161 16.6133 4.16101 16.7307V45.8511H1.736C1.63933 45.851 1.5436 45.87 1.45428 45.907C1.36496 45.9439 1.2838 45.9982 1.21545 46.0665C1.14709 46.1349 1.09288 46.216 1.05591 46.3053C1.01894 46.3947 0.999945 46.4904 1 46.5871V50.2624C0.999945 50.3591 1.01894 50.4548 1.05591 50.5441C1.09288 50.6335 1.14709 50.7146 1.21545 50.783C1.2838 50.8513 1.36496 50.9055 1.45428 50.9425C1.5436 50.9795 1.63933 50.9985 1.736 50.9984H50.264C50.3607 50.9985 50.4564 50.9795 50.5457 50.9425C50.635 50.9055 50.7162 50.8513 50.7846 50.783C50.8529 50.7146 50.9071 50.6335 50.9441 50.5441C50.9811 50.4548 51.0001 50.3591 51 50.2624V46.5871C51.0001 46.4904 50.9811 46.3947 50.9441 46.3053C50.9071 46.216 50.8529 46.1349 50.7846 46.0665C50.7162 45.9982 50.635 45.9439 50.5457 45.907C50.4564 45.87 50.3607 45.851 50.264 45.8511V45.8511ZM5.63301 17.1105L26 2.63907L46.367 17.1105V45.8511H43.2628V21.3385C43.2628 21.2418 43.2438 21.1461 43.2068 21.0568C43.1699 20.9675 43.1157 20.8863 43.0473 20.8179C42.979 20.7496 42.8978 20.6954 42.8085 20.6584C42.7192 20.6214 42.6234 20.6024 42.5268 20.6025H9.47156C9.37489 20.6024 9.27916 20.6214 9.18984 20.6584C9.10052 20.6954 9.01936 20.7496 8.95101 20.8179C8.88265 20.8863 8.82844 20.9675 8.79147 21.0568C8.75451 21.1461 8.73551 21.2418 8.73556 21.3385V45.8511H5.63301V17.1105ZM36.2729 45.8511V37.0515C36.2729 36.8563 36.1953 36.669 36.0573 36.531C35.9193 36.393 35.7321 36.3155 35.5369 36.3155H31.5044V27.5142C31.5044 27.319 31.4269 27.1318 31.2889 26.9937C31.1508 26.8557 30.9636 26.7782 30.7684 26.7782H21.2316C21.0364 26.7782 20.8492 26.8557 20.7111 26.9937C20.5731 27.1318 20.4956 27.319 20.4956 27.5142V36.3155H16.4631C16.2679 36.3155 16.0807 36.393 15.9427 36.531C15.8047 36.669 15.7271 36.8563 15.7271 37.0515V45.8511H10.2092V22.0745H41.7908V45.8511H36.2729ZM17.1991 45.8511V40.7129H25.264V45.8511H17.1991ZM34.8009 39.2409H26.736V37.7875H34.8009V39.2409ZM30.0324 29.7041H21.9676V28.2506H30.0324V29.7041ZM21.9676 31.1761H30.0324V36.3155H21.9676V31.1761ZM25.264 37.7875V39.2409H17.1991V37.7875H25.264ZM26.736 40.7129H34.8009V45.8511H26.736V40.7129ZM49.528 49.5281H2.472V47.3231H49.528V49.5281Z"/>
</mask>
<path d="M50.264 45.8511H47.839V16.7307C47.839 16.6133 47.8109 16.4975 47.7571 16.3931C47.7032 16.2887 47.6252 16.1987 47.5294 16.1306L26.4265 1.13595C26.3018 1.04751 26.1528 1 26 1C25.8472 1 25.6982 1.04751 25.5735 1.13595L4.47055 16.1306C4.37483 16.1987 4.29679 16.2887 4.24294 16.3931C4.18909 16.4975 4.161 16.6133 4.16101 16.7307V45.8511H1.736C1.63933 45.851 1.5436 45.87 1.45428 45.907C1.36496 45.9439 1.2838 45.9982 1.21545 46.0665C1.14709 46.1349 1.09288 46.216 1.05591 46.3053C1.01894 46.3947 0.999945 46.4904 1 46.5871V50.2624C0.999945 50.3591 1.01894 50.4548 1.05591 50.5441C1.09288 50.6335 1.14709 50.7146 1.21545 50.783C1.2838 50.8513 1.36496 50.9055 1.45428 50.9425C1.5436 50.9795 1.63933 50.9985 1.736 50.9984H50.264C50.3607 50.9985 50.4564 50.9795 50.5457 50.9425C50.635 50.9055 50.7162 50.8513 50.7846 50.783C50.8529 50.7146 50.9071 50.6335 50.9441 50.5441C50.9811 50.4548 51.0001 50.3591 51 50.2624V46.5871C51.0001 46.4904 50.9811 46.3947 50.9441 46.3053C50.9071 46.216 50.8529 46.1349 50.7846 46.0665C50.7162 45.9982 50.635 45.9439 50.5457 45.907C50.4564 45.87 50.3607 45.851 50.264 45.8511V45.8511ZM5.63301 17.1105L26 2.63907L46.367 17.1105V45.8511H43.2628V21.3385C43.2628 21.2418 43.2438 21.1461 43.2068 21.0568C43.1699 20.9675 43.1157 20.8863 43.0473 20.8179C42.979 20.7496 42.8978 20.6954 42.8085 20.6584C42.7192 20.6214 42.6234 20.6024 42.5268 20.6025H9.47156C9.37489 20.6024 9.27916 20.6214 9.18984 20.6584C9.10052 20.6954 9.01936 20.7496 8.95101 20.8179C8.88265 20.8863 8.82844 20.9675 8.79147 21.0568C8.75451 21.1461 8.73551 21.2418 8.73556 21.3385V45.8511H5.63301V17.1105ZM36.2729 45.8511V37.0515C36.2729 36.8563 36.1953 36.669 36.0573 36.531C35.9193 36.393 35.7321 36.3155 35.5369 36.3155H31.5044V27.5142C31.5044 27.319 31.4269 27.1318 31.2889 26.9937C31.1508 26.8557 30.9636 26.7782 30.7684 26.7782H21.2316C21.0364 26.7782 20.8492 26.8557 20.7111 26.9937C20.5731 27.1318 20.4956 27.319 20.4956 27.5142V36.3155H16.4631C16.2679 36.3155 16.0807 36.393 15.9427 36.531C15.8047 36.669 15.7271 36.8563 15.7271 37.0515V45.8511H10.2092V22.0745H41.7908V45.8511H36.2729ZM17.1991 45.8511V40.7129H25.264V45.8511H17.1991ZM34.8009 39.2409H26.736V37.7875H34.8009V39.2409ZM30.0324 29.7041H21.9676V28.2506H30.0324V29.7041ZM21.9676 31.1761H30.0324V36.3155H21.9676V31.1761ZM25.264 37.7875V39.2409H17.1991V37.7875H25.264ZM26.736 40.7129H34.8009V45.8511H26.736V40.7129ZM49.528 49.5281H2.472V47.3231H49.528V49.5281Z" fill="#626262"/>
<path d="M50.264 45.8511H47.839V16.7307C47.839 16.6133 47.8109 16.4975 47.7571 16.3931C47.7032 16.2887 47.6252 16.1987 47.5294 16.1306L26.4265 1.13595C26.3018 1.04751 26.1528 1 26 1C25.8472 1 25.6982 1.04751 25.5735 1.13595L4.47055 16.1306C4.37483 16.1987 4.29679 16.2887 4.24294 16.3931C4.18909 16.4975 4.161 16.6133 4.16101 16.7307V45.8511H1.736C1.63933 45.851 1.5436 45.87 1.45428 45.907C1.36496 45.9439 1.2838 45.9982 1.21545 46.0665C1.14709 46.1349 1.09288 46.216 1.05591 46.3053C1.01894 46.3947 0.999945 46.4904 1 46.5871V50.2624C0.999945 50.3591 1.01894 50.4548 1.05591 50.5441C1.09288 50.6335 1.14709 50.7146 1.21545 50.783C1.2838 50.8513 1.36496 50.9055 1.45428 50.9425C1.5436 50.9795 1.63933 50.9985 1.736 50.9984H50.264C50.3607 50.9985 50.4564 50.9795 50.5457 50.9425C50.635 50.9055 50.7162 50.8513 50.7846 50.783C50.8529 50.7146 50.9071 50.6335 50.9441 50.5441C50.9811 50.4548 51.0001 50.3591 51 50.2624V46.5871C51.0001 46.4904 50.9811 46.3947 50.9441 46.3053C50.9071 46.216 50.8529 46.1349 50.7846 46.0665C50.7162 45.9982 50.635 45.9439 50.5457 45.907C50.4564 45.87 50.3607 45.851 50.264 45.8511V45.8511ZM5.63301 17.1105L26 2.63907L46.367 17.1105V45.8511H43.2628V21.3385C43.2628 21.2418 43.2438 21.1461 43.2068 21.0568C43.1699 20.9675 43.1157 20.8863 43.0473 20.8179C42.979 20.7496 42.8978 20.6954 42.8085 20.6584C42.7192 20.6214 42.6234 20.6024 42.5268 20.6025H9.47156C9.37489 20.6024 9.27916 20.6214 9.18984 20.6584C9.10052 20.6954 9.01936 20.7496 8.95101 20.8179C8.88265 20.8863 8.82844 20.9675 8.79147 21.0568C8.75451 21.1461 8.73551 21.2418 8.73556 21.3385V45.8511H5.63301V17.1105ZM36.2729 45.8511V37.0515C36.2729 36.8563 36.1953 36.669 36.0573 36.531C35.9193 36.393 35.7321 36.3155 35.5369 36.3155H31.5044V27.5142C31.5044 27.319 31.4269 27.1318 31.2889 26.9937C31.1508 26.8557 30.9636 26.7782 30.7684 26.7782H21.2316C21.0364 26.7782 20.8492 26.8557 20.7111 26.9937C20.5731 27.1318 20.4956 27.319 20.4956 27.5142V36.3155H16.4631C16.2679 36.3155 16.0807 36.393 15.9427 36.531C15.8047 36.669 15.7271 36.8563 15.7271 37.0515V45.8511H10.2092V22.0745H41.7908V45.8511H36.2729ZM17.1991 45.8511V40.7129H25.264V45.8511H17.1991ZM34.8009 39.2409H26.736V37.7875H34.8009V39.2409ZM30.0324 29.7041H21.9676V28.2506H30.0324V29.7041ZM21.9676 31.1761H30.0324V36.3155H21.9676V31.1761ZM25.264 37.7875V39.2409H17.1991V37.7875H25.264ZM26.736 40.7129H34.8009V45.8511H26.736V40.7129ZM49.528 49.5281H2.472V47.3231H49.528V49.5281Z" stroke="#626262" stroke-width="0.6" mask="url(#path-1-outside-1)"/>
<mask id="path-2-outside-2" maskUnits="userSpaceOnUse" x="21.397" y="13.5483" width="9" height="6" fill="black">
<rect fill="white" x="21.397" y="13.5483" width="9" height="6"/>
<path d="M23.133 18.9126H28.867C29.0622 18.9126 29.2494 18.8351 29.3875 18.697C29.5255 18.559 29.603 18.3718 29.603 18.1766V15.2843C29.6029 15.0892 29.5253 14.902 29.3873 14.764C29.2493 14.626 29.0622 14.5485 28.867 14.5483H23.133C22.9378 14.5485 22.7507 14.626 22.6127 14.764C22.4747 14.902 22.3971 15.0892 22.397 15.2843V18.1774C22.3972 18.3725 22.4748 18.5595 22.6128 18.6973C22.7508 18.8352 22.9379 18.9126 23.133 18.9126V18.9126ZM23.869 16.0203H28.131V17.4406H23.869V16.0203Z"/>
</mask>
<path d="M23.133 18.9126H28.867C29.0622 18.9126 29.2494 18.8351 29.3875 18.697C29.5255 18.559 29.603 18.3718 29.603 18.1766V15.2843C29.6029 15.0892 29.5253 14.902 29.3873 14.764C29.2493 14.626 29.0622 14.5485 28.867 14.5483H23.133C22.9378 14.5485 22.7507 14.626 22.6127 14.764C22.4747 14.902 22.3971 15.0892 22.397 15.2843V18.1774C22.3972 18.3725 22.4748 18.5595 22.6128 18.6973C22.7508 18.8352 22.9379 18.9126 23.133 18.9126V18.9126ZM23.869 16.0203H28.131V17.4406H23.869V16.0203Z" fill="#626262"/>
<path d="M23.133 18.9126H28.867C29.0622 18.9126 29.2494 18.8351 29.3875 18.697C29.5255 18.559 29.603 18.3718 29.603 18.1766V15.2843C29.6029 15.0892 29.5253 14.902 29.3873 14.764C29.2493 14.626 29.0622 14.5485 28.867 14.5483H23.133C22.9378 14.5485 22.7507 14.626 22.6127 14.764C22.4747 14.902 22.3971 15.0892 22.397 15.2843V18.1774C22.3972 18.3725 22.4748 18.5595 22.6128 18.6973C22.7508 18.8352 22.9379 18.9126 23.133 18.9126V18.9126ZM23.869 16.0203H28.131V17.4406H23.869V16.0203Z" stroke="#626262" stroke-width="0.6" mask="url(#path-2-outside-2)"/>
<mask id="path-3-outside-3" maskUnits="userSpaceOnUse" x="30.1806" y="13.5483" width="9" height="6" fill="black">
<rect fill="white" x="30.1806" y="13.5483" width="9" height="6"/>
<path d="M31.9166 18.9126H37.6498C37.845 18.9126 38.0322 18.8351 38.1703 18.697C38.3083 18.559 38.3858 18.3718 38.3858 18.1766V15.2843C38.3857 15.0892 38.3081 14.902 38.1701 14.764C38.0321 14.626 37.845 14.5485 37.6498 14.5483H31.9166C31.7214 14.5485 31.5343 14.626 31.3963 14.764C31.2583 14.902 31.1807 15.0892 31.1806 15.2843V18.1774C31.1808 18.3725 31.2585 18.5595 31.3965 18.6973C31.5345 18.8352 31.7215 18.9126 31.9166 18.9126V18.9126ZM32.6526 16.0203H36.9142V17.4406H32.6526V16.0203Z"/>
</mask>
<path d="M31.9166 18.9126H37.6498C37.845 18.9126 38.0322 18.8351 38.1703 18.697C38.3083 18.559 38.3858 18.3718 38.3858 18.1766V15.2843C38.3857 15.0892 38.3081 14.902 38.1701 14.764C38.0321 14.626 37.845 14.5485 37.6498 14.5483H31.9166C31.7214 14.5485 31.5343 14.626 31.3963 14.764C31.2583 14.902 31.1807 15.0892 31.1806 15.2843V18.1774C31.1808 18.3725 31.2585 18.5595 31.3965 18.6973C31.5345 18.8352 31.7215 18.9126 31.9166 18.9126V18.9126ZM32.6526 16.0203H36.9142V17.4406H32.6526V16.0203Z" fill="#626262"/>
<path d="M31.9166 18.9126H37.6498C37.845 18.9126 38.0322 18.8351 38.1703 18.697C38.3083 18.559 38.3858 18.3718 38.3858 18.1766V15.2843C38.3857 15.0892 38.3081 14.902 38.1701 14.764C38.0321 14.626 37.845 14.5485 37.6498 14.5483H31.9166C31.7214 14.5485 31.5343 14.626 31.3963 14.764C31.2583 14.902 31.1807 15.0892 31.1806 15.2843V18.1774C31.1808 18.3725 31.2585 18.5595 31.3965 18.6973C31.5345 18.8352 31.7215 18.9126 31.9166 18.9126V18.9126ZM32.6526 16.0203H36.9142V17.4406H32.6526V16.0203Z" stroke="#626262" stroke-width="0.6" mask="url(#path-3-outside-3)"/>
<mask id="path-4-outside-4" maskUnits="userSpaceOnUse" x="12.6142" y="13.5483" width="9" height="6" fill="black">
<rect fill="white" x="12.6142" y="13.5483" width="9" height="6"/>
<path d="M14.3502 18.9126H20.0834C20.2786 18.9126 20.4658 18.8351 20.6039 18.697C20.7419 18.559 20.8194 18.3718 20.8194 18.1766V15.2843C20.8193 15.0892 20.7417 14.902 20.6037 14.764C20.4657 14.626 20.2786 14.5485 20.0834 14.5483H14.3502C14.155 14.5485 13.9679 14.626 13.8299 14.764C13.6919 14.902 13.6143 15.0892 13.6142 15.2843V18.1774C13.6144 18.3725 13.6921 18.5595 13.8301 18.6973C13.9681 18.8352 14.1551 18.9126 14.3502 18.9126V18.9126ZM15.0862 16.0203H19.3474V17.4406H15.0858L15.0862 16.0203Z"/>
</mask>
<path d="M14.3502 18.9126H20.0834C20.2786 18.9126 20.4658 18.8351 20.6039 18.697C20.7419 18.559 20.8194 18.3718 20.8194 18.1766V15.2843C20.8193 15.0892 20.7417 14.902 20.6037 14.764C20.4657 14.626 20.2786 14.5485 20.0834 14.5483H14.3502C14.155 14.5485 13.9679 14.626 13.8299 14.764C13.6919 14.902 13.6143 15.0892 13.6142 15.2843V18.1774C13.6144 18.3725 13.6921 18.5595 13.8301 18.6973C13.9681 18.8352 14.1551 18.9126 14.3502 18.9126V18.9126ZM15.0862 16.0203H19.3474V17.4406H15.0858L15.0862 16.0203Z" fill="#626262"/>
<path d="M14.3502 18.9126H20.0834C20.2786 18.9126 20.4658 18.8351 20.6039 18.697C20.7419 18.559 20.8194 18.3718 20.8194 18.1766V15.2843C20.8193 15.0892 20.7417 14.902 20.6037 14.764C20.4657 14.626 20.2786 14.5485 20.0834 14.5483H14.3502C14.155 14.5485 13.9679 14.626 13.8299 14.764C13.6919 14.902 13.6143 15.0892 13.6142 15.2843V18.1774C13.6144 18.3725 13.6921 18.5595 13.8301 18.6973C13.9681 18.8352 14.1551 18.9126 14.3502 18.9126V18.9126ZM15.0862 16.0203H19.3474V17.4406H15.0858L15.0862 16.0203Z" stroke="#626262" stroke-width="0.6" mask="url(#path-4-outside-4)"/>
</svg>
