<svg width="61" height="59" viewBox="0 0 61 59" fill="none" xmlns="http://www.w3.org/2000/svg">
<path d="M46.7403 8.6578C46.7669 8.65973 46.7934 8.66166 46.8204 8.66166C46.8663 8.66166 46.9121 8.6578 46.957 8.65153C48.1581 8.67614 49.1194 9.65574 49.1208 10.8568C49.1208 11.4026 49.5633 11.8451 50.1091 11.8451C50.6549 11.8451 51.0974 11.4026 51.0974 10.8568C51.095 8.89233 49.7274 7.19274 47.8087 6.77001V5.82032C47.8087 5.27454 47.3662 4.83203 46.8204 4.83203C46.2747 4.83203 45.8322 5.27454 45.8322 5.82032V6.81489C43.8035 7.35729 42.4909 9.31988 42.7645 11.4021C43.0381 13.4844 44.813 15.0412 46.9131 15.0412C48.1325 15.0412 49.1208 16.0299 49.1208 17.2494C49.1208 18.4683 48.1325 19.4571 46.9131 19.4571C45.6937 19.4571 44.7054 18.4683 44.7054 17.2494C44.7054 16.7036 44.2629 16.2611 43.7171 16.2611C43.1713 16.2611 42.7288 16.7036 42.7288 17.2494C42.7312 19.143 44.0032 20.7996 45.8322 21.2913V22.3742C45.8322 22.92 46.2747 23.3625 46.8204 23.3625C47.3662 23.3625 47.8087 22.92 47.8087 22.3742V21.3367C49.8958 20.8797 51.3035 18.9234 51.0733 16.7991C50.8436 14.6749 49.0499 13.0651 46.9131 13.0655C45.7274 13.066 44.7531 12.1299 44.7063 10.9452C44.66 9.76046 45.5581 8.75045 46.7403 8.65828V8.6578Z" fill="#FAA61B"/>
<path d="M46.9694 0C40.8896 0 35.7011 3.96716 33.7573 9.27923H9.22808C8.68471 9.27923 8.24365 9.76903 8.23979 10.3119L8.00623 44.9813H1.01435C0.46857 44.9813 0 45.3765 0 45.9232V50.3228C0.0125466 54.4646 3.27468 57.8672 7.41219 58.0544V58.0761H37.9257V58.0472C38.1728 58.0564 38.2746 58.0761 38.4309 58.0761H38.4522C42.7345 58.0694 46.2026 54.5959 46.2026 50.3136V28.0693C46.4497 28.0828 46.7113 28.0901 46.967 28.0901C54.704 28.0901 61 21.782 61 14.0446C61 6.3076 54.7069 0 46.9694 0ZM7.78811 56.0996H7.78183C4.58484 56.0952 1.99106 53.5101 1.97658 50.3126V46.9579H30.637V50.2987C30.6385 52.3611 31.4622 54.3382 32.9254 55.7922C33.0291 55.8959 33.158 55.976 33.2665 56.0996H7.78811ZM44.2261 50.3126C44.2265 53.5043 41.6424 56.0933 38.4512 56.0996H38.4324C35.2282 56.0938 32.6296 53.5034 32.6136 50.2996V45.9232C32.6218 45.6704 32.5253 45.4257 32.3463 45.2472C32.1673 45.0686 31.9226 44.9726 31.6702 44.9813H9.98281L10.2096 11.2558H33.2086C33.0335 12.1606 32.9427 13.0794 32.9379 14.0006C32.936 15.9488 33.3423 17.8752 34.1308 19.6563H24.7961C24.2498 19.6563 23.8078 20.0988 23.8078 20.6446C23.8078 21.1904 24.2498 21.6329 24.7961 21.6329H35.2031C37.2419 24.839 40.5011 27.0743 44.2261 27.8223V50.3126ZM46.9694 26.114C40.312 26.114 34.9145 20.717 34.915 14.059C34.915 7.40109 40.312 2.00409 46.9699 2.00409C53.6274 2.00409 59.0244 7.40157 59.0244 14.059C59.0171 20.7136 53.6245 26.1067 46.9694 26.114Z" fill="#FAA61B"/>
<path d="M18.4523 26.2339C16.7078 26.2339 15.2891 27.6077 15.2891 29.2967C15.2891 30.9857 16.7078 32.3596 18.4523 32.3596C20.1967 32.3596 21.616 30.9857 21.616 29.2967C21.616 27.6077 20.1967 26.2339 18.4523 26.2339ZM18.4523 30.383C17.7974 30.383 17.2656 29.8956 17.2656 29.2967C17.2656 28.6974 17.7979 28.2105 18.4523 28.2105C19.1066 28.2105 19.6394 28.6979 19.6394 29.2967C19.6394 29.8956 19.1066 30.383 18.4523 30.383Z" fill="#FAA61B"/>
<path d="M23.8079 29.292C23.8079 29.8378 24.2499 30.2803 24.7962 30.2803H37.9721C38.5179 30.2803 38.9604 29.8378 38.9604 29.292C38.9604 28.7462 38.5179 28.3037 37.9721 28.3037H24.7962C24.2499 28.3037 23.8079 28.7462 23.8079 29.292Z" fill="#FAA61B"/>
<path d="M18.4523 17.6426C16.7078 17.6426 15.2891 19.0169 15.2891 20.7059C15.2891 22.3949 16.7078 23.7687 18.4523 23.7687C20.1967 23.7687 21.616 22.3949 21.616 20.7059C21.616 19.0169 20.1967 17.6426 18.4523 17.6426ZM18.4523 21.7921C17.7974 21.7921 17.2656 21.3048 17.2656 20.7059C17.2656 20.107 17.7979 19.6192 18.4523 19.6192C19.1066 19.6192 19.6394 20.1066 19.6394 20.7059C19.6394 21.3048 19.1066 21.7926 18.4523 21.7926V21.7921Z" fill="#FAA61B"/>
<path d="M18.4523 34.8237C16.7078 34.8237 15.2891 36.1976 15.2891 37.8866C15.2891 39.5755 16.7078 40.9494 18.4523 40.9494C20.1967 40.9494 21.616 39.5755 21.616 37.8866C21.616 36.1976 20.1967 34.8237 18.4523 34.8237ZM18.4523 38.9728C17.7974 38.9728 17.2656 38.4859 17.2656 37.8866C17.2656 37.2877 17.7979 36.8003 18.4523 36.8003C19.1066 36.8003 19.6394 37.2877 19.6394 37.8866C19.6394 38.4854 19.1066 38.9728 18.4523 38.9728Z" fill="#FAA61B"/>
<path d="M37.9721 36.9512H24.7962C24.2499 36.9512 23.8079 37.3937 23.8079 37.9395C23.8079 38.4852 24.2499 38.9278 24.7962 38.9278H37.9721C38.5179 38.9278 38.9604 38.4852 38.9604 37.9395C38.9604 37.3937 38.5179 36.9512 37.9721 36.9512Z" fill="#FAA61B"/>
</svg>
