<svg width="35" height="35" viewBox="0 0 35 35" fill="none" xmlns="http://www.w3.org/2000/svg">
<path d="M17.5 0C7.82783 0 0 7.82715 0 17.5C0 27.1722 7.82715 35 17.5 35C27.1722 35 35 27.1729 35 17.5C35 7.82783 27.1729 0 17.5 0ZM16.6603 21.6971L12.6872 25.6709C12.2384 26.1189 11.6424 26.3659 11.0085 26.3659C9.69623 26.3659 8.63406 25.3045 8.63406 23.9915C8.63406 23.3575 8.88098 22.7616 9.329 22.3128L13.3029 18.3397C13.7667 17.8759 13.7667 17.124 13.3029 16.6602L9.329 12.6871C8.88105 12.2383 8.63406 11.6424 8.63406 11.0084C8.63406 9.69616 9.69541 8.63399 11.0085 8.63399C11.6424 8.63399 12.2384 8.88098 12.6872 9.32894L16.6603 13.3028C17.1241 13.7658 17.876 13.7658 18.3397 13.3028L22.3128 9.32894C22.7616 8.88098 23.3576 8.63399 23.9915 8.63399C25.3038 8.63399 26.3659 9.69534 26.3659 11.0084C26.3659 11.6424 26.119 12.2383 25.671 12.6871L21.6971 16.6602C21.2333 17.124 21.2333 17.8758 21.6971 18.3397L25.671 22.3128C26.119 22.7616 26.3659 23.3575 26.3659 23.9915C26.3659 25.3037 25.3046 26.3659 23.9915 26.3659C23.3576 26.3659 22.7616 26.1189 22.3128 25.6709L18.3397 21.6971C17.876 21.2333 17.124 21.2341 16.6603 21.6971Z" fill="#FF4C67"/>
</svg>
