<svg width="50" height="50" viewBox="0 0 50 50" fill="none" xmlns="http://www.w3.org/2000/svg">
<path d="M19.1667 30C14.5642 30 10.8333 33.7309 10.8333 38.3333C10.8333 42.9358 14.5642 46.6667 19.1667 46.6667C23.7691 46.6667 27.5 42.9358 27.5 38.3333C27.4951 33.7329 23.7671 30.0049 19.1667 30ZM19.1667 45C15.4846 45 12.5 42.0154 12.5 38.3333C12.5 34.6513 15.4846 31.6667 19.1667 31.6667C22.8487 31.6667 25.8333 34.6513 25.8333 38.3333C25.8293 42.0133 22.8467 44.9959 19.1667 45Z" fill="#626262"/>
<path d="M19.1667 35.8335C20.1843 35.8335 20.8333 36.3267 20.8333 36.6668H22.5C22.5 35.4827 21.451 34.5237 20 34.2502V33.3335H18.3333V34.2502C16.8823 34.5216 15.8333 35.4811 15.8333 36.6668C15.8333 38.0694 17.2974 39.1668 19.1667 39.1668C20.1843 39.1668 20.8333 39.66 20.8333 40.0002C20.8333 40.3403 20.1843 40.8335 19.1667 40.8335C18.149 40.8335 17.5 40.3403 17.5 40.0002H15.8333C15.8333 41.1842 16.8823 42.1433 18.3333 42.4167V43.3335H20V42.4167C21.451 42.1453 22.5 41.1859 22.5 40.0002C22.5 38.5976 21.036 37.5002 19.1667 37.5002C18.149 37.5002 17.5 37.007 17.5 36.6668C17.5 36.3267 18.149 35.8335 19.1667 35.8335Z" fill="#626262"/>
<path d="M42.5 48.3333H7.5V28.3333H20.8333C22.2139 28.3333 23.3333 27.2139 23.3333 25.8333V5H32.5V15H42.5V26.6667H44.1667V13.8216L33.6784 3.33333H23.3333V2.5C23.3333 1.11938 22.2139 0 20.8333 0H2.5C1.11938 0 0 1.11938 0 2.5V25.8333C0 27.2139 1.11938 28.3333 2.5 28.3333H5.83333V50H44.1667V38.3333H42.5V48.3333ZM34.1667 6.17839L41.3216 13.3333H34.1667V6.17839ZM1.66667 25.8333V2.5C1.66667 2.03979 2.03979 1.66667 2.5 1.66667H20.8333C21.2935 1.66667 21.6667 2.03979 21.6667 2.5V25.8333C21.6667 26.2935 21.2935 26.6667 20.8333 26.6667H2.5C2.03979 26.6667 1.66667 26.2935 1.66667 25.8333Z" fill="#626262"/>
<path d="M26.6667 20.8335H28.3333V22.5002H26.6667V20.8335Z" fill="#626262"/>
<path d="M30 20.8335H40V22.5002H30V20.8335Z" fill="#626262"/>
<path d="M26.6667 17.5H28.3333V19.1667H26.6667V17.5Z" fill="#626262"/>
<path d="M30 17.5H40V19.1667H30V17.5Z" fill="#626262"/>
<path d="M26.6667 24.1665H28.3333V25.8332H26.6667V24.1665Z" fill="#626262"/>
<path d="M30 24.1665H40V25.8332H30V24.1665Z" fill="#626262"/>
<path d="M26.6667 27.5H28.3333V29.1667H26.6667V27.5Z" fill="#626262"/>
<path d="M30 27.5H40V29.1667H30V27.5Z" fill="#626262"/>
<path d="M20.8333 2.5H2.5V8.33333H20.8333V2.5ZM19.1667 6.66667H4.16667V4.16667H19.1667V6.66667Z" fill="#626262"/>
<path d="M6.66668 9.1665H5.00001C4.0796 9.1665 3.33334 9.91276 3.33334 10.8332V12.4998C3.33334 13.4202 4.0796 14.1665 5.00001 14.1665H6.66668C7.58709 14.1665 8.33334 13.4202 8.33334 12.4998V10.8332C8.33334 9.91276 7.58709 9.1665 6.66668 9.1665ZM5.00001 12.4998V10.8332H6.66668V12.4998H5.00001Z" fill="#626262"/>
<path d="M12.5 9.1665H10.8333C9.91291 9.1665 9.16666 9.91276 9.16666 10.8332V12.4998C9.16666 13.4202 9.91291 14.1665 10.8333 14.1665H12.5C13.4204 14.1665 14.1667 13.4202 14.1667 12.4998V10.8332C14.1667 9.91276 13.4204 9.1665 12.5 9.1665ZM10.8333 12.4998V10.8332H12.5V12.4998H10.8333Z" fill="#626262"/>
<path d="M18.3333 9.1665H16.6667C15.7463 9.1665 15 9.91276 15 10.8332V12.4998C15 13.4202 15.7463 14.1665 16.6667 14.1665H18.3333C19.2537 14.1665 20 13.4202 20 12.4998V10.8332C20 9.91276 19.2537 9.1665 18.3333 9.1665ZM16.6667 12.4998V10.8332H18.3333V12.4998H16.6667Z" fill="#626262"/>
<path d="M6.66668 15H5.00001C4.0796 15 3.33334 15.7463 3.33334 16.6667V18.3333C3.33334 19.2537 4.0796 20 5.00001 20H6.66668C7.58709 20 8.33334 19.2537 8.33334 18.3333V16.6667C8.33334 15.7463 7.58709 15 6.66668 15ZM5.00001 18.3333V16.6667H6.66668V18.3333H5.00001Z" fill="#626262"/>
<path d="M12.5 15H10.8333C9.91291 15 9.16666 15.7463 9.16666 16.6667V18.3333C9.16666 19.2537 9.91291 20 10.8333 20H12.5C13.4204 20 14.1667 19.2537 14.1667 18.3333V16.6667C14.1667 15.7463 13.4204 15 12.5 15ZM10.8333 18.3333V16.6667H12.5V18.3333H10.8333Z" fill="#626262"/>
<path d="M18.3333 15H16.6667C15.7463 15 15 15.7463 15 16.6667V18.3333C15 19.2537 15.7463 20 16.6667 20H18.3333C19.2537 20 20 19.2537 20 18.3333V16.6667C20 15.7463 19.2537 15 18.3333 15ZM16.6667 18.3333V16.6667H18.3333V18.3333H16.6667Z" fill="#626262"/>
<path d="M6.66668 20.8335H5.00001C4.0796 20.8335 3.33334 21.5798 3.33334 22.5002V24.1668C3.33334 25.0872 4.0796 25.8335 5.00001 25.8335H6.66668C7.58709 25.8335 8.33334 25.0872 8.33334 24.1668V22.5002C8.33334 21.5798 7.58709 20.8335 6.66668 20.8335ZM5.00001 24.1668V22.5002H6.66668V24.1668H5.00001Z" fill="#626262"/>
<path d="M12.5 20.8335H10.8333C9.91291 20.8335 9.16666 21.5798 9.16666 22.5002V24.1668C9.16666 25.0872 9.91291 25.8335 10.8333 25.8335H12.5C13.4204 25.8335 14.1667 25.0872 14.1667 24.1668V22.5002C14.1667 21.5798 13.4204 20.8335 12.5 20.8335ZM10.8333 24.1668V22.5002H12.5V24.1668H10.8333Z" fill="#626262"/>
<path d="M18.3333 20.8335H16.6667C15.7463 20.8335 15 21.5798 15 22.5002V24.1668C15 25.0872 15.7463 25.8335 16.6667 25.8335H18.3333C19.2537 25.8335 20 25.0872 20 24.1668V22.5002C20 21.5798 19.2537 20.8335 18.3333 20.8335ZM16.6667 24.1668V22.5002H18.3333V24.1668H16.6667Z" fill="#626262"/>
<path d="M49.2432 26.5901C48.254 25.6457 46.6976 25.6457 45.7084 26.5901L31.4226 40.8756C31.3534 40.9456 31.2968 41.027 31.2557 41.1165L29.244 45.485C29.0987 45.8016 29.1659 46.1755 29.4125 46.4217C29.6586 46.6683 30.0326 46.7354 30.3491 46.5901L34.7176 44.5784C34.8072 44.5373 34.8885 44.4812 34.9585 44.4116L49.2432 30.1257C50.2198 29.1496 50.2198 27.5663 49.2432 26.5901V26.5901ZM33.8843 43.1266L31.7009 44.1325L32.7067 41.949L43.3582 31.2968L44.5366 32.4752L33.8843 43.1266ZM45.7174 31.2931L44.539 30.1151L45.1225 29.5316L46.3009 30.71L45.7174 31.2931ZM48.0677 28.9433L47.4785 29.5325L46.3001 28.3541L46.8901 27.7649C47.2193 27.4499 47.7381 27.4499 48.0677 27.7649C48.3928 28.0904 48.3928 28.6177 48.0677 28.9433Z" fill="#626262"/>
</svg>
