<svg width="52" height="52" viewBox="0 0 52 52" fill="none" xmlns="http://www.w3.org/2000/svg">
<mask id="path-1-outside-1" maskUnits="userSpaceOnUse" x="0" y="0" width="52" height="52" fill="black">
<rect fill="white" width="52" height="52"/>
<path d="M46.1613 39.7742V37.2903C46.1613 36.8452 45.8008 36.4839 45.3548 36.4839H39.7097V33.2024C42.8871 32.8032 45.3548 30.0903 45.3548 26.8065C45.3548 23.5226 42.8871 20.8097 39.7097 20.4105V17.9355C39.7097 17.4903 39.3492 17.129 38.9032 17.129H26.8065V13.8476C29.9839 13.4484 32.4516 10.7355 32.4516 7.45161C32.4516 3.89436 29.5573 1 26 1C22.4427 1 19.5484 3.89436 19.5484 7.45161C19.5484 10.7355 22.0161 13.4484 25.1935 13.8476V17.129H13.0968C12.6508 17.129 12.2903 17.4903 12.2903 17.9355V20.4105C9.1129 20.8097 6.64516 23.5226 6.64516 26.8065C6.64516 30.0903 9.1129 32.8032 12.2903 33.2024V36.4839H6.64516C6.19919 36.4839 5.83871 36.8452 5.83871 37.2903V39.7742C3.10806 40.1677 1 42.5169 1 45.3548C1 48.4677 3.53306 51 6.64516 51C9.75726 51 12.2903 48.4677 12.2903 45.3548C12.2903 42.5169 10.1823 40.1677 7.45161 39.7742V38.0968H18.7419V39.7742C16.0113 40.1677 13.9032 42.5169 13.9032 45.3548C13.9032 48.4677 16.4363 51 19.5484 51C22.6605 51 25.1935 48.4677 25.1935 45.3548C25.1935 42.5169 23.0855 40.1677 20.3548 39.7742V37.2903C20.3548 36.8452 19.9944 36.4839 19.5484 36.4839H13.9032V33.2024C17.0806 32.8032 19.5484 30.0903 19.5484 26.8065C19.5484 23.5226 17.0806 20.8097 13.9032 20.4105V18.7419H38.0968V20.4105C34.9194 20.8097 32.4516 23.5226 32.4516 26.8065C32.4516 30.0903 34.9194 32.8032 38.0968 33.2024V36.4839H32.4516C32.0056 36.4839 31.6452 36.8452 31.6452 37.2903V39.7742C28.9145 40.1677 26.8065 42.5169 26.8065 45.3548C26.8065 48.4677 29.3395 51 32.4516 51C35.5637 51 38.0968 48.4677 38.0968 45.3548C38.0968 42.5169 35.9887 40.1677 33.2581 39.7742V38.0968H44.5484V39.7742C41.8177 40.1677 39.7097 42.5169 39.7097 45.3548C39.7097 48.4677 42.2427 51 45.3548 51C48.4669 51 51 48.4677 51 45.3548C51 42.5169 48.8919 40.1677 46.1613 39.7742ZM21.1613 7.45161C21.1613 4.78306 23.3315 2.6129 26 2.6129C28.6685 2.6129 30.8387 4.78306 30.8387 7.45161C30.8387 10.1202 28.6685 12.2903 26 12.2903C23.3315 12.2903 21.1613 10.1202 21.1613 7.45161ZM10.6774 45.3548C10.6774 47.5782 8.86855 49.3871 6.64516 49.3871C4.42177 49.3871 2.6129 47.5782 2.6129 45.3548C2.6129 43.1315 4.42177 41.3226 6.64516 41.3226C8.86855 41.3226 10.6774 43.1315 10.6774 45.3548ZM23.5806 45.3548C23.5806 47.5782 21.7718 49.3871 19.5484 49.3871C17.325 49.3871 15.5161 47.5782 15.5161 45.3548C15.5161 43.1315 17.325 41.3226 19.5484 41.3226C21.7718 41.3226 23.5806 43.1315 23.5806 45.3548ZM17.9355 26.8065C17.9355 29.475 15.7653 31.6452 13.0968 31.6452C10.4282 31.6452 8.25806 29.475 8.25806 26.8065C8.25806 24.1379 10.4282 21.9677 13.0968 21.9677C15.7653 21.9677 17.9355 24.1379 17.9355 26.8065ZM34.0645 26.8065C34.0645 24.1379 36.2347 21.9677 38.9032 21.9677C41.5718 21.9677 43.7419 24.1379 43.7419 26.8065C43.7419 29.475 41.5718 31.6452 38.9032 31.6452C36.2347 31.6452 34.0645 29.475 34.0645 26.8065ZM36.4839 45.3548C36.4839 47.5782 34.675 49.3871 32.4516 49.3871C30.2282 49.3871 28.4194 47.5782 28.4194 45.3548C28.4194 43.1315 30.2282 41.3226 32.4516 41.3226C34.675 41.3226 36.4839 43.1315 36.4839 45.3548ZM45.3548 49.3871C43.1315 49.3871 41.3226 47.5782 41.3226 45.3548C41.3226 43.1315 43.1315 41.3226 45.3548 41.3226C47.5782 41.3226 49.3871 43.1315 49.3871 45.3548C49.3871 47.5782 47.5782 49.3871 45.3548 49.3871Z"/>
</mask>
<path d="M46.1613 39.7742V37.2903C46.1613 36.8452 45.8008 36.4839 45.3548 36.4839H39.7097V33.2024C42.8871 32.8032 45.3548 30.0903 45.3548 26.8065C45.3548 23.5226 42.8871 20.8097 39.7097 20.4105V17.9355C39.7097 17.4903 39.3492 17.129 38.9032 17.129H26.8065V13.8476C29.9839 13.4484 32.4516 10.7355 32.4516 7.45161C32.4516 3.89436 29.5573 1 26 1C22.4427 1 19.5484 3.89436 19.5484 7.45161C19.5484 10.7355 22.0161 13.4484 25.1935 13.8476V17.129H13.0968C12.6508 17.129 12.2903 17.4903 12.2903 17.9355V20.4105C9.1129 20.8097 6.64516 23.5226 6.64516 26.8065C6.64516 30.0903 9.1129 32.8032 12.2903 33.2024V36.4839H6.64516C6.19919 36.4839 5.83871 36.8452 5.83871 37.2903V39.7742C3.10806 40.1677 1 42.5169 1 45.3548C1 48.4677 3.53306 51 6.64516 51C9.75726 51 12.2903 48.4677 12.2903 45.3548C12.2903 42.5169 10.1823 40.1677 7.45161 39.7742V38.0968H18.7419V39.7742C16.0113 40.1677 13.9032 42.5169 13.9032 45.3548C13.9032 48.4677 16.4363 51 19.5484 51C22.6605 51 25.1935 48.4677 25.1935 45.3548C25.1935 42.5169 23.0855 40.1677 20.3548 39.7742V37.2903C20.3548 36.8452 19.9944 36.4839 19.5484 36.4839H13.9032V33.2024C17.0806 32.8032 19.5484 30.0903 19.5484 26.8065C19.5484 23.5226 17.0806 20.8097 13.9032 20.4105V18.7419H38.0968V20.4105C34.9194 20.8097 32.4516 23.5226 32.4516 26.8065C32.4516 30.0903 34.9194 32.8032 38.0968 33.2024V36.4839H32.4516C32.0056 36.4839 31.6452 36.8452 31.6452 37.2903V39.7742C28.9145 40.1677 26.8065 42.5169 26.8065 45.3548C26.8065 48.4677 29.3395 51 32.4516 51C35.5637 51 38.0968 48.4677 38.0968 45.3548C38.0968 42.5169 35.9887 40.1677 33.2581 39.7742V38.0968H44.5484V39.7742C41.8177 40.1677 39.7097 42.5169 39.7097 45.3548C39.7097 48.4677 42.2427 51 45.3548 51C48.4669 51 51 48.4677 51 45.3548C51 42.5169 48.8919 40.1677 46.1613 39.7742ZM21.1613 7.45161C21.1613 4.78306 23.3315 2.6129 26 2.6129C28.6685 2.6129 30.8387 4.78306 30.8387 7.45161C30.8387 10.1202 28.6685 12.2903 26 12.2903C23.3315 12.2903 21.1613 10.1202 21.1613 7.45161ZM10.6774 45.3548C10.6774 47.5782 8.86855 49.3871 6.64516 49.3871C4.42177 49.3871 2.6129 47.5782 2.6129 45.3548C2.6129 43.1315 4.42177 41.3226 6.64516 41.3226C8.86855 41.3226 10.6774 43.1315 10.6774 45.3548ZM23.5806 45.3548C23.5806 47.5782 21.7718 49.3871 19.5484 49.3871C17.325 49.3871 15.5161 47.5782 15.5161 45.3548C15.5161 43.1315 17.325 41.3226 19.5484 41.3226C21.7718 41.3226 23.5806 43.1315 23.5806 45.3548ZM17.9355 26.8065C17.9355 29.475 15.7653 31.6452 13.0968 31.6452C10.4282 31.6452 8.25806 29.475 8.25806 26.8065C8.25806 24.1379 10.4282 21.9677 13.0968 21.9677C15.7653 21.9677 17.9355 24.1379 17.9355 26.8065ZM34.0645 26.8065C34.0645 24.1379 36.2347 21.9677 38.9032 21.9677C41.5718 21.9677 43.7419 24.1379 43.7419 26.8065C43.7419 29.475 41.5718 31.6452 38.9032 31.6452C36.2347 31.6452 34.0645 29.475 34.0645 26.8065ZM36.4839 45.3548C36.4839 47.5782 34.675 49.3871 32.4516 49.3871C30.2282 49.3871 28.4194 47.5782 28.4194 45.3548C28.4194 43.1315 30.2282 41.3226 32.4516 41.3226C34.675 41.3226 36.4839 43.1315 36.4839 45.3548ZM45.3548 49.3871C43.1315 49.3871 41.3226 47.5782 41.3226 45.3548C41.3226 43.1315 43.1315 41.3226 45.3548 41.3226C47.5782 41.3226 49.3871 43.1315 49.3871 45.3548C49.3871 47.5782 47.5782 49.3871 45.3548 49.3871Z" fill="#626262"/>
<path d="M46.1613 39.7742V37.2903C46.1613 36.8452 45.8008 36.4839 45.3548 36.4839H39.7097V33.2024C42.8871 32.8032 45.3548 30.0903 45.3548 26.8065C45.3548 23.5226 42.8871 20.8097 39.7097 20.4105V17.9355C39.7097 17.4903 39.3492 17.129 38.9032 17.129H26.8065V13.8476C29.9839 13.4484 32.4516 10.7355 32.4516 7.45161C32.4516 3.89436 29.5573 1 26 1C22.4427 1 19.5484 3.89436 19.5484 7.45161C19.5484 10.7355 22.0161 13.4484 25.1935 13.8476V17.129H13.0968C12.6508 17.129 12.2903 17.4903 12.2903 17.9355V20.4105C9.1129 20.8097 6.64516 23.5226 6.64516 26.8065C6.64516 30.0903 9.1129 32.8032 12.2903 33.2024V36.4839H6.64516C6.19919 36.4839 5.83871 36.8452 5.83871 37.2903V39.7742C3.10806 40.1677 1 42.5169 1 45.3548C1 48.4677 3.53306 51 6.64516 51C9.75726 51 12.2903 48.4677 12.2903 45.3548C12.2903 42.5169 10.1823 40.1677 7.45161 39.7742V38.0968H18.7419V39.7742C16.0113 40.1677 13.9032 42.5169 13.9032 45.3548C13.9032 48.4677 16.4363 51 19.5484 51C22.6605 51 25.1935 48.4677 25.1935 45.3548C25.1935 42.5169 23.0855 40.1677 20.3548 39.7742V37.2903C20.3548 36.8452 19.9944 36.4839 19.5484 36.4839H13.9032V33.2024C17.0806 32.8032 19.5484 30.0903 19.5484 26.8065C19.5484 23.5226 17.0806 20.8097 13.9032 20.4105V18.7419H38.0968V20.4105C34.9194 20.8097 32.4516 23.5226 32.4516 26.8065C32.4516 30.0903 34.9194 32.8032 38.0968 33.2024V36.4839H32.4516C32.0056 36.4839 31.6452 36.8452 31.6452 37.2903V39.7742C28.9145 40.1677 26.8065 42.5169 26.8065 45.3548C26.8065 48.4677 29.3395 51 32.4516 51C35.5637 51 38.0968 48.4677 38.0968 45.3548C38.0968 42.5169 35.9887 40.1677 33.2581 39.7742V38.0968H44.5484V39.7742C41.8177 40.1677 39.7097 42.5169 39.7097 45.3548C39.7097 48.4677 42.2427 51 45.3548 51C48.4669 51 51 48.4677 51 45.3548C51 42.5169 48.8919 40.1677 46.1613 39.7742ZM21.1613 7.45161C21.1613 4.78306 23.3315 2.6129 26 2.6129C28.6685 2.6129 30.8387 4.78306 30.8387 7.45161C30.8387 10.1202 28.6685 12.2903 26 12.2903C23.3315 12.2903 21.1613 10.1202 21.1613 7.45161ZM10.6774 45.3548C10.6774 47.5782 8.86855 49.3871 6.64516 49.3871C4.42177 49.3871 2.6129 47.5782 2.6129 45.3548C2.6129 43.1315 4.42177 41.3226 6.64516 41.3226C8.86855 41.3226 10.6774 43.1315 10.6774 45.3548ZM23.5806 45.3548C23.5806 47.5782 21.7718 49.3871 19.5484 49.3871C17.325 49.3871 15.5161 47.5782 15.5161 45.3548C15.5161 43.1315 17.325 41.3226 19.5484 41.3226C21.7718 41.3226 23.5806 43.1315 23.5806 45.3548ZM17.9355 26.8065C17.9355 29.475 15.7653 31.6452 13.0968 31.6452C10.4282 31.6452 8.25806 29.475 8.25806 26.8065C8.25806 24.1379 10.4282 21.9677 13.0968 21.9677C15.7653 21.9677 17.9355 24.1379 17.9355 26.8065ZM34.0645 26.8065C34.0645 24.1379 36.2347 21.9677 38.9032 21.9677C41.5718 21.9677 43.7419 24.1379 43.7419 26.8065C43.7419 29.475 41.5718 31.6452 38.9032 31.6452C36.2347 31.6452 34.0645 29.475 34.0645 26.8065ZM36.4839 45.3548C36.4839 47.5782 34.675 49.3871 32.4516 49.3871C30.2282 49.3871 28.4194 47.5782 28.4194 45.3548C28.4194 43.1315 30.2282 41.3226 32.4516 41.3226C34.675 41.3226 36.4839 43.1315 36.4839 45.3548ZM45.3548 49.3871C43.1315 49.3871 41.3226 47.5782 41.3226 45.3548C41.3226 43.1315 43.1315 41.3226 45.3548 41.3226C47.5782 41.3226 49.3871 43.1315 49.3871 45.3548C49.3871 47.5782 47.5782 49.3871 45.3548 49.3871Z" stroke="#626262" stroke-width="0.8" mask="url(#path-1-outside-1)"/>
</svg>
