<svg width="50" height="50" viewBox="0 0 50 50" fill="none" xmlns="http://www.w3.org/2000/svg">
<path d="M50.0001 41.7548V35.6639L47.667 35.0677C47.6508 35.0284 47.6347 34.989 47.6177 34.95L48.8459 32.8799L44.5388 28.5728L42.4687 29.801C42.429 29.7841 42.3896 29.7679 42.351 29.7518L41.7548 27.4194H35.6639L35.0677 29.7526C35.0284 29.7687 34.989 29.7848 34.95 29.8018L32.8799 28.5736L28.5728 32.8807L29.801 34.9508C29.7841 34.9905 29.7679 35.0299 29.7518 35.0685L27.4194 35.6647V41.7556L29.7526 42.3518C29.7687 42.3912 29.7848 42.4305 29.8018 42.4695L28.5736 44.5396L32.8807 48.8467L34.9508 47.6185C34.9905 47.6355 35.0299 47.6516 35.0685 47.6677L35.6647 50.0001H41.7556L42.3518 47.667C42.3912 47.6508 42.4305 47.6347 42.4695 47.6177L44.5396 48.8459L48.8467 44.5388L47.6185 42.4687C47.6355 42.429 47.6516 42.3896 47.6677 42.351L50.0001 41.7548ZM46.8203 44.2848L44.2848 46.8203L42.5613 45.7977L42.1734 45.9832C41.9234 46.1017 41.6678 46.2088 41.4048 46.3017L40.9984 46.4459L40.5034 48.3872H36.9169L36.4219 46.4459L36.0155 46.3017C35.7525 46.2096 35.4962 46.1025 35.2469 45.9832L34.859 45.7977L33.1355 46.8203L30.6 44.2848L31.6226 42.5613L31.4371 42.1734C31.3186 41.9234 31.2115 41.6678 31.1186 41.4048L30.9744 40.9984L29.0323 40.5034V36.9169L30.9736 36.4219L31.1178 36.0155C31.2099 35.7525 31.317 35.4962 31.4363 35.2469L31.6218 34.859L30.5992 33.1355L33.1347 30.6L34.8582 31.6226L35.2461 31.4371C35.4962 31.3186 35.7517 31.2115 36.0148 31.1186L36.4211 30.9744L36.9161 29.0323H40.5026L40.9976 30.9736L41.404 31.1178C41.667 31.2099 41.9234 31.317 42.1726 31.4363L42.5605 31.6218L44.284 30.5992L46.8196 33.1347L45.7969 34.8582L45.9824 35.2461C46.1009 35.4962 46.208 35.7517 46.301 36.0148L46.4451 36.4211L48.3872 36.9161V40.5026L46.4459 40.9976L46.3017 41.404C46.2096 41.667 46.1025 41.9234 45.9832 42.1726L45.7977 42.5605L46.8203 44.2848Z" fill="#626262"/>
<path d="M38.7097 32.2583C35.1523 32.2583 32.2581 35.1525 32.2581 38.7099C32.2581 42.2673 35.1523 45.1615 38.7097 45.1615C42.267 45.1615 45.1613 42.2673 45.1613 38.7099C45.1613 35.1525 42.267 32.2583 38.7097 32.2583ZM38.7097 43.5486C36.0411 43.5486 33.871 41.3785 33.871 38.7099C33.871 36.0413 36.0411 33.8712 38.7097 33.8712C41.3783 33.8712 43.5484 36.0413 43.5484 38.7099C43.5484 41.3785 41.3783 43.5486 38.7097 43.5486Z" fill="#626262"/>
<path d="M38.7097 35.4839C36.9306 35.4839 35.4839 36.9306 35.4839 38.7097C35.4839 40.4888 36.9306 41.9355 38.7097 41.9355C40.4888 41.9355 41.9355 40.4888 41.9355 38.7097C41.9355 36.9306 40.4888 35.4839 38.7097 35.4839ZM38.7097 40.3226C37.8202 40.3226 37.0968 39.5992 37.0968 38.7097C37.0968 37.8202 37.8202 37.0968 38.7097 37.0968C39.5992 37.0968 40.3226 37.8202 40.3226 38.7097C40.3226 39.5992 39.5992 40.3226 38.7097 40.3226Z" fill="#626262"/>
<path d="M20.4235 13.6549C20.6936 14.4468 21.1638 15.145 21.7741 15.6935V16.3775L17.9395 17.8152C16.3743 18.4015 15.3225 19.9187 15.3225 21.5903V25.8064H34.6773V21.5903C34.6773 19.9187 33.6256 18.4015 32.0611 17.8144L28.2257 16.3767V15.6935C28.8361 15.1458 29.3063 14.4476 29.5764 13.6549C31.096 13.3943 32.258 12.0759 32.258 10.4839V7.25806C32.258 3.25652 29.0023 0 24.9999 0C20.9976 0 17.7419 3.25652 17.7419 7.25806V10.4839C17.7419 12.0759 18.9039 13.3943 20.4235 13.6549ZM26.6128 16.7122L24.9999 19.4001L23.387 16.7122V16.6531C23.8926 16.8331 24.4337 16.9355 24.9999 16.9355C25.5662 16.9355 26.1072 16.8323 26.6128 16.6531V16.7122ZM22.2344 17.9266L23.8603 20.6354L22.2451 21.4426L21.2016 18.3137L22.2344 17.9266ZM33.0644 21.5903V24.1935H16.9354V21.5903C16.9354 20.587 17.5662 19.6773 18.5054 19.3249L19.6911 18.8807L21.3032 23.7179L24.9999 21.8695L28.6967 23.7179L30.3088 18.8807L31.4952 19.3257C32.4336 19.6773 33.0644 20.587 33.0644 21.5903ZM28.7983 18.3137L27.7548 21.4434L26.1395 20.6362L27.7654 17.9266L28.7983 18.3137ZM24.9999 15.3226C23.2209 15.3226 21.7741 13.8758 21.7741 12.0968V8.81623C22.9547 8.6918 24.0686 8.2614 24.9999 7.52898C25.9312 8.26219 27.0452 8.6918 28.2257 8.81623V12.0968C28.2257 13.8758 26.779 15.3226 24.9999 15.3226ZM29.8386 11.8727V9.09581C30.3186 9.37579 30.6451 9.89045 30.6451 10.4847C30.6451 11.0789 30.3186 11.5927 29.8386 11.8727ZM24.9999 1.6129C28.1119 1.6129 30.6451 4.14527 30.6451 7.25806V7.70657C30.1686 7.42896 29.6225 7.25806 29.0322 7.25806H28.8936C27.6378 7.25806 26.4573 6.76939 25.5701 5.88143L24.9999 5.31045L24.4297 5.88143C23.5418 6.76939 22.362 7.25806 21.1063 7.25806H20.9677C20.3774 7.25806 19.8312 7.42896 19.3548 7.70657V7.25806C19.3548 4.14527 21.8879 1.6129 24.9999 1.6129ZM20.1612 9.09503V11.8719C19.6812 11.592 19.3548 11.0773 19.3548 10.4831C19.3548 9.88888 19.6812 9.375 20.1612 9.09503Z" fill="#626262"/>
<path d="M0 50H16.129V29.0322H0V50ZM1.6129 30.6451H14.5161V48.3871H1.6129V30.6451Z" fill="#626262"/>
<path d="M3.22583 32.2583H12.9032V33.8712H3.22583V32.2583Z" fill="#626262"/>
<path d="M3.22583 35.4839H4.83873V37.0968H3.22583V35.4839Z" fill="#626262"/>
<path d="M6.45166 35.4839H12.9033V37.0968H6.45166V35.4839Z" fill="#626262"/>
<path d="M3.22583 38.7095H12.9032V40.3224H3.22583V38.7095Z" fill="#626262"/>
<path d="M3.22583 41.9355H12.9032V43.5485H3.22583V41.9355Z" fill="#626262"/>
<path d="M11.2903 45.1611H12.9032V46.774H11.2903V45.1611Z" fill="#626262"/>
<path d="M3.22583 45.1611H9.67744V46.774H3.22583V45.1611Z" fill="#626262"/>
<path d="M21.5379 36.0539L20.3976 34.9136L16.6016 38.7096L20.3976 42.5056L21.5379 41.3652L19.6888 39.516H25.8064V37.9031H19.6888L21.5379 36.0539Z" fill="#626262"/>
<path d="M8.87096 12.903C8.87096 12.4589 9.23245 12.0966 9.67741 12.0966H13.3757L11.5266 13.9458L12.667 15.0861L16.4629 11.2901L12.667 7.49414L11.5266 8.63451L13.3757 10.4837H9.67741C8.34369 10.4837 7.25806 11.5693 7.25806 12.903V27.4192H8.87096V12.903Z" fill="#626262"/>
<path d="M38.7096 12.9032V23.0532L36.8604 21.204L35.72 22.3444L39.516 26.1404L43.312 22.3444L42.1716 21.204L40.3225 23.0532V12.9032C40.3225 11.5695 39.2368 10.4839 37.9031 10.4839H33.8708V12.0968H37.9031C38.3481 12.0968 38.7096 12.4591 38.7096 12.9032Z" fill="#626262"/>
</svg>
