<svg width="36" height="35" viewBox="0 0 36 35" fill="none" xmlns="http://www.w3.org/2000/svg">
<path d="M17.6758 0C8.01086 0 0.175781 7.83508 0.175781 17.5C0.175781 27.1649 8.01086 35 17.6758 35C27.3407 35 35.1758 27.1649 35.1758 17.5C35.1648 7.83966 27.3361 0.0109863 17.6758 0ZM27.5507 17.8751C27.3721 18.1149 23.1039 23.75 17.6758 23.75C12.2476 23.75 7.97882 18.1137 7.8009 17.8751C7.63397 17.6529 7.63397 17.3471 7.8009 17.1249C7.97943 16.8851 12.2476 11.25 17.6758 11.25C23.1039 11.25 27.3727 16.8863 27.5507 17.1249C27.7176 17.3471 27.7176 17.6529 27.5507 17.8751Z" fill="black"/>
<path d="M19.5508 17.5C19.5508 18.5355 18.7113 19.375 17.6758 19.375C16.6403 19.375 15.8008 18.5355 15.8008 17.5C15.8008 16.4645 16.6403 15.625 17.6758 15.625C18.7113 15.625 19.5508 16.4645 19.5508 17.5Z" fill="black"/>
<path d="M17.6753 12.5C13.6308 12.5 10.1277 16.2805 9.10352 17.5C10.1277 18.7195 13.6308 22.5 17.6753 22.5C21.7198 22.5 25.2229 18.7195 26.2471 17.5C25.2229 16.2805 21.7198 12.5 17.6753 12.5ZM17.6753 20.625C15.9495 20.625 14.5503 19.2258 14.5503 17.5C14.5503 15.7742 15.9495 14.375 17.6753 14.375C19.4011 14.375 20.8003 15.7742 20.8003 17.5C20.7982 19.2252 19.4005 20.6229 17.6753 20.625Z" fill="black"/>
</svg>
